NotoSansBamum-Regular.ufo
<glyph name="uniA6A1" format="2">
  <advance width="768"/>
  <unicode hex="A6A1"/>
  <outline>
    <contour>
      <point x="98" y="0" type="line"/>
      <point x="198" y="0" type="line"/>
      <point x="592" y="594" type="line"/>
      <point x="596" y="594" type="line"/>
      <point x="594" y="564"/>
      <point x="588" y="461"/>
      <point x="588" y="388" type="curve"/>
      <point x="588" y="0" type="line"/>
      <point x="672" y="0" type="line"/>
      <point x="672" y="714" type="line"/>
      <point x="572" y="714" type="line"/>
      <point x="179" y="123" type="line"/>
      <point x="175" y="123" type="line"/>
      <point x="178" y="154"/>
      <point x="182" y="255"/>
      <point x="182" y="322" type="curve"/>
      <point x="182" y="714" type="line"/>
      <point x="98" y="714" type="line"/>
    </contour>
  </outline>
</glyph>
<glyph name="uniA6A2" format="2">
  <advance width="546"/>
  <unicode hex="A6A2"/>
  <outline>
    <contour>
      <point x="271" y="-10" type="curve"/>
      <point x="406" y="-10"/>
      <point x="491" y="79"/>
      <point x="491" y="235" type="curve"/>
      <point x="491" y="391"/>
      <point x="401" y="479"/>
      <point x="274" y="479" type="curve"/>
      <point x="139" y="479"/>
      <point x="55" y="391"/>
      <point x="55" y="235" type="curve"/>
      <point x="55" y="79"/>
      <point x="146" y="-10"/>
    </contour>
    <contour>
      <point x="273" y="63" type="curve"/>
      <point x="185" y="63"/>
      <point x="146" y="129"/>
      <point x="146" y="235" type="curve"/>
      <point x="146" y="341"/>
      <point x="184" y="405"/>
      <point x="272" y="405" type="curve"/>
      <point x="360" y="405"/>
      <point x="400" y="341"/>
      <point x="400" y="235" type="curve"/>
      <point x="400" y="129"/>
      <point x="360" y="63"/>
    </contour>
    <contour>
      <point x="124" y="523" type="line"/>
      <point x="421" y="523" type="line"/>
      <point x="421" y="594" type="line"/>
      <point x="124" y="594" type="line"/>
    </contour>
    <contour>
      <point x="124" y="643" type="line"/>
      <point x="421" y="643" type="line"/>
      <point x="421" y="714" type="line"/>
      <point x="124" y="714" type="line"/>
    </contour>
  </outline>
</glyph>
<glyph name="uniA6A3" format="2">
  <advance width="656"/>
  <unicode hex="A6A3"/>
  <outline>
    <contour>
      <point x="114" y="0" type="line"/>
      <point x="217" y="0" type="line"/>
      <point x="613" y="714" type="line"/>
      <point x="510" y="714" type="line"/>
      <point x="440" y="588" type="line"/>
      <point x="379" y="665"/>
      <point x="281" y="725"/>
      <point x="206" y="725" type="curve" smooth="yes"/>
      <point x="131" y="725"/>
      <point x="69" y="681"/>
      <point x="69" y="587" type="curve" smooth="yes"/>
      <point x="69" y="464"/>
      <point x="194" y="352"/>
      <point x="288" y="314" type="curve"/>
    </contour>
    <contour>
      <point x="331" y="391" type="line"/>
      <point x="261" y="413"/>
      <point x="155" y="528"/>
      <point x="155" y="587" type="curve" smooth="yes"/>
      <point x="155" y="618"/>
      <point x="176" y="639"/>
      <point x="206" y="639" type="curve" smooth="yes"/>
      <point x="256" y="639"/>
      <point x="349" y="561"/>
      <point x="390" y="497" type="curve"/>
    </contour>
    <contour>
      <point x="561" y="269" type="curve" smooth="yes"/>
      <point x="595" y="269"/>
      <point x="624" y="289"/>
      <point x="624" y="337" type="curve" smooth="yes"/>
      <point x="624" y="386"/>
      <point x="595" y="404"/>
      <point x="561" y="404" type="curve" smooth="yes"/>
      <point x="527" y="404"/>
      <point x="500" y="386"/>
      <point x="500" y="337" type="curve" smooth="yes"/>
      <point x="500" y="289"/>
      <point x="527" y="269"/>
    </contour>
  </outline>
</glyph>
<glyph name="uniA6A5" format="2">
  <advance width="617"/>
  <unicode hex="A6A5"/>
  <outline>
    <contour>
      <point x="97" y="184" type="line"/>
      <point x="568" y="184" type="line"/>
      <point x="568" y="263" type="line"/>
      <point x="187" y="263" type="line"/>
      <point x="187" y="714" type="line"/>
      <point x="97" y="714" type="line"/>
    </contour>
    <contour>
      <point x="334" y="0" type="curve" smooth="yes"/>
      <point x="361" y="0"/>
      <point x="385" y="18"/>
      <point x="385" y="56" type="curve" smooth="yes"/>
      <point x="385" y="95"/>
      <point x="361" y="112"/>
      <point x="334" y="112" type="curve" smooth="yes"/>
      <point x="305" y="112"/>
      <point x="282" y="95"/>
      <point x="282" y="56" type="curve" smooth="yes"/>
      <point x="282" y="18"/>
      <point x="305" y="0"/>
    </contour>
    <contour>
      <point x="334" y="335" type="curve" smooth="yes"/>
      <point x="361" y="335"/>
      <point x="385" y="353"/>
      <point x="385" y="391" type="curve" smooth="yes"/>
      <point x="385" y="430"/>
      <point x="361" y="447"/>
      <point x="334" y="447" type="curve" smooth="yes"/>
      <point x="305" y="447"/>
      <point x="282" y="430"/>
      <point x="282" y="391" type="curve" smooth="yes"/>
      <point x="282" y="353"/>
      <point x="305" y="335"/>
    </contour>
  </outline>
</glyph>
<glyph name="uniA6A6" format="2">
  <advance width="578"/>
  <unicode hex="A6A6"/>
  <outline>
    <contour>
      <point x="79" y="197" type="line"/>
      <point x="285" y="197" type="line" smooth="yes"/>
      <point x="485" y="197"/>
      <point x="533" y="279"/>
      <point x="533" y="357" type="curve" smooth="yes"/>
      <point x="533" y="447"/>
      <point x="479" y="516"/>
      <point x="285" y="516" type="curve" smooth="yes"/>
      <point x="79" y="516" type="line"/>
      <point x="79" y="437" type="line"/>
      <point x="285" y="437" type="line" smooth="yes"/>
      <point x="404" y="437"/>
      <point x="442" y="410"/>
      <point x="442" y="357" type="curve" smooth="yes"/>
      <point x="442" y="303"/>
      <point x="398" y="276"/>
      <point x="285" y="276" type="curve" smooth="yes"/>
      <point x="79" y="276" type="line"/>
    </contour>
    <contour>
      <point x="231" y="0" type="curve" smooth="yes"/>
      <point x="258" y="0"/>
      <point x="282" y="18"/>
      <point x="282" y="56" type="curve" smooth="yes"/>
      <point x="282" y="95"/>
      <point x="258" y="112"/>
      <point x="231" y="112" type="curve" smooth="yes"/>
      <point x="202" y="112"/>
      <point x="179" y="95"/>
      <point x="179" y="56" type="curve" smooth="yes"/>
      <point x="179" y="18"/>
      <point x="202" y="0"/>
    </contour>
    <contour>
      <point x="231" y="602" type="curve" smooth="yes"/>
      <point x="258" y="602"/>
      <point x="282" y="620"/>
      <point x="282" y="658" type="curve" smooth="yes"/>
      <point x="282" y="697"/>
      <point x="258" y="714"/>
      <point x="231" y="714" type="curve" smooth="yes"/>
      <point x="202" y="714"/>
      <point x="179" y="697"/>
      <point x="179" y="658" type="curve" smooth="yes"/>
      <point x="179" y="620"/>
      <point x="202" y="602"/>
    </contour>
  </outline>
</glyph>
<glyph name="uniA6A7" format="2">
  <advance width="606"/>
  <unicode hex="A6A7"/>
  <outline>
    <contour>
      <point x="18" y="0" type="curve"/>
      <point x="121" y="0" type="line"/>
      <point x="177" y="104"/>
      <point x="234" y="204"/>
      <point x="292" y="300" type="curve"/>
      <point x="308" y="272"/>
      <point x="323" y="247"/>
      <point x="344" y="217" type="curve" smooth="yes"/>
      <point x="493" y="0" type="line"/>
      <point x="604" y="0" type="line"/>
      <point x="343" y="381" type="line"/>
      <point x="409" y="486"/>
      <point x="476" y="583"/>
      <point x="544" y="671" type="curve"/>
      <point x="544" y="714" type="line"/>
      <point x="76" y="714" type="line"/>
      <point x="76" y="636" type="line"/>
      <point x="418" y="636" type="line"/>
      <point x="271" y="438"/>
      <point x="157" y="253"/>
    </contour>
  </outline>
</glyph>
<glyph name="uniA6A8" format="2">
  <advance width="550"/>
  <unicode hex="A6A8"/>
  <outline>
    <contour>
      <point x="349" y="0" type="curve"/>
      <point x="438" y="0" type="line"/>
      <point x="433" y="62"/>
      <point x="430" y="122"/>
      <point x="430" y="181" type="curve" smooth="yes"/>
      <point x="430" y="357"/>
      <point x="453" y="518"/>
      <point x="488" y="671" type="curve"/>
      <point x="488" y="714" type="line"/>
      <point x="20" y="714" type="line"/>
      <point x="20" y="636" type="line"/>
      <point x="397" y="636" type="line"/>
      <point x="364" y="477"/>
      <point x="346" y="320"/>
      <point x="346" y="136" type="curve" smooth="yes"/>
      <point x="346" y="92"/>
      <point x="347" y="47"/>
    </contour>
  </outline>
</glyph>
<glyph name="uniA6A9" format="2">
  <advance width="725"/>
  <unicode hex="A6A9"/>
  <outline>
    <contour>
      <point x="361" y="168" type="curve" smooth="yes"/>
      <point x="536" y="168"/>
      <point x="670" y="273"/>
      <point x="670" y="467" type="curve" smooth="yes"/>
      <point x="670" y="628"/>
      <point x="600" y="725"/>
      <point x="481" y="725" type="curve" smooth="yes"/>
      <point x="399" y="725"/>
      <point x="307" y="675"/>
      <point x="307" y="520" type="curve" smooth="yes"/>
      <point x="307" y="457"/>
      <point x="315" y="419"/>
      <point x="323" y="388" type="curve"/>
      <point x="410" y="388" type="line"/>
      <point x="400" y="422"/>
      <point x="393" y="472"/>
      <point x="393" y="520" type="curve" smooth="yes"/>
      <point x="393" y="625"/>
      <point x="442" y="652"/>
      <point x="485" y="652" type="curve" smooth="yes"/>
      <point x="544" y="652"/>
      <point x="581" y="584"/>
      <point x="581" y="472" type="curve" smooth="yes"/>
      <point x="581" y="352"/>
      <point x="530" y="241"/>
      <point x="356" y="241" type="curve" smooth="yes"/>
      <point x="204" y="241"/>
      <point x="143" y="344"/>
      <point x="143" y="457" type="curve" smooth="yes"/>
      <point x="143" y="550"/>
      <point x="176" y="608"/>
      <point x="225" y="673" type="curve"/>
      <point x="157" y="720" type="line"/>
      <point x="98" y="648"/>
      <point x="55" y="568"/>
      <point x="55" y="460" type="curve" smooth="yes"/>
      <point x="55" y="274"/>
      <point x="185" y="168"/>
    </contour>
    <contour>
      <point x="369" y="0" type="curve" smooth="yes"/>
      <point x="396" y="0"/>
      <point x="420" y="18"/>
      <point x="420" y="56" type="curve" smooth="yes"/>
      <point x="420" y="95"/>
      <point x="396" y="112"/>
      <point x="369" y="112" type="curve" smooth="yes"/>
      <point x="340" y="112"/>
      <point x="317" y="95"/>
      <point x="317" y="56" type="curve" smooth="yes"/>
      <point x="317" y="18"/>
      <point x="340" y="0"/>
    </contour>
  </outline>
</glyph>
<glyph name="uniA6AA" format="2">
  <advance width="659"/>
  <unicode hex="A6AA"/>
  <outline>
    <contour>
      <point x="239" y="0" type="line"/>
      <point x="328" y="0" type="line"/>
      <point x="328" y="367" type="line"/>
      <point x="351" y="365"/>
      <point x="375" y="364"/>
      <point x="398" y="364" type="curve" smooth="yes"/>
      <point x="535" y="364"/>
      <point x="616" y="441"/>
      <point x="616" y="548" type="curve" smooth="yes"/>
      <point x="616" y="650"/>
      <point x="550" y="725"/>
      <point x="428" y="725" type="curve" smooth="yes"/>
      <point x="316" y="725"/>
      <point x="239" y="658"/>
      <point x="239" y="493" type="curve" smooth="yes"/>
      <point x="239" y="460" type="line"/>
      <point x="172" y="476"/>
      <point x="112" y="501"/>
      <point x="55" y="529" type="curve"/>
      <point x="20" y="459" type="line"/>
      <point x="74" y="425"/>
      <point x="154" y="396"/>
      <point x="239" y="380" type="curve"/>
    </contour>
    <contour>
      <point x="453" y="40" type="curve" smooth="yes"/>
      <point x="480" y="40"/>
      <point x="504" y="58"/>
      <point x="504" y="96" type="curve" smooth="yes"/>
      <point x="504" y="135"/>
      <point x="480" y="152"/>
      <point x="453" y="152" type="curve" smooth="yes"/>
      <point x="424" y="152"/>
      <point x="401" y="135"/>
      <point x="401" y="96" type="curve" smooth="yes"/>
      <point x="401" y="58"/>
      <point x="424" y="40"/>
    </contour>
    <contour>
      <point x="453" y="202" type="curve" smooth="yes"/>
      <point x="480" y="202"/>
      <point x="504" y="220"/>
      <point x="504" y="258" type="curve" smooth="yes"/>
      <point x="504" y="297"/>
      <point x="480" y="314"/>
      <point x="453" y="314" type="curve" smooth="yes"/>
      <point x="424" y="314"/>
      <point x="401" y="297"/>
      <point x="401" y="258" type="curve" smooth="yes"/>
      <point x="401" y="220"/>
      <point x="424" y="202"/>
    </contour>
    <contour>
      <point x="392" y="442" type="curve" smooth="yes"/>
      <point x="370" y="442"/>
      <point x="348" y="443"/>
      <point x="328" y="445" type="curve"/>
      <point x="328" y="489" type="line" smooth="yes"/>
      <point x="328" y="617"/>
      <point x="376" y="647"/>
      <point x="429" y="647" type="curve" smooth="yes"/>
      <point x="497" y="647"/>
      <point x="527" y="599"/>
      <point x="527" y="552" type="curve" smooth="yes"/>
      <point x="527" y="485"/>
      <point x="481" y="442"/>
    </contour>
  </outline>
</glyph>
<glyph name="uniA6AB" format="2">
  <advance width="600"/>
  <unicode hex="A6AB"/>
  <outline>
    <contour>
      <point x="265" y="0" type="line"/>
      <point x="357" y="0" type="line"/>
      <point x="458" y="714" type="line"/>
      <point x="372" y="714" type="line"/>
      <point x="37" y="506" type="line"/>
      <point x="82" y="431" type="line"/>
      <point x="234" y="527" type="line" smooth="yes"/>
      <point x="288" y="561"/>
      <point x="331" y="586"/>
      <point x="365" y="620" type="curve"/>
      <point x="354" y="574"/>
      <point x="343" y="522"/>
      <point x="334" y="459" type="curve" smooth="yes"/>
    </contour>
    <contour>
      <point x="213" y="324" type="curve" smooth="yes"/>
      <point x="240" y="324"/>
      <point x="264" y="342"/>
      <point x="264" y="380" type="curve" smooth="yes"/>
      <point x="264" y="419"/>
      <point x="240" y="436"/>
      <point x="213" y="436" type="curve" smooth="yes"/>
      <point x="184" y="436"/>
      <point x="161" y="419"/>
      <point x="161" y="380" type="curve" smooth="yes"/>
      <point x="161" y="342"/>
      <point x="184" y="324"/>
    </contour>
    <contour>
      <point x="529" y="468" type="curve" smooth="yes"/>
      <point x="556" y="468"/>
      <point x="580" y="486"/>
      <point x="580" y="524" type="curve" smooth="yes"/>
      <point x="580" y="563"/>
      <point x="556" y="580"/>
      <point x="529" y="580" type="curve" smooth="yes"/>
      <point x="500" y="580"/>
      <point x="477" y="563"/>
      <point x="477" y="524" type="curve" smooth="yes"/>
      <point x="477" y="486"/>
      <point x="500" y="468"/>
    </contour>
  </outline>
</glyph>
<glyph name="uniA6AE" format="2">
  <advance width="549"/>
  <unicode hex="A6AE"/>
  <outline>
    <contour>
      <point x="97" y="0" type="line"/>
      <point x="187" y="0" type="line"/>
      <point x="187" y="197" type="line"/>
      <point x="256" y="197" type="line" smooth="yes"/>
      <point x="456" y="197"/>
      <point x="504" y="279"/>
      <point x="504" y="357" type="curve" smooth="yes"/>
      <point x="504" y="447"/>
      <point x="450" y="516"/>
      <point x="256" y="516" type="curve" smooth="yes"/>
      <point x="187" y="516" type="line"/>
      <point x="187" y="714" type="line"/>
      <point x="97" y="714" type="line"/>
      <point x="97" y="437" type="line"/>
      <point x="256" y="437" type="line" smooth="yes"/>
      <point x="375" y="437"/>
      <point x="413" y="410"/>
      <point x="413" y="357" type="curve" smooth="yes"/>
      <point x="413" y="303"/>
      <point x="369" y="276"/>
      <point x="256" y="276" type="curve" smooth="yes"/>
      <point x="97" y="276" type="line"/>
    </contour>
    <contour>
      <point x="322" y="0" type="curve" smooth="yes"/>
      <point x="349" y="0"/>
      <point x="373" y="18"/>
      <point x="373" y="56" type="curve" smooth="yes"/>
      <point x="373" y="95"/>
      <point x="349" y="112"/>
      <point x="322" y="112" type="curve" smooth="yes"/>
      <point x="293" y="112"/>
      <point x="270" y="95"/>
      <point x="270" y="56" type="curve" smooth="yes"/>
      <point x="270" y="18"/>
      <point x="293" y="0"/>
    </contour>
    <contour>
      <point x="322" y="602" type="curve" smooth="yes"/>
      <point x="349" y="602"/>
      <point x="373" y="620"/>
      <point x="373" y="658" type="curve" smooth="yes"/>
      <point x="373" y="697"/>
      <point x="349" y="714"/>
      <point x="322" y="714" type="curve" smooth="yes"/>
      <point x="293" y="714"/>
      <point x="270" y="697"/>
      <point x="270" y="658" type="curve" smooth="yes"/>
      <point x="270" y="620"/>
      <point x="293" y="602"/>
    </contour>
  </outline>
</glyph>
<glyph name="uniA6AF" format="2">
  <advance width="600"/>
  <unicode hex="A6AF"/>
  <outline>
    <contour>
      <point x="137" y="0" type="line"/>
      <point x="227" y="0" type="line"/>
      <point x="227" y="183" type="line" smooth="yes"/>
      <point x="227" y="248"/>
      <point x="227" y="293"/>
      <point x="221" y="339" type="curve"/>
      <point x="252" y="303"/>
      <point x="276" y="275"/>
      <point x="324" y="234" type="curve" smooth="yes"/>
      <point x="438" y="137" type="line"/>
      <point x="495" y="200" type="line"/>
      <point x="228" y="434" type="line"/>
      <point x="137" y="388" type="line"/>
    </contour>
    <contour>
      <point x="386" y="391" type="curve" smooth="yes"/>
      <point x="413" y="391"/>
      <point x="437" y="409"/>
      <point x="437" y="447" type="curve" smooth="yes"/>
      <point x="437" y="486"/>
      <point x="413" y="503"/>
      <point x="386" y="503" type="curve" smooth="yes"/>
      <point x="357" y="503"/>
      <point x="334" y="486"/>
      <point x="334" y="447" type="curve" smooth="yes"/>
      <point x="334" y="409"/>
      <point x="357" y="391"/>
    </contour>
    <contour>
      <point x="137" y="450" type="line"/>
      <point x="495" y="631" type="line"/>
      <point x="495" y="725" type="line"/>
      <point x="137" y="544" type="line"/>
    </contour>
  </outline>
</glyph>
<glyph name="uniA6B0" format="2">
  <advance width="637"/>
  <unicode hex="A6B0"/>
  <outline>
    <contour>
      <point x="97" y="0" type="line"/>
      <point x="187" y="0" type="line"/>
      <point x="187" y="284" type="line"/>
      <point x="596" y="460" type="line"/>
      <point x="596" y="533" type="line"/>
      <point x="175" y="714" type="line"/>
      <point x="97" y="714" type="line"/>
    </contour>
    <contour>
      <point x="187" y="377" type="line"/>
      <point x="187" y="616" type="line"/>
      <point x="377" y="538" type="line" smooth="yes"/>
      <point x="431" y="516"/>
      <point x="458" y="507"/>
      <point x="495" y="498" type="curve"/>
      <point x="495" y="496" type="line"/>
      <point x="455" y="484"/>
      <point x="413" y="470"/>
      <point x="366" y="451" type="curve" smooth="yes"/>
    </contour>
  </outline>
</glyph>
<glyph name="uniA6B3" format="2">
  <advance width="524"/>
  <unicode hex="A6B3"/>
  <outline>
    <contour>
      <point x="97" y="0" type="line"/>
      <point x="499" y="0" type="line"/>
      <point x="499" y="78" type="line"/>
      <point x="187" y="78" type="line"/>
      <point x="187" y="714" type="line"/>
      <point x="97" y="714" type="line"/>
    </contour>
    <contour>
      <point x="297" y="180" type="line"/>
      <point x="387" y="180" type="line"/>
      <point x="387" y="714" type="line"/>
      <point x="297" y="714" type="line"/>
    </contour>
  </outline>
</glyph>
<glyph name="uniA6B9" format="2">
  <advance width="480"/>
  <unicode hex="A6B9"/>
  <outline>
    <contour>
      <point x="455" y="450" type="line"/>
      <point x="455" y="544" type="line"/>
      <point x="97" y="725" type="line"/>
      <point x="97" y="631" type="line"/>
    </contour>
    <contour>
      <point x="97" y="0" type="line"/>
      <point x="187" y="0" type="line"/>
      <point x="187" y="548" type="line"/>
      <point x="97" y="548" type="line"/>
    </contour>
  </outline>
</glyph>
<glyph name="uniA6BC" format="2">
  <advance width="639"/>
  <unicode hex="A6BC"/>
  <outline>
    <contour>
      <point x="68" y="107" type="line"/>
      <point x="604" y="310" type="line"/>
      <point x="604" y="411" type="line"/>
      <point x="68" y="615" type="line"/>
      <point x="68" y="521" type="line"/>
      <point x="384" y="407" type="line" smooth="yes"/>
      <point x="427" y="392"/>
      <point x="493" y="369"/>
      <point x="526" y="362" type="curve"/>
      <point x="526" y="358" type="line"/>
      <point x="493" y="352"/>
      <point x="428" y="331"/>
      <point x="384" y="315" type="curve" smooth="yes"/>
      <point x="68" y="201" type="line"/>
    </contour>
    <contour>
      <point x="212" y="-10" type="curve" smooth="yes"/>
      <point x="239" y="-10"/>
      <point x="263" y="8"/>
      <point x="263" y="46" type="curve" smooth="yes"/>
      <point x="263" y="85"/>
      <point x="239" y="102"/>
      <point x="212" y="102" type="curve" smooth="yes"/>
      <point x="183" y="102"/>
      <point x="160" y="85"/>
      <point x="160" y="46" type="curve" smooth="yes"/>
      <point x="160" y="8"/>
      <point x="183" y="-10"/>
    </contour>
    <contour>
      <point x="212" y="613" type="curve" smooth="yes"/>
      <point x="239" y="613"/>
      <point x="263" y="631"/>
      <point x="263" y="669" type="curve" smooth="yes"/>
      <point x="263" y="708"/>
      <point x="239" y="725"/>
      <point x="212" y="725" type="curve" smooth="yes"/>
      <point x="183" y="725"/>
      <point x="160" y="708"/>
      <point x="160" y="669" type="curve" smooth="yes"/>
      <point x="160" y="631"/>
      <point x="183" y="613"/>
    </contour>
  </outline>
</glyph>
<glyph name="uniA6BE" format="2">
  <advance width="741"/>
  <unicode hex="A6BE"/>
  <outline>
    <contour>
      <point x="325" y="0" type="line"/>
      <point x="415" y="0" type="line"/>
      <point x="415" y="333" type="line"/>
      <point x="554" y="333" type="line"/>
      <point x="554" y="0" type="line"/>
      <point x="644" y="0" type="line"/>
      <point x="644" y="412" type="line"/>
      <point x="415" y="412" type="line"/>
      <point x="415" y="714" type="line"/>
      <point x="325" y="714" type="line"/>
      <point x="325" y="412" type="line"/>
      <point x="187" y="412" type="line"/>
      <point x="187" y="714" type="line"/>
      <point x="97" y="714" type="line"/>
      <point x="97" y="333" type="line"/>
      <point x="325" y="333" type="line"/>
    </contour>
  </outline>
</glyph>
<glyph name="uniA6C1" format="2">
  <advance width="619"/>
  <unicode hex="A6C1"/>
  <outline>
    <contour>
      <point x="395" y="0" type="curve"/>
      <point x="483" y="0" type="line"/>
      <point x="515" y="117"/>
      <point x="538" y="268"/>
      <point x="538" y="400" type="curve" smooth="yes"/>
      <point x="538" y="590"/>
      <point x="479" y="725"/>
      <point x="300" y="725" type="curve" smooth="yes"/>
      <point x="175" y="725"/>
      <point x="81" y="645"/>
      <point x="81" y="469" type="curve" smooth="yes"/>
      <point x="81" y="419"/>
      <point x="89" y="380"/>
      <point x="103" y="334" type="curve"/>
      <point x="191" y="334" type="line"/>
      <point x="178" y="379"/>
      <point x="170" y="419"/>
      <point x="170" y="464" type="curve" smooth="yes"/>
      <point x="170" y="594"/>
      <point x="224" y="653"/>
      <point x="300" y="653" type="curve" smooth="yes"/>
      <point x="415" y="653"/>
      <point x="449" y="535"/>
      <point x="449" y="400" type="curve" smooth="yes"/>
      <point x="449" y="269"/>
      <point x="426" y="126"/>
    </contour>
  </outline>
</glyph>
<glyph name="uniA6C2" format="2">
  <advance width="533"/>
  <unicode hex="A6C2"/>
  <outline>
    <contour>
      <point x="85" y="0" type="line"/>
      <point x="174" y="0" type="line"/>
      <point x="174" y="714" type="line"/>
      <point x="85" y="714" type="line"/>
    </contour>
    <contour>
      <point x="222" y="367" type="line"/>
      <point x="493" y="478" type="line"/>
      <point x="493" y="562" type="line"/>
      <point x="222" y="451" type="line"/>
    </contour>
    <contour>
      <point x="222" y="531" type="line"/>
      <point x="493" y="641" type="line"/>
      <point x="493" y="725" type="line"/>
      <point x="222" y="615" type="line"/>
    </contour>
  </outline>
</glyph>
<glyph name="uniA6C4" format="2">
  <advance width="697"/>
  <unicode hex="A6C4"/>
  <outline>
    <contour>
      <point x="97" y="0" type="line"/>
      <point x="186" y="0" type="line"/>
      <point x="186" y="366" type="line"/>
      <point x="566" y="222" type="line"/>
      <point x="616" y="222" type="line"/>
      <point x="616" y="672" type="line"/>
      <point x="566" y="672" type="line"/>
      <point x="186" y="527" type="line"/>
      <point x="186" y="714" type="line"/>
      <point x="97" y="714" type="line"/>
    </contour>
    <contour>
      <point x="527" y="325" type="line"/>
      <point x="460" y="352"/>
      <point x="394" y="377"/>
      <point x="327" y="401" type="curve" smooth="yes"/>
      <point x="283" y="417"/>
      <point x="219" y="438"/>
      <point x="186" y="444" type="curve"/>
      <point x="186" y="448" type="line"/>
      <point x="219" y="455"/>
      <point x="284" y="478"/>
      <point x="327" y="493" type="curve" smooth="yes"/>
      <point x="394" y="517"/>
      <point x="460" y="542"/>
      <point x="527" y="569" type="curve"/>
    </contour>
  </outline>
</glyph>
<glyph name="uniA6C5" format="2">
  <advance width="602"/>
  <unicode hex="A6C5"/>
  <outline>
    <contour>
      <point x="97" y="-1" type="line"/>
      <point x="187" y="-1" type="line"/>
      <point x="187" y="268" type="line"/>
      <point x="347" y="357" type="line"/>
      <point x="347" y="160" type="line"/>
      <point x="437" y="160" type="line"/>
      <point x="437" y="714" type="line"/>
      <point x="347" y="714" type="line"/>
      <point x="347" y="446" type="line"/>
      <point x="187" y="357" type="line"/>
      <point x="187" y="553" type="line"/>
      <point x="97" y="553" type="line"/>
    </contour>
    <contour>
      <point x="551" y="448" type="curve" smooth="yes"/>
      <point x="578" y="448"/>
      <point x="602" y="466"/>
      <point x="602" y="504" type="curve" smooth="yes"/>
      <point x="602" y="543"/>
      <point x="578" y="560"/>
      <point x="551" y="560" type="curve" smooth="yes"/>
      <point x="522" y="560"/>
      <point x="499" y="543"/>
      <point x="499" y="504" type="curve" smooth="yes"/>
      <point x="499" y="466"/>
      <point x="522" y="448"/>
    </contour>
  </outline>
</glyph>
<glyph name="uniA6C6" format="2">
  <advance width="569"/>
  <unicode hex="A6C6"/>
  <outline>
    <contour>
      <point x="382" y="0" type="curve"/>
      <point x="472" y="0" type="line"/>
      <point x="472" y="714" type="line"/>
      <point x="382" y="714" type="line"/>
      <point x="382" y="550" type="line" smooth="yes"/>
      <point x="382" y="525"/>
      <point x="383" y="499"/>
      <point x="384" y="474" type="curve"/>
      <point x="382" y="474" type="line"/>
      <point x="346" y="517"/>
      <point x="282" y="545"/>
      <point x="196" y="545" type="curve" smooth="yes"/>
      <point x="123" y="545"/>
      <point x="69" y="522"/>
      <point x="40" y="511" type="curve"/>
      <point x="60" y="432" type="line"/>
      <point x="85" y="442"/>
      <point x="123" y="464"/>
      <point x="190" y="464" type="curve" smooth="yes"/>
      <point x="335" y="464"/>
      <point x="382" y="373"/>
      <point x="382" y="286" type="curve" smooth="yes"/>
      <point x="382" y="161"/>
      <point x="258" y="95"/>
      <point x="148" y="95" type="curve"/>
      <point x="168" y="15" type="line"/>
      <point x="263" y="17"/>
      <point x="329" y="45"/>
      <point x="382" y="102" type="curve"/>
      <point x="384" y="102" type="line"/>
      <point x="383" y="67"/>
      <point x="382" y="36"/>
    </contour>
  </outline>
</glyph>
<glyph name="uniA6C7" format="2">
  <advance width="621"/>
  <unicode hex="A6C7"/>
  <outline>
    <contour>
      <point x="577" y="78" type="line"/>
      <point x="577" y="178" type="line"/>
      <point x="113" y="427" type="line"/>
      <point x="113" y="431" type="line"/>
      <point x="513" y="616" type="line"/>
      <point x="513" y="714" type="line"/>
      <point x="35" y="478" type="line"/>
      <point x="35" y="379" type="line"/>
    </contour>
    <contour>
      <point x="486" y="374" type="curve" smooth="yes"/>
      <point x="513" y="374"/>
      <point x="537" y="392"/>
      <point x="537" y="430" type="curve" smooth="yes"/>
      <point x="537" y="469"/>
      <point x="513" y="486"/>
      <point x="486" y="486" type="curve" smooth="yes"/>
      <point x="457" y="486"/>
      <point x="434" y="469"/>
      <point x="434" y="430" type="curve" smooth="yes"/>
      <point x="434" y="392"/>
      <point x="457" y="374"/>
    </contour>
  </outline>
</glyph>
<glyph name="uniA6C9" format="2">
  <advance width="572"/>
  <unicode hex="A6C9"/>
  <outline>
    <contour>
      <point x="38" y="0" type="line"/>
      <point x="533" y="0" type="line"/>
      <point x="533" y="80" type="line"/>
      <point x="147" y="80" type="line"/>
      <point x="523" y="646" type="line"/>
      <point x="523" y="714" type="line"/>
      <point x="50" y="714" type="line"/>
      <point x="50" y="634" type="line"/>
      <point x="414" y="634" type="line"/>
      <point x="38" y="68" type="line"/>
    </contour>
  </outline>
</glyph>
<glyph name="uniA6CA" format="2">
  <advance width="748"/>
  <unicode hex="A6CA"/>
  <outline>
    <contour>
      <point x="7" y="1" type="line"/>
      <point x="48" y="1" type="line" smooth="yes"/>
      <point x="139" y="1"/>
      <point x="254" y="52"/>
      <point x="290" y="255" type="curve"/>
      <point x="322" y="216"/>
      <point x="388" y="168"/>
      <point x="488" y="168" type="curve" smooth="yes"/>
      <point x="610" y="168"/>
      <point x="713" y="237"/>
      <point x="713" y="380" type="curve" smooth="yes"/>
      <point x="713" y="471"/>
      <point x="668" y="570"/>
      <point x="543" y="570" type="curve" smooth="yes"/>
      <point x="456" y="570"/>
      <point x="384" y="505"/>
      <point x="384" y="375" type="curve" smooth="yes"/>
      <point x="384" y="368" type="line"/>
      <point x="474" y="368" type="line"/>
      <point x="474" y="384" type="line" smooth="yes"/>
      <point x="474" y="462"/>
      <point x="502" y="496"/>
      <point x="547" y="496" type="curve" smooth="yes"/>
      <point x="590" y="496"/>
      <point x="624" y="451"/>
      <point x="624" y="385" type="curve" smooth="yes"/>
      <point x="624" y="304"/>
      <point x="582" y="241"/>
      <point x="482" y="241" type="curve" smooth="yes"/>
      <point x="392" y="241"/>
      <point x="314" y="308"/>
      <point x="314" y="413" type="curve" smooth="yes"/>
      <point x="314" y="422"/>
      <point x="314" y="464"/>
      <point x="320" y="524" type="curve" smooth="yes"/>
      <point x="340" y="714" type="line"/>
      <point x="250" y="714" type="line"/>
      <point x="216" y="353" type="line" smooth="yes"/>
      <point x="200" y="188"/>
      <point x="146" y="79"/>
      <point x="36" y="79" type="curve" smooth="yes"/>
      <point x="7" y="79" type="line"/>
    </contour>
  </outline>
</glyph>
<glyph name="uniA6CB" format="2">
  <advance width="563"/>
  <unicode hex="A6CB"/>
  <outline>
    <contour>
      <point x="280" y="0" type="line"/>
      <point x="372" y="0" type="line"/>
      <point x="462" y="643" type="line"/>
      <point x="563" y="643" type="line"/>
      <point x="563" y="714" type="line"/>
      <point x="248" y="714" type="line"/>
      <point x="248" y="643" type="line"/>
      <point x="363" y="643" type="line"/>
      <point x="43" y="444" type="line"/>
      <point x="88" y="369" type="line"/>
      <point x="240" y="465" type="line" smooth="yes"/>
      <point x="294" y="499"/>
      <point x="337" y="524"/>
      <point x="371" y="558" type="curve"/>
      <point x="360" y="512"/>
      <point x="350" y="460"/>
      <point x="340" y="397" type="curve" smooth="yes"/>
    </contour>
  </outline>
</glyph>
<glyph name="uniA6CD" format="2">
  <advance width="546"/>
  <unicode hex="A6CD"/>
  <outline>
    <contour>
      <point x="229" y="0" type="line"/>
      <point x="317" y="0" type="line"/>
      <point x="317" y="144" type="line"/>
      <point x="471" y="144" type="line"/>
      <point x="471" y="215" type="line"/>
      <point x="317" y="215" type="line"/>
      <point x="317" y="292" type="line"/>
      <point x="429" y="311"/>
      <point x="491" y="399"/>
      <point x="491" y="507" type="curve" smooth="yes"/>
      <point x="491" y="636"/>
      <point x="401" y="725"/>
      <point x="274" y="725" type="curve" smooth="yes"/>
      <point x="148" y="725"/>
      <point x="57" y="642"/>
      <point x="55" y="507" type="curve"/>
      <point x="146" y="507" type="line"/>
      <point x="147" y="592"/>
      <point x="191" y="651"/>
      <point x="272" y="651" type="curve" smooth="yes"/>
      <point x="357" y="651"/>
      <point x="400" y="587"/>
      <point x="400" y="507" type="curve" smooth="yes"/>
      <point x="400" y="433"/>
      <point x="363" y="362"/>
      <point x="272" y="362" type="curve" smooth="yes"/>
      <point x="229" y="362" type="line"/>
      <point x="229" y="215" type="line"/>
      <point x="75" y="215" type="line"/>
      <point x="75" y="144" type="line"/>
      <point x="229" y="144" type="line"/>
    </contour>
  </outline>
</glyph>
<glyph name="uniA6CE" format="2">
  <advance width="600"/>
  <unicode hex="A6CE"/>
  <outline>
    <contour>
      <point x="0" y="0" type="line"/>
      <point x="95" y="0" type="line"/>
      <point x="255" y="456" type="line" smooth="yes"/>
      <point x="276" y="516"/>
      <point x="291" y="567"/>
      <point x="300" y="614" type="curve"/>
      <point x="310" y="567"/>
      <point x="324" y="517"/>
      <point x="345" y="458" type="curve" smooth="yes"/>
      <point x="506" y="0" type="line"/>
      <point x="600" y="0" type="line"/>
      <point x="345" y="714" type="line"/>
      <point x="255" y="714" type="line"/>
    </contour>
  </outline>
</glyph>
<glyph name="uniA6D1" format="2">
  <advance width="621"/>
  <unicode hex="A6D1"/>
  <outline>
    <contour>
      <point x="112" y="-10" type="line"/>
      <point x="133" y="-10" type="line" smooth="yes"/>
      <point x="394" y="-10"/>
      <point x="508" y="137"/>
      <point x="508" y="358" type="curve" smooth="yes"/>
      <point x="508" y="580"/>
      <point x="394" y="725"/>
      <point x="151" y="725" type="curve" smooth="yes"/>
      <point x="112" y="725" type="line"/>
      <point x="112" y="646" type="line"/>
      <point x="153" y="646" type="line" smooth="yes"/>
      <point x="341" y="646"/>
      <point x="413" y="538"/>
      <point x="413" y="358" type="curve" smooth="yes"/>
      <point x="413" y="178"/>
      <point x="341" y="68"/>
      <point x="141" y="68" type="curve" smooth="yes"/>
      <point x="112" y="68" type="line"/>
    </contour>
    <contour>
      <point x="569" y="548" type="curve" smooth="yes"/>
      <point x="598" y="548"/>
      <point x="621" y="566"/>
      <point x="621" y="604" type="curve" smooth="yes"/>
      <point x="621" y="643"/>
      <point x="598" y="660"/>
      <point x="569" y="660" type="curve" smooth="yes"/>
      <point x="542" y="660"/>
      <point x="518" y="643"/>
      <point x="518" y="604" type="curve" smooth="yes"/>
      <point x="518" y="566"/>
      <point x="542" y="548"/>
    </contour>
  </outline>
</glyph>
<glyph name="uniA6D4" format="2">
  <advance width="713"/>
  <unicode hex="A6D4"/>
  <outline>
    <contour>
      <point x="81" y="0" type="line"/>
      <point x="171" y="0" type="line"/>
      <point x="171" y="191" type="line" smooth="yes"/>
      <point x="171" y="306"/>
      <point x="209" y="357"/>
      <point x="309" y="368" type="curve"/>
      <point x="309" y="0" type="line"/>
      <point x="399" y="0" type="line"/>
      <point x="399" y="368" type="line"/>
      <point x="484" y="361"/>
      <point x="540" y="326"/>
      <point x="540" y="193" type="curve" smooth="yes"/>
      <point x="540" y="0" type="line"/>
      <point x="632" y="0" type="line"/>
      <point x="632" y="192" type="line" smooth="yes"/>
      <point x="632" y="339"/>
      <point x="561" y="435"/>
      <point x="399" y="445" type="curve"/>
      <point x="399" y="714" type="line"/>
      <point x="309" y="714" type="line"/>
      <point x="309" y="445" type="line"/>
      <point x="131" y="432"/>
      <point x="81" y="320"/>
      <point x="81" y="188" type="curve" smooth="yes"/>
    </contour>
    <contour>
      <point x="579" y="523" type="curve" smooth="yes"/>
      <point x="606" y="523"/>
      <point x="630" y="541"/>
      <point x="630" y="579" type="curve" smooth="yes"/>
      <point x="630" y="618"/>
      <point x="606" y="635"/>
      <point x="579" y="635" type="curve" smooth="yes"/>
      <point x="550" y="635"/>
      <point x="527" y="618"/>
      <point x="527" y="579" type="curve" smooth="yes"/>
      <point x="527" y="541"/>
      <point x="550" y="523"/>
    </contour>
  </outline>
</glyph>
<glyph name="uniA6D6" format="2">
  <advance width="579"/>
  <unicode hex="A6D6"/>
  <outline>
    <contour>
      <point x="97" y="0" type="line"/>
      <point x="187" y="0" type="line"/>
      <point x="187" y="333" type="line"/>
      <point x="410" y="333" type="line"/>
      <point x="410" y="0" type="line"/>
      <point x="500" y="0" type="line"/>
      <point x="500" y="412" type="line"/>
      <point x="187" y="412" type="line"/>
      <point x="187" y="714" type="line"/>
      <point x="97" y="714" type="line"/>
    </contour>
  </outline>
</glyph>
<glyph name="uniA6D8" format="2">
  <advance width="718"/>
  <unicode hex="A6D8"/>
  <outline>
    <contour>
      <point x="135" y="0" type="line"/>
      <point x="227" y="0" type="line"/>
      <point x="492" y="398" type="line" smooth="yes"/>
      <point x="527" y="450"/>
      <point x="551" y="497"/>
      <point x="573" y="540" type="curve"/>
      <point x="576" y="539" type="line"/>
      <point x="564" y="493"/>
      <point x="557" y="439"/>
      <point x="548" y="378" type="curve" smooth="yes"/>
      <point x="491" y="0" type="line"/>
      <point x="583" y="0" type="line"/>
      <point x="684" y="714" type="line"/>
      <point x="602" y="714" type="line"/>
      <point x="277" y="232" type="line" smooth="yes"/>
      <point x="254" y="198"/>
      <point x="227" y="153"/>
      <point x="206" y="111" type="curve"/>
      <point x="203" y="151"/>
      <point x="196" y="205"/>
      <point x="190" y="243" type="curve" smooth="yes"/>
      <point x="136" y="603" type="line"/>
      <point x="317" y="494" type="line"/>
      <point x="317" y="592" type="line"/>
      <point x="117" y="714" type="line"/>
      <point x="34" y="714" type="line"/>
    </contour>
  </outline>
</glyph>
<glyph name="uniA6D9" format="2">
  <advance width="600"/>
  <unicode hex="A6D9"/>
  <outline>
    <contour>
      <point x="265" y="0" type="line"/>
      <point x="357" y="0" type="line"/>
      <point x="413" y="397" type="line"/>
      <point x="600" y="496" type="line"/>
      <point x="568" y="559" type="line"/>
      <point x="425" y="484" type="line"/>
      <point x="458" y="714" type="line"/>
      <point x="372" y="714" type="line"/>
      <point x="37" y="506" type="line"/>
      <point x="82" y="431" type="line"/>
      <point x="234" y="527" type="line" smooth="yes"/>
      <point x="288" y="561"/>
      <point x="331" y="586"/>
      <point x="365" y="620" type="curve"/>
      <point x="354" y="574"/>
      <point x="344" y="522"/>
      <point x="334" y="459" type="curve" smooth="yes"/>
      <point x="330" y="434" type="line"/>
      <point x="131" y="329" type="line"/>
      <point x="163" y="266" type="line"/>
      <point x="317" y="347" type="line"/>
    </contour>
  </outline>
</glyph>
<glyph name="uniA6DB" format="2">
  <advance width="651"/>
  <unicode hex="A6DB"/>
  <outline>
    <contour>
      <point x="97" y="0" type="line"/>
      <point x="187" y="0" type="line"/>
      <point x="187" y="635" type="line"/>
      <point x="465" y="635" type="line"/>
      <point x="465" y="0" type="line"/>
      <point x="554" y="0" type="line"/>
      <point x="554" y="714" type="line"/>
      <point x="97" y="714" type="line"/>
    </contour>
  </outline>
</glyph>
<glyph name="uniA6E0" format="2">
  <advance width="637"/>
  <unicode hex="A6E0"/>
  <outline>
    <contour>
      <point x="223" y="0" type="line"/>
      <point x="313" y="0" type="line"/>
      <point x="313" y="280" type="line"/>
      <point x="596" y="458" type="line"/>
      <point x="596" y="531" type="line"/>
      <point x="301" y="714" type="line"/>
      <point x="223" y="714" type="line"/>
      <point x="223" y="327" type="line"/>
      <point x="7" y="192" type="line"/>
      <point x="52" y="117" type="line"/>
      <point x="223" y="224" type="line"/>
    </contour>
    <contour>
      <point x="313" y="380" type="line"/>
      <point x="313" y="606" type="line"/>
      <point x="500" y="493" type="line"/>
    </contour>
  </outline>
</glyph>
<glyph name="uniA6E1" format="2">
  <advance width="919"/>
  <unicode hex="A6E1"/>
  <outline>
    <contour>
      <point x="256" y="238" type="curve" smooth="yes"/>
      <point x="370" y="238"/>
      <point x="426" y="314"/>
      <point x="467" y="364" type="curve" smooth="yes"/>
      <point x="480" y="379" type="line"/>
      <point x="544" y="274"/>
      <point x="616" y="238"/>
      <point x="700" y="238" type="curve" smooth="yes"/>
      <point x="789" y="238"/>
      <point x="866" y="294"/>
      <point x="894" y="377" type="curve"/>
      <point x="812" y="411" type="line"/>
      <point x="802" y="372"/>
      <point x="771" y="311"/>
      <point x="700" y="311" type="curve" smooth="yes"/>
      <point x="623" y="311"/>
      <point x="578" y="372"/>
      <point x="537" y="450" type="curve"/>
      <point x="712" y="664" type="line"/>
      <point x="651" y="714" type="line"/>
      <point x="499" y="527" type="line"/>
      <point x="427" y="667"/>
      <point x="355" y="714"/>
      <point x="260" y="714" type="curve" smooth="yes"/>
      <point x="143" y="714"/>
      <point x="45" y="632"/>
      <point x="45" y="475" type="curve" smooth="yes"/>
      <point x="45" y="341"/>
      <point x="121" y="238"/>
    </contour>
    <contour>
      <point x="156" y="69" type="line"/>
      <point x="763" y="69" type="line"/>
      <point x="763" y="142" type="line"/>
      <point x="156" y="142" type="line"/>
    </contour>
    <contour>
      <point x="262" y="311" type="curve" smooth="yes"/>
      <point x="178" y="311"/>
      <point x="134" y="379"/>
      <point x="134" y="475" type="curve" smooth="yes"/>
      <point x="134" y="558"/>
      <point x="168" y="641"/>
      <point x="262" y="641" type="curve" smooth="yes"/>
      <point x="337" y="641"/>
      <point x="388" y="570"/>
      <point x="440" y="456" type="curve"/>
      <point x="440" y="454" type="line"/>
      <point x="404" y="409" type="line" smooth="yes"/>
      <point x="360" y="355"/>
      <point x="330" y="311"/>
    </contour>
  </outline>
</glyph>
<glyph name="uniA6E2" format="2">
  <advance width="531"/>
  <unicode hex="A6E2"/>
  <outline>
    <contour>
      <point x="362" y="-10" type="curve" smooth="yes"/>
      <point x="420" y="-10"/>
      <point x="461" y="3"/>
      <point x="492" y="15" type="curve"/>
      <point x="492" y="93" type="line"/>
      <point x="467" y="82"/>
      <point x="414" y="68"/>
      <point x="365" y="68" type="curve" smooth="yes"/>
      <point x="232" y="68"/>
      <point x="156" y="146"/>
      <point x="156" y="282" type="curve" smooth="yes"/>
      <point x="156" y="430"/>
      <point x="248" y="511"/>
      <point x="396" y="511" type="curve" smooth="yes"/>
      <point x="457" y="511" type="line"/>
      <point x="457" y="595" type="line"/>
      <point x="82" y="724" type="line"/>
      <point x="82" y="640" type="line"/>
      <point x="190" y="603" type="line" smooth="yes"/>
      <point x="232" y="589"/>
      <point x="273" y="577"/>
      <point x="300" y="570" type="curve"/>
      <point x="300" y="568" type="line"/>
      <point x="157" y="540"/>
      <point x="61" y="430"/>
      <point x="61" y="281" type="curve" smooth="yes"/>
      <point x="61" y="95"/>
      <point x="179" y="-10"/>
    </contour>
  </outline>
</glyph>
<glyph name="uniA6E3" format="2">
  <advance width="579"/>
  <unicode hex="A6E3"/>
  <outline>
    <contour>
      <point x="392" y="0" type="line"/>
      <point x="482" y="0" type="line"/>
      <point x="482" y="589" type="line"/>
      <point x="169" y="589" type="line"/>
      <point x="169" y="714" type="line"/>
      <point x="79" y="714" type="line"/>
      <point x="79" y="380" type="line"/>
      <point x="169" y="380" type="line"/>
      <point x="169" y="510" type="line"/>
      <point x="392" y="510" type="line"/>
    </contour>
  </outline>
</glyph>
<glyph name="uniA6E5" format="2">
  <advance width="645"/>
  <unicode hex="A6E5"/>
  <outline>
    <contour>
      <point x="97" y="0" type="line"/>
      <point x="187" y="0" type="line"/>
      <point x="187" y="517" type="line"/>
      <point x="281" y="517" type="line"/>
      <point x="296" y="452"/>
      <point x="357" y="395"/>
      <point x="525" y="395" type="curve" smooth="yes"/>
      <point x="596" y="395" type="line"/>
      <point x="596" y="474" type="line"/>
      <point x="525" y="474" type="line" smooth="yes"/>
      <point x="412" y="474"/>
      <point x="368" y="501"/>
      <point x="368" y="555" type="curve" smooth="yes"/>
      <point x="368" y="608"/>
      <point x="406" y="635"/>
      <point x="525" y="635" type="curve" smooth="yes"/>
      <point x="596" y="635" type="line"/>
      <point x="596" y="714" type="line"/>
      <point x="525" y="714" type="line" smooth="yes"/>
      <point x="361" y="714"/>
      <point x="297" y="665"/>
      <point x="281" y="596" type="curve"/>
      <point x="97" y="596" type="line"/>
    </contour>
  </outline>
</glyph>
<glyph name="uniA6E8" format="2">
  <advance width="490"/>
  <unicode hex="A6E8"/>
  <outline>
    <contour>
      <point x="60" y="0" type="line"/>
      <point x="470" y="0" type="line"/>
      <point x="470" y="73" type="line"/>
      <point x="315" y="73" type="line"/>
      <point x="315" y="714" type="line"/>
      <point x="60" y="714" type="line"/>
      <point x="60" y="500" type="line"/>
      <point x="133" y="500" type="line"/>
      <point x="133" y="641" type="line"/>
      <point x="225" y="641" type="line"/>
      <point x="225" y="73" type="line"/>
      <point x="60" y="73" type="line"/>
    </contour>
  </outline>
</glyph>
<glyph name="uniA6EC" format="2">
  <advance width="469"/>
  <unicode hex="A6EC"/>
  <outline>
    <contour>
      <point x="20" y="0" type="line"/>
      <point x="419" y="0" type="line"/>
      <point x="419" y="73" type="line"/>
      <point x="265" y="73" type="line"/>
      <point x="265" y="616" type="line"/>
      <point x="293" y="601"/>
      <point x="320" y="586"/>
      <point x="352" y="570" type="curve" smooth="yes"/>
      <point x="419" y="536" type="line"/>
      <point x="419" y="618" type="line"/>
      <point x="228" y="714" type="line"/>
      <point x="175" y="714" type="line"/>
      <point x="175" y="73" type="line"/>
      <point x="20" y="73" type="line"/>
    </contour>
  </outline>
</glyph>
<glyph name="uniA6ED" format="2">
  <advance width="546"/>
  <unicode hex="A6ED"/>
  <outline>
    <contour>
      <point x="229" y="0" type="line"/>
      <point x="317" y="0" type="line"/>
      <point x="317" y="236" type="line"/>
      <point x="458" y="162" type="line"/>
      <point x="490" y="225" type="line"/>
      <point x="334" y="306" type="line"/>
      <point x="435" y="328"/>
      <point x="491" y="405"/>
      <point x="491" y="507" type="curve" smooth="yes"/>
      <point x="491" y="620"/>
      <point x="423" y="725"/>
      <point x="264" y="725" type="curve" smooth="yes"/>
      <point x="152" y="725"/>
      <point x="89" y="669"/>
      <point x="37" y="599" type="curve"/>
      <point x="95" y="550" type="line"/>
      <point x="140" y="609"/>
      <point x="186" y="651"/>
      <point x="265" y="651" type="curve" smooth="yes"/>
      <point x="359" y="651"/>
      <point x="400" y="587"/>
      <point x="400" y="507" type="curve" smooth="yes"/>
      <point x="400" y="431"/>
      <point x="361" y="362"/>
      <point x="272" y="362" type="curve" smooth="yes"/>
      <point x="227" y="362" type="line"/>
      <point x="106" y="426" type="line"/>
      <point x="74" y="363" type="line"/>
      <point x="229" y="282" type="line"/>
    </contour>
  </outline>
</glyph>
<glyph name="uniA6EE" format="2">
  <advance width="580"/>
  <unicode hex="A6EE"/>
  <outline>
    <contour>
      <point x="20" y="0" type="line"/>
      <point x="254" y="0" type="line"/>
      <point x="254" y="635" type="line"/>
      <point x="393" y="635" type="line"/>
      <point x="393" y="0" type="line"/>
      <point x="483" y="0" type="line"/>
      <point x="483" y="714" type="line"/>
      <point x="164" y="714" type="line"/>
      <point x="164" y="79" type="line"/>
      <point x="20" y="79" type="line"/>
    </contour>
  </outline>
</glyph>
<glyph name="uniA6EF" format="2">
  <advance width="549"/>
  <unicode hex="A6EF"/>
  <outline>
    <contour>
      <point x="275" y="-9" type="curve" smooth="yes"/>
      <point x="426" y="-9"/>
      <point x="507" y="72"/>
      <point x="507" y="190" type="curve" smooth="yes"/>
      <point x="507" y="207"/>
      <point x="505" y="221"/>
      <point x="502" y="234" type="curve"/>
      <point x="412" y="234" type="line"/>
      <point x="415" y="222"/>
      <point x="417" y="212"/>
      <point x="417" y="198" type="curve" smooth="yes"/>
      <point x="417" y="103"/>
      <point x="349" y="69"/>
      <point x="276" y="69" type="curve" smooth="yes"/>
      <point x="187" y="69"/>
      <point x="141" y="110"/>
      <point x="141" y="182" type="curve" smooth="yes"/>
      <point x="141" y="253"/>
      <point x="178" y="280"/>
      <point x="299" y="328" type="curve" smooth="yes"/>
      <point x="415" y="374"/>
      <point x="485" y="434"/>
      <point x="485" y="543" type="curve" smooth="yes"/>
      <point x="485" y="663"/>
      <point x="400" y="724"/>
      <point x="284" y="724" type="curve" smooth="yes"/>
      <point x="149" y="724"/>
      <point x="84" y="643"/>
      <point x="84" y="552" type="curve" smooth="yes"/>
      <point x="84" y="546"/>
      <point x="85" y="536"/>
      <point x="86" y="528" type="curve"/>
      <point x="176" y="528" type="line"/>
      <point x="175" y="536"/>
      <point x="174" y="547"/>
      <point x="174" y="551" type="curve" smooth="yes"/>
      <point x="174" y="615"/>
      <point x="225" y="644"/>
      <point x="284" y="644" type="curve" smooth="yes"/>
      <point x="352" y="644"/>
      <point x="395" y="609"/>
      <point x="395" y="542" type="curve" smooth="yes"/>
      <point x="395" y="468"/>
      <point x="344" y="439"/>
      <point x="234" y="395" type="curve" smooth="yes"/>
      <point x="123" y="351"/>
      <point x="51" y="290"/>
      <point x="51" y="176" type="curve" smooth="yes"/>
      <point x="51" y="53"/>
      <point x="130" y="-9"/>
    </contour>
  </outline>
</glyph>
<glyph name="uniA6F0" format="2">
  <unicode hex="A6F0"/>
  <outline>
    <contour>
      <point x="36" y="815" type="line"/>
      <point x="173" y="815" type="line"/>
      <point x="351" y="965" type="line"/>
      <point x="533" y="815" type="line"/>
      <point x="671" y="815" type="line"/>
      <point x="397" y="1035" type="line"/>
      <point x="307" y="1035" type="line"/>
    </contour>
  </outline>
</glyph>
<glyph name="uniA6F1" format="2">
  <unicode hex="A6F1"/>
  <outline>
    <contour>
      <point x="50" y="846" type="line"/>
      <point x="657" y="846" type="line"/>
      <point x="657" y="919" type="line"/>
      <point x="50" y="919" type="line"/>
    </contour>
  </outline>
</glyph>
<glyph name="uniA6F2" format="2">
  <advance width="619"/>
  <unicode hex="A6F2"/>
  <outline>
    <contour>
      <point x="305" y="0" type="curve" smooth="yes"/>
      <point x="447" y="0"/>
      <point x="538" y="92"/>
      <point x="538" y="245" type="curve" smooth="yes"/>
      <point x="538" y="368"/>
      <point x="470" y="483"/>
      <point x="365" y="580" type="curve"/>
      <point x="264" y="580" type="line"/>
      <point x="375" y="474"/>
      <point x="449" y="370"/>
      <point x="449" y="260" type="curve" smooth="yes"/>
      <point x="449" y="130"/>
      <point x="391" y="72"/>
      <point x="305" y="72" type="curve" smooth="yes"/>
      <point x="238" y="72"/>
      <point x="170" y="113"/>
      <point x="170" y="222" type="curve" smooth="yes"/>
      <point x="170" y="266"/>
      <point x="178" y="306"/>
      <point x="191" y="351" type="curve"/>
      <point x="103" y="351" type="line"/>
      <point x="89" y="305"/>
      <point x="81" y="266"/>
      <point x="81" y="215" type="curve" smooth="yes"/>
      <point x="81" y="58"/>
      <point x="191" y="0"/>
    </contour>
    <contour>
      <point x="310" y="613" type="curve" smooth="yes"/>
      <point x="337" y="613"/>
      <point x="361" y="631"/>
      <point x="361" y="669" type="curve" smooth="yes"/>
      <point x="361" y="708"/>
      <point x="337" y="725"/>
      <point x="310" y="725" type="curve" smooth="yes"/>
      <point x="281" y="725"/>
      <point x="258" y="708"/>
      <point x="258" y="669" type="curve" smooth="yes"/>
      <point x="258" y="631"/>
      <point x="281" y="613"/>
    </contour>
  </outline>
</glyph>
<glyph name="uniA6F4" format="2">
  <advance width="679"/>
  <unicode hex="A6F4"/>
  <outline>
    <contour>
      <point x="344" y="0" type="line"/>
      <point x="436" y="0" type="line"/>
      <point x="567" y="714" type="line"/>
      <point x="481" y="714" type="line"/>
    </contour>
    <contour>
      <point x="34" y="0" type="line"/>
      <point x="126" y="0" type="line"/>
      <point x="257" y="714" type="line"/>
      <point x="171" y="714" type="line"/>
    </contour>
    <contour>
      <point x="301" y="291" type="curve" smooth="yes"/>
      <point x="328" y="291"/>
      <point x="352" y="309"/>
      <point x="352" y="347" type="curve" smooth="yes"/>
      <point x="352" y="386"/>
      <point x="328" y="403"/>
      <point x="301" y="403" type="curve" smooth="yes"/>
      <point x="272" y="403"/>
      <point x="249" y="386"/>
      <point x="249" y="347" type="curve" smooth="yes"/>
      <point x="249" y="309"/>
      <point x="272" y="291"/>
    </contour>
    <contour>
      <point x="611" y="291" type="curve" smooth="yes"/>
      <point x="638" y="291"/>
      <point x="662" y="309"/>
      <point x="662" y="347" type="curve" smooth="yes"/>
      <point x="662" y="386"/>
      <point x="638" y="403"/>
      <point x="611" y="403" type="curve" smooth="yes"/>
      <point x="582" y="403"/>
      <point x="559" y="386"/>
      <point x="559" y="347" type="curve" smooth="yes"/>
      <point x="559" y="309"/>
      <point x="582" y="291"/>
    </contour>
  </outline>
</glyph>
<glyph name="uniA6F5" format="2">
  <advance width="498"/>
  <unicode hex="A6F5"/>
  <outline>
    <contour>
      <point x="142" y="0" type="line"/>
      <point x="232" y="0" type="line"/>
      <point x="294" y="339" type="line"/>
      <point x="448" y="339" type="line"/>
      <point x="448" y="412" type="line"/>
      <point x="50" y="412" type="line"/>
      <point x="50" y="339" type="line"/>
      <point x="204" y="339" type="line"/>
    </contour>
  </outline>
</glyph>
<glyph name="uniA6F7" format="2">
  <advance width="707"/>
  <unicode hex="A6F7"/>
  <outline>
    <contour>
      <point x="307" y="135" type="line"/>
      <point x="397" y="135" type="line"/>
      <point x="671" y="355" type="line"/>
      <point x="533" y="355" type="line"/>
      <point x="397" y="243" type="line"/>
      <point x="397" y="714" type="line"/>
      <point x="307" y="714" type="line"/>
      <point x="307" y="242" type="line"/>
      <point x="173" y="355" type="line"/>
      <point x="36" y="355" type="line"/>
    </contour>
    <contour>
      <point x="352" y="-10" type="curve" smooth="yes"/>
      <point x="379" y="-10"/>
      <point x="403" y="8"/>
      <point x="403" y="46" type="curve" smooth="yes"/>
      <point x="403" y="85"/>
      <point x="379" y="102"/>
      <point x="352" y="102" type="curve" smooth="yes"/>
      <point x="323" y="102"/>
      <point x="300" y="85"/>
      <point x="300" y="46" type="curve" smooth="yes"/>
      <point x="300" y="8"/>
      <point x="323" y="-10"/>
    </contour>
  </outline>
</glyph>
<glyph name="u16801" format="2">
  <advance width="921"/>
  <unicode hex="16801"/>
  <outline>
    <contour>
      <point x="461" y="-60" type="curve" smooth="yes"/>
      <point x="576" y="-60"/>
      <point x="647" y="26"/>
      <point x="665" y="101" type="curve" smooth="yes"/>
      <point x="673" y="136"/>
      <point x="683" y="140"/>
      <point x="704" y="145" type="curve" smooth="yes"/>
      <point x="783" y="163"/>
      <point x="871" y="233"/>
      <point x="871" y="349" type="curve" smooth="yes"/>
      <point x="871" y="464"/>
      <point x="787" y="537"/>
      <point x="710" y="553" type="curve" smooth="yes"/>
      <point x="675" y="560"/>
      <point x="670" y="578"/>
      <point x="665" y="599" type="curve" smooth="yes"/>
      <point x="646" y="676"/>
      <point x="576" y="760"/>
      <point x="461" y="760" type="curve" smooth="yes"/>
      <point x="343" y="760"/>
      <point x="273" y="673"/>
      <point x="254" y="592" type="curve" smooth="yes"/>
      <point x="250" y="575"/>
      <point x="244" y="562"/>
      <point x="209" y="554" type="curve" smooth="yes"/>
      <point x="134" y="536"/>
      <point x="50" y="464"/>
      <point x="50" y="349" type="curve" smooth="yes"/>
      <point x="50" y="233"/>
      <point x="139" y="161"/>
      <point x="217" y="145" type="curve" smooth="yes"/>
      <point x="252" y="138"/>
      <point x="251" y="120"/>
      <point x="256" y="101" type="curve" smooth="yes"/>
      <point x="276" y="26"/>
      <point x="345" y="-60"/>
    </contour>
    <contour>
      <point x="435" y="107" type="line"/>
      <point x="406" y="121"/>
      <point x="387" y="155"/>
      <point x="387" y="200" type="curve" smooth="yes"/>
      <point x="387" y="235"/>
      <point x="406" y="264"/>
      <point x="435" y="275" type="curve"/>
    </contour>
    <contour>
      <point x="310" y="275" type="curve" smooth="yes"/>
      <point x="265" y="275"/>
      <point x="231" y="294"/>
      <point x="217" y="323" type="curve"/>
      <point x="398" y="323" type="line"/>
      <point x="387" y="294"/>
      <point x="345" y="275"/>
    </contour>
    <contour>
      <point x="486" y="107" type="curve"/>
      <point x="486" y="275" type="line"/>
      <point x="516" y="265"/>
      <point x="538" y="235"/>
      <point x="538" y="200" type="curve" smooth="yes"/>
      <point x="538" y="157"/>
      <point x="516" y="120"/>
    </contour>
    <contour>
      <point x="217" y="374" type="line"/>
      <point x="230" y="404"/>
      <point x="267" y="426"/>
      <point x="310" y="426" type="curve" smooth="yes"/>
      <point x="345" y="426"/>
      <point x="388" y="404"/>
      <point x="398" y="374" type="curve"/>
    </contour>
    <contour>
      <point x="461" y="-10" type="curve" smooth="yes"/>
      <point x="374" y="-10"/>
      <point x="320" y="57"/>
      <point x="304" y="113" type="curve" smooth="yes"/>
      <point x="293" y="152"/>
      <point x="291" y="182"/>
      <point x="227" y="195" type="curve" smooth="yes"/>
      <point x="169" y="207"/>
      <point x="100" y="262"/>
      <point x="100" y="349" type="curve" smooth="yes"/>
      <point x="100" y="435"/>
      <point x="166" y="493"/>
      <point x="223" y="505" type="curve" smooth="yes"/>
      <point x="282" y="517"/>
      <point x="294" y="550"/>
      <point x="304" y="587" type="curve" smooth="yes"/>
      <point x="319" y="643"/>
      <point x="374" y="710"/>
      <point x="461" y="710" type="curve" smooth="yes"/>
      <point x="547" y="710"/>
      <point x="602" y="643"/>
      <point x="617" y="587" type="curve" smooth="yes"/>
      <point x="634" y="524"/>
      <point x="657" y="514"/>
      <point x="698" y="505" type="curve" smooth="yes"/>
      <point x="755" y="492"/>
      <point x="821" y="435"/>
      <point x="821" y="349" type="curve" smooth="yes"/>
      <point x="821" y="262"/>
      <point x="753" y="207"/>
      <point x="694" y="195" type="curve" smooth="yes"/>
      <point x="630" y="182"/>
      <point x="628" y="149"/>
      <point x="617" y="113" type="curve" smooth="yes"/>
      <point x="600" y="57"/>
      <point x="547" y="-10"/>
    </contour>
    <contour>
      <point x="462" y="50" type="curve" smooth="yes"/>
      <point x="532" y="50"/>
      <point x="587" y="117"/>
      <point x="587" y="200" type="curve" smooth="yes"/>
      <point x="587" y="208"/>
      <point x="586" y="221"/>
      <point x="584" y="228" type="curve"/>
      <point x="592" y="226"/>
      <point x="602" y="225"/>
      <point x="611" y="225" type="curve" smooth="yes"/>
      <point x="694" y="225"/>
      <point x="761" y="280"/>
      <point x="761" y="350" type="curve" smooth="yes"/>
      <point x="761" y="420"/>
      <point x="694" y="475"/>
      <point x="611" y="475" type="curve" smooth="yes"/>
      <point x="603" y="475"/>
      <point x="595" y="474"/>
      <point x="585" y="472" type="curve"/>
      <point x="586" y="479"/>
      <point x="587" y="492"/>
      <point x="587" y="500" type="curve" smooth="yes"/>
      <point x="587" y="583"/>
      <point x="532" y="650"/>
      <point x="462" y="650" type="curve" smooth="yes"/>
      <point x="392" y="650"/>
      <point x="337" y="583"/>
      <point x="337" y="500" type="curve" smooth="yes"/>
      <point x="337" y="491"/>
      <point x="337" y="479"/>
      <point x="339" y="470" type="curve"/>
      <point x="331" y="474"/>
      <point x="318" y="475"/>
      <point x="310" y="475" type="curve" smooth="yes"/>
      <point x="227" y="475"/>
      <point x="160" y="420"/>
      <point x="160" y="350" type="curve" smooth="yes"/>
      <point x="160" y="280"/>
      <point x="227" y="225"/>
      <point x="310" y="225" type="curve" smooth="yes"/>
      <point x="319" y="225"/>
      <point x="331" y="226"/>
      <point x="339" y="229" type="curve"/>
      <point x="338" y="221"/>
      <point x="337" y="209"/>
      <point x="337" y="200" type="curve" smooth="yes"/>
      <point x="337" y="117"/>
      <point x="392" y="50"/>
    </contour>
    <contour>
      <point x="611" y="275" type="curve" smooth="yes"/>
      <point x="576" y="275"/>
      <point x="536" y="294"/>
      <point x="525" y="323" type="curve"/>
      <point x="704" y="323" type="line"/>
      <point x="690" y="294"/>
      <point x="656" y="275"/>
    </contour>
    <contour>
      <point x="435" y="425" type="line"/>
      <point x="406" y="436"/>
      <point x="387" y="465"/>
      <point x="387" y="500" type="curve" smooth="yes"/>
      <point x="387" y="545"/>
      <point x="406" y="579"/>
      <point x="435" y="593" type="curve"/>
    </contour>
    <contour>
      <point x="525" y="374" type="line"/>
      <point x="535" y="404"/>
      <point x="576" y="426"/>
      <point x="611" y="426" type="curve" smooth="yes"/>
      <point x="654" y="426"/>
      <point x="691" y="404"/>
      <point x="704" y="374" type="curve"/>
    </contour>
    <contour>
      <point x="486" y="425" type="curve"/>
      <point x="486" y="593" type="line"/>
      <point x="516" y="580"/>
      <point x="538" y="543"/>
      <point x="538" y="500" type="curve" smooth="yes"/>
      <point x="538" y="465"/>
      <point x="516" y="435"/>
    </contour>
  </outline>
</glyph>
<glyph name="u16802" format="2">
  <advance width="739"/>
  <unicode hex="16802"/>
  <outline>
    <contour>
      <point x="384" y="46" type="curve" smooth="yes"/>
      <point x="574" y="46"/>
      <point x="688" y="147"/>
      <point x="688" y="235" type="curve" smooth="yes"/>
      <point x="688" y="269"/>
      <point x="669" y="288"/>
      <point x="640" y="288" type="curve" smooth="yes"/>
      <point x="625" y="288"/>
      <point x="602" y="277"/>
      <point x="578" y="264" type="curve" smooth="yes"/>
      <point x="552" y="250"/>
      <point x="513" y="228"/>
      <point x="472" y="215" type="curve"/>
      <point x="500" y="254"/>
      <point x="514" y="301"/>
      <point x="514" y="352" type="curve" smooth="yes"/>
      <point x="514" y="400"/>
      <point x="500" y="447"/>
      <point x="477" y="481" type="curve"/>
      <point x="520" y="467"/>
      <point x="565" y="448"/>
      <point x="594" y="436" type="curve" smooth="yes"/>
      <point x="620" y="425"/>
      <point x="642" y="417"/>
      <point x="663" y="417" type="curve" smooth="yes"/>
      <point x="677" y="417"/>
      <point x="689" y="427"/>
      <point x="689" y="449" type="curve" smooth="yes"/>
      <point x="689" y="477"/>
      <point x="563" y="658"/>
      <point x="355" y="658" type="curve" smooth="yes"/>
      <point x="165" y="658"/>
      <point x="51" y="557"/>
      <point x="51" y="469" type="curve" smooth="yes"/>
      <point x="51" y="435"/>
      <point x="70" y="416"/>
      <point x="99" y="416" type="curve" smooth="yes"/>
      <point x="114" y="416"/>
      <point x="137" y="427"/>
      <point x="161" y="440" type="curve" smooth="yes"/>
      <point x="187" y="454"/>
      <point x="226" y="476"/>
      <point x="267" y="489" type="curve"/>
      <point x="239" y="450"/>
      <point x="225" y="403"/>
      <point x="225" y="352" type="curve" smooth="yes"/>
      <point x="225" y="304"/>
      <point x="239" y="257"/>
      <point x="262" y="223" type="curve"/>
      <point x="219" y="237"/>
      <point x="174" y="256"/>
      <point x="145" y="268" type="curve" smooth="yes"/>
      <point x="119" y="279"/>
      <point x="94" y="287"/>
      <point x="80" y="287" type="curve" smooth="yes"/>
      <point x="57" y="287"/>
      <point x="50" y="277"/>
      <point x="50" y="260" type="curve" smooth="yes"/>
      <point x="50" y="224"/>
      <point x="176" y="46"/>
    </contour>
    <contour>
      <point x="384" y="96" type="curve"/>
      <point x="245" y="96"/>
      <point x="148" y="183"/>
      <point x="113" y="226" type="curve"/>
      <point x="115" y="229" type="line"/>
      <point x="201" y="190"/>
      <point x="288" y="154"/>
      <point x="376" y="154" type="curve" smooth="yes"/>
      <point x="480" y="154"/>
      <point x="554" y="195"/>
      <point x="602" y="220" type="curve" smooth="yes"/>
      <point x="621" y="230"/>
      <point x="629" y="237"/>
      <point x="632" y="237" type="curve" smooth="yes"/>
      <point x="637" y="237"/>
      <point x="638" y="234"/>
      <point x="638" y="229" type="curve" smooth="yes"/>
      <point x="638" y="178"/>
      <point x="544" y="96"/>
    </contour>
    <contour>
      <point x="372" y="204" type="curve" smooth="yes"/>
      <point x="301" y="204"/>
      <point x="275" y="296"/>
      <point x="275" y="352" type="curve" smooth="yes"/>
      <point x="275" y="431"/>
      <point x="317" y="500"/>
      <point x="366" y="500" type="curve" smooth="yes"/>
      <point x="438" y="500"/>
      <point x="464" y="408"/>
      <point x="464" y="352" type="curve" smooth="yes"/>
      <point x="464" y="272"/>
      <point x="420" y="204"/>
    </contour>
    <contour>
      <point x="107" y="467" type="curve" smooth="yes"/>
      <point x="102" y="467"/>
      <point x="101" y="470"/>
      <point x="101" y="475" type="curve" smooth="yes"/>
      <point x="101" y="526"/>
      <point x="195" y="608"/>
      <point x="355" y="608" type="curve" smooth="yes"/>
      <point x="494" y="608"/>
      <point x="590" y="522"/>
      <point x="625" y="479" type="curve"/>
      <point x="624" y="476" type="line"/>
      <point x="537" y="515"/>
      <point x="443" y="550"/>
      <point x="363" y="550" type="curve" smooth="yes"/>
      <point x="259" y="550"/>
      <point x="185" y="509"/>
      <point x="137" y="484" type="curve" smooth="yes"/>
      <point x="118" y="474"/>
      <point x="110" y="467"/>
    </contour>
  </outline>
</glyph>
<glyph name="u16804" format="2">
  <advance width="1020"/>
  <unicode hex="16804"/>
  <outline>
    <contour>
      <point x="510" y="-44" type="line"/>
      <point x="812" y="81" type="line"/>
      <point x="798" y="114" type="line"/>
      <point x="572" y="339" type="line"/>
      <point x="938" y="339" type="line"/>
      <point x="970" y="354" type="line"/>
      <point x="841" y="674" type="line"/>
      <point x="808" y="660" type="line"/>
      <point x="534" y="420" type="line"/>
      <point x="524" y="743" type="line"/>
      <point x="510" y="775" type="line"/>
      <point x="208" y="650" type="line"/>
      <point x="222" y="617" type="line"/>
      <point x="451" y="389" type="line"/>
      <point x="82" y="389" type="line"/>
      <point x="50" y="375" type="line"/>
      <point x="179" y="62" type="line"/>
      <point x="212" y="75" type="line"/>
      <point x="486" y="315" type="line"/>
      <point x="496" y="-12" type="line"/>
    </contour>
    <contour>
      <point x="224" y="197" type="curve" smooth="yes"/>
      <point x="240" y="197"/>
      <point x="252" y="209"/>
      <point x="252" y="225" type="curve" smooth="yes"/>
      <point x="252" y="241"/>
      <point x="240" y="254"/>
      <point x="224" y="254" type="curve" smooth="yes"/>
      <point x="208" y="254"/>
      <point x="195" y="241"/>
      <point x="195" y="225" type="curve" smooth="yes"/>
      <point x="195" y="209"/>
      <point x="208" y="197"/>
    </contour>
    <contour>
      <point x="195" y="265" type="curve" smooth="yes"/>
      <point x="211" y="265"/>
      <point x="223" y="277"/>
      <point x="223" y="293" type="curve" smooth="yes"/>
      <point x="223" y="309"/>
      <point x="211" y="322"/>
      <point x="195" y="322" type="curve" smooth="yes"/>
      <point x="179" y="322"/>
      <point x="166" y="309"/>
      <point x="166" y="293" type="curve" smooth="yes"/>
      <point x="166" y="277"/>
      <point x="179" y="265"/>
    </contour>
    <contour>
      <point x="203" y="134" type="line"/>
      <point x="120" y="339" type="line"/>
      <point x="439" y="339" type="line"/>
    </contour>
    <contour>
      <point x="287" y="265" type="curve" smooth="yes"/>
      <point x="303" y="265"/>
      <point x="315" y="277"/>
      <point x="315" y="293" type="curve" smooth="yes"/>
      <point x="315" y="309"/>
      <point x="303" y="322"/>
      <point x="287" y="322" type="curve" smooth="yes"/>
      <point x="271" y="322"/>
      <point x="258" y="309"/>
      <point x="258" y="293" type="curve" smooth="yes"/>
      <point x="258" y="277"/>
      <point x="271" y="265"/>
    </contour>
    <contour>
      <point x="588" y="69" type="curve" smooth="yes"/>
      <point x="604" y="69"/>
      <point x="616" y="82"/>
      <point x="616" y="98" type="curve" smooth="yes"/>
      <point x="616" y="114"/>
      <point x="604" y="126"/>
      <point x="588" y="126" type="curve" smooth="yes"/>
      <point x="572" y="126"/>
      <point x="559" y="114"/>
      <point x="559" y="98" type="curve" smooth="yes"/>
      <point x="559" y="82"/>
      <point x="572" y="69"/>
    </contour>
    <contour>
      <point x="588" y="161" type="curve" smooth="yes"/>
      <point x="604" y="161"/>
      <point x="616" y="174"/>
      <point x="616" y="190" type="curve" smooth="yes"/>
      <point x="616" y="206"/>
      <point x="604" y="218"/>
      <point x="588" y="218" type="curve" smooth="yes"/>
      <point x="572" y="218"/>
      <point x="559" y="206"/>
      <point x="559" y="190" type="curve" smooth="yes"/>
      <point x="559" y="174"/>
      <point x="572" y="161"/>
    </contour>
    <contour>
      <point x="656" y="98" type="curve" smooth="yes"/>
      <point x="672" y="98"/>
      <point x="684" y="111"/>
      <point x="684" y="127" type="curve" smooth="yes"/>
      <point x="684" y="143"/>
      <point x="672" y="155"/>
      <point x="656" y="155" type="curve" smooth="yes"/>
      <point x="640" y="155"/>
      <point x="627" y="143"/>
      <point x="627" y="127" type="curve" smooth="yes"/>
      <point x="627" y="111"/>
      <point x="640" y="98"/>
    </contour>
    <contour>
      <point x="545" y="25" type="line"/>
      <point x="537" y="302" type="line"/>
      <point x="736" y="104" type="line"/>
    </contour>
    <contour>
      <point x="483" y="429" type="line"/>
      <point x="284" y="627" type="line"/>
      <point x="475" y="706" type="line"/>
    </contour>
    <contour>
      <point x="365" y="581" type="curve" smooth="yes"/>
      <point x="381" y="581"/>
      <point x="394" y="593"/>
      <point x="394" y="609" type="curve" smooth="yes"/>
      <point x="394" y="625"/>
      <point x="381" y="638"/>
      <point x="365" y="638" type="curve" smooth="yes"/>
      <point x="349" y="638"/>
      <point x="337" y="625"/>
      <point x="337" y="609" type="curve" smooth="yes"/>
      <point x="337" y="593"/>
      <point x="349" y="581"/>
    </contour>
    <contour>
      <point x="433" y="518" type="curve" smooth="yes"/>
      <point x="449" y="518"/>
      <point x="462" y="530"/>
      <point x="462" y="546" type="curve" smooth="yes"/>
      <point x="462" y="562"/>
      <point x="449" y="575"/>
      <point x="433" y="575" type="curve" smooth="yes"/>
      <point x="417" y="575"/>
      <point x="405" y="562"/>
      <point x="405" y="546" type="curve" smooth="yes"/>
      <point x="405" y="530"/>
      <point x="417" y="518"/>
    </contour>
    <contour>
      <point x="433" y="610" type="curve" smooth="yes"/>
      <point x="449" y="610"/>
      <point x="462" y="622"/>
      <point x="462" y="638" type="curve" smooth="yes"/>
      <point x="462" y="654"/>
      <point x="449" y="667"/>
      <point x="433" y="667" type="curve" smooth="yes"/>
      <point x="417" y="667"/>
      <point x="405" y="654"/>
      <point x="405" y="638" type="curve" smooth="yes"/>
      <point x="405" y="622"/>
      <point x="417" y="610"/>
    </contour>
    <contour>
      <point x="730" y="415" type="curve" smooth="yes"/>
      <point x="746" y="415"/>
      <point x="759" y="428"/>
      <point x="759" y="444" type="curve" smooth="yes"/>
      <point x="759" y="460"/>
      <point x="746" y="472"/>
      <point x="730" y="472" type="curve" smooth="yes"/>
      <point x="714" y="472"/>
      <point x="702" y="460"/>
      <point x="702" y="444" type="curve" smooth="yes"/>
      <point x="702" y="428"/>
      <point x="714" y="415"/>
    </contour>
    <contour>
      <point x="573" y="389" type="line"/>
      <point x="817" y="600" type="line"/>
      <point x="849" y="522"/>
      <point x="872" y="461"/>
      <point x="901" y="389" type="curve"/>
    </contour>
    <contour>
      <point x="822" y="415" type="curve" smooth="yes"/>
      <point x="838" y="415"/>
      <point x="851" y="428"/>
      <point x="851" y="444" type="curve" smooth="yes"/>
      <point x="851" y="460"/>
      <point x="838" y="472"/>
      <point x="822" y="472" type="curve" smooth="yes"/>
      <point x="806" y="472"/>
      <point x="794" y="460"/>
      <point x="794" y="444" type="curve" smooth="yes"/>
      <point x="794" y="428"/>
      <point x="806" y="415"/>
    </contour>
    <contour>
      <point x="793" y="483" type="curve" smooth="yes"/>
      <point x="809" y="483"/>
      <point x="822" y="496"/>
      <point x="822" y="512" type="curve" smooth="yes"/>
      <point x="822" y="528"/>
      <point x="809" y="540"/>
      <point x="793" y="540" type="curve" smooth="yes"/>
      <point x="777" y="540"/>
      <point x="765" y="528"/>
      <point x="765" y="512" type="curve" smooth="yes"/>
      <point x="765" y="496"/>
      <point x="777" y="483"/>
    </contour>
  </outline>
</glyph>
<glyph name="u16805" format="2">
  <advance width="748"/>
  <unicode hex="16805"/>
  <outline>
    <contour>
      <point x="84" y="0" type="line"/>
      <point x="663" y="0" type="line"/>
      <point x="663" y="35" type="line"/>
      <point x="618" y="136"/>
      <point x="570" y="241"/>
      <point x="507" y="338" type="curve"/>
      <point x="632" y="342"/>
      <point x="698" y="398"/>
      <point x="698" y="456" type="curve" smooth="yes"/>
      <point x="698" y="500"/>
      <point x="663" y="534"/>
      <point x="609" y="549" type="curve"/>
      <point x="628" y="579"/>
      <point x="642" y="615"/>
      <point x="642" y="664" type="curve" smooth="yes"/>
      <point x="642" y="732"/>
      <point x="605" y="830"/>
      <point x="484" y="836" type="curve"/>
      <point x="461" y="810" type="line"/>
      <point x="492" y="755"/>
      <point x="504" y="717"/>
      <point x="504" y="671" type="curve" smooth="yes"/>
      <point x="504" y="601"/>
      <point x="445" y="540"/>
      <point x="399" y="505" type="curve" smooth="yes"/>
      <point x="374" y="486" type="line"/>
      <point x="349" y="505" type="line" smooth="yes"/>
      <point x="303" y="540"/>
      <point x="244" y="601"/>
      <point x="244" y="671" type="curve" smooth="yes"/>
      <point x="244" y="715"/>
      <point x="254" y="751"/>
      <point x="287" y="810" type="curve"/>
      <point x="269" y="836" type="line"/>
      <point x="142" y="832"/>
      <point x="106" y="731"/>
      <point x="106" y="664" type="curve" smooth="yes"/>
      <point x="106" y="615"/>
      <point x="120" y="579"/>
      <point x="139" y="549" type="curve"/>
      <point x="85" y="534"/>
      <point x="50" y="500"/>
      <point x="50" y="456" type="curve" smooth="yes"/>
      <point x="50" y="403"/>
      <point x="111" y="345"/>
      <point x="241" y="338" type="curve"/>
      <point x="178" y="239"/>
      <point x="129" y="137"/>
      <point x="84" y="35" type="curve"/>
    </contour>
    <contour>
      <point x="148" y="50" type="line"/>
      <point x="161" y="78"/>
      <point x="193" y="98"/>
      <point x="230" y="98" type="curve" smooth="yes"/>
      <point x="267" y="98"/>
      <point x="300" y="78"/>
      <point x="313" y="50" type="curve"/>
    </contour>
    <contour>
      <point x="308" y="207" type="curve" smooth="yes"/>
      <point x="326" y="207"/>
      <point x="341" y="221"/>
      <point x="341" y="239" type="curve" smooth="yes"/>
      <point x="341" y="257"/>
      <point x="326" y="272"/>
      <point x="308" y="272" type="curve" smooth="yes"/>
      <point x="290" y="272"/>
      <point x="276" y="257"/>
      <point x="276" y="239" type="curve" smooth="yes"/>
      <point x="276" y="221"/>
      <point x="290" y="207"/>
    </contour>
    <contour>
      <point x="435" y="50" type="line"/>
      <point x="448" y="78"/>
      <point x="481" y="98"/>
      <point x="518" y="98" type="curve" smooth="yes"/>
      <point x="555" y="98"/>
      <point x="587" y="78"/>
      <point x="600" y="50" type="curve"/>
    </contour>
    <contour>
      <point x="365" y="50" type="line"/>
      <point x="351" y="107"/>
      <point x="296" y="148"/>
      <point x="230" y="148" type="curve" smooth="yes"/>
      <point x="216" y="148"/>
      <point x="200" y="145"/>
      <point x="187" y="137" type="curve"/>
      <point x="238" y="241"/>
      <point x="301" y="355"/>
      <point x="374" y="429" type="curve"/>
      <point x="447" y="355"/>
      <point x="510" y="241"/>
      <point x="561" y="137" type="curve"/>
      <point x="548" y="145"/>
      <point x="532" y="148"/>
      <point x="518" y="148" type="curve" smooth="yes"/>
      <point x="452" y="148"/>
      <point x="397" y="107"/>
      <point x="383" y="50" type="curve"/>
    </contour>
    <contour>
      <point x="274" y="387" type="curve"/>
      <point x="160" y="387"/>
      <point x="100" y="424"/>
      <point x="100" y="456" type="curve" smooth="yes"/>
      <point x="100" y="486"/>
      <point x="143" y="508"/>
      <point x="203" y="508" type="curve" smooth="yes"/>
      <point x="257" y="508"/>
      <point x="298" y="486"/>
      <point x="334" y="459" type="curve"/>
      <point x="314" y="439"/>
      <point x="292" y="412"/>
    </contour>
    <contour>
      <point x="441" y="207" type="curve" smooth="yes"/>
      <point x="459" y="207"/>
      <point x="474" y="221"/>
      <point x="474" y="239" type="curve" smooth="yes"/>
      <point x="474" y="257"/>
      <point x="459" y="272"/>
      <point x="441" y="272" type="curve" smooth="yes"/>
      <point x="423" y="272"/>
      <point x="409" y="257"/>
      <point x="409" y="239" type="curve" smooth="yes"/>
      <point x="409" y="221"/>
      <point x="423" y="207"/>
    </contour>
    <contour>
      <point x="233" y="555" type="curve"/>
      <point x="223" y="556"/>
      <point x="213" y="558"/>
      <point x="203" y="558" type="curve" smooth="yes"/>
      <point x="193" y="558" type="line"/>
      <point x="173" y="583"/>
      <point x="156" y="617"/>
      <point x="156" y="664" type="curve" smooth="yes"/>
      <point x="156" y="702"/>
      <point x="174" y="754"/>
      <point x="216" y="779" type="curve"/>
      <point x="218" y="777" type="line"/>
      <point x="196" y="734"/>
      <point x="194" y="695"/>
      <point x="194" y="670" type="curve" smooth="yes"/>
      <point x="194" y="633"/>
      <point x="203" y="598"/>
    </contour>
    <contour>
      <point x="474" y="387" type="curve"/>
      <point x="456" y="412"/>
      <point x="434" y="439"/>
      <point x="414" y="459" type="curve"/>
      <point x="450" y="486"/>
      <point x="491" y="508"/>
      <point x="545" y="508" type="curve" smooth="yes"/>
      <point x="605" y="508"/>
      <point x="648" y="486"/>
      <point x="648" y="456" type="curve" smooth="yes"/>
      <point x="648" y="424"/>
      <point x="588" y="387"/>
    </contour>
    <contour>
      <point x="515" y="555" type="curve"/>
      <point x="545" y="598"/>
      <point x="554" y="633"/>
      <point x="554" y="670" type="curve" smooth="yes"/>
      <point x="554" y="695"/>
      <point x="552" y="734"/>
      <point x="530" y="777" type="curve"/>
      <point x="532" y="779" type="line"/>
      <point x="574" y="754"/>
      <point x="592" y="702"/>
      <point x="592" y="664" type="curve" smooth="yes"/>
      <point x="592" y="617"/>
      <point x="575" y="583"/>
      <point x="555" y="558" type="curve"/>
      <point x="545" y="558" type="line" smooth="yes"/>
      <point x="535" y="558"/>
      <point x="525" y="556"/>
    </contour>
  </outline>
</glyph>
<glyph name="u16807" format="2">
  <advance width="777"/>
  <unicode hex="16807"/>
  <outline>
    <contour>
      <point x="405" y="2" type="line"/>
      <point x="414" y="36" type="line"/>
      <point x="413" y="243" type="line"/>
      <point x="518" y="61" type="line"/>
      <point x="542" y="36" type="line"/>
      <point x="688" y="182" type="line"/>
      <point x="663" y="207" type="line"/>
      <point x="477" y="313" type="line"/>
      <point x="693" y="313" type="line"/>
      <point x="727" y="322" type="line"/>
      <point x="673" y="521" type="line"/>
      <point x="639" y="512" type="line"/>
      <point x="455" y="407" type="line"/>
      <point x="561" y="590" type="line"/>
      <point x="570" y="624" type="line"/>
      <point x="371" y="677" type="line"/>
      <point x="362" y="643" type="line"/>
      <point x="363" y="430" type="line"/>
      <point x="257" y="615" type="line"/>
      <point x="232" y="640" type="line"/>
      <point x="87" y="494" type="line"/>
      <point x="112" y="469" type="line"/>
      <point x="291" y="364" type="line"/>
      <point x="84" y="365" type="line"/>
      <point x="50" y="356" type="line"/>
      <point x="104" y="158" type="line"/>
      <point x="138" y="167" type="line"/>
      <point x="319" y="271" type="line"/>
      <point x="215" y="88" type="line"/>
      <point x="206" y="55" type="line"/>
    </contour>
    <contour>
      <point x="136" y="224" type="line"/>
      <point x="114" y="315" type="line"/>
      <point x="294" y="314" type="line"/>
    </contour>
    <contour>
      <point x="364" y="64" type="line"/>
      <point x="274" y="89" type="line"/>
      <point x="363" y="245" type="line"/>
    </contour>
    <contour>
      <point x="547" y="112" type="line"/>
      <point x="455" y="269" type="line"/>
      <point x="613" y="178" type="line"/>
    </contour>
    <contour>
      <point x="320" y="405" type="line"/>
      <point x="161" y="499" type="line"/>
      <point x="228" y="564" type="line"/>
    </contour>
    <contour>
      <point x="481" y="363" type="line"/>
      <point x="639" y="454" type="line"/>
      <point x="664" y="364" type="line"/>
    </contour>
    <contour>
      <point x="412" y="434" type="line"/>
      <point x="412" y="615" type="line"/>
      <point x="502" y="590" type="line"/>
    </contour>
  </outline>
</glyph>
<glyph name="u16808" format="2">
  <advance width="713"/>
  <unicode hex="16808"/>
  <outline>
    <contour>
      <point x="84" y="0" type="line"/>
      <point x="663" y="0" type="line"/>
      <point x="663" y="35" type="line"/>
      <point x="591" y="199"/>
      <point x="487" y="399"/>
      <point x="386" y="480" type="curve" smooth="yes"/>
      <point x="289" y="558"/>
      <point x="244" y="599"/>
      <point x="244" y="671" type="curve" smooth="yes"/>
      <point x="244" y="714"/>
      <point x="254" y="752"/>
      <point x="287" y="810" type="curve"/>
      <point x="269" y="836" type="line"/>
      <point x="142" y="832"/>
      <point x="106" y="731"/>
      <point x="106" y="664" type="curve" smooth="yes"/>
      <point x="106" y="615"/>
      <point x="120" y="579"/>
      <point x="139" y="549" type="curve"/>
      <point x="85" y="534"/>
      <point x="50" y="500"/>
      <point x="50" y="456" type="curve" smooth="yes"/>
      <point x="50" y="395"/>
      <point x="114" y="347"/>
      <point x="241" y="338" type="curve"/>
      <point x="180" y="243"/>
      <point x="128" y="134"/>
      <point x="84" y="35" type="curve"/>
    </contour>
    <contour>
      <point x="148" y="50" type="line"/>
      <point x="161" y="78"/>
      <point x="193" y="98"/>
      <point x="230" y="98" type="curve" smooth="yes"/>
      <point x="267" y="98"/>
      <point x="300" y="78"/>
      <point x="313" y="50" type="curve"/>
    </contour>
    <contour>
      <point x="308" y="207" type="curve" smooth="yes"/>
      <point x="326" y="207"/>
      <point x="341" y="221"/>
      <point x="341" y="239" type="curve" smooth="yes"/>
      <point x="341" y="257"/>
      <point x="326" y="272"/>
      <point x="308" y="272" type="curve" smooth="yes"/>
      <point x="290" y="272"/>
      <point x="276" y="257"/>
      <point x="276" y="239" type="curve" smooth="yes"/>
      <point x="276" y="221"/>
      <point x="290" y="207"/>
    </contour>
    <contour>
      <point x="435" y="50" type="line"/>
      <point x="448" y="78"/>
      <point x="481" y="98"/>
      <point x="518" y="98" type="curve" smooth="yes"/>
      <point x="555" y="98"/>
      <point x="587" y="78"/>
      <point x="600" y="50" type="curve"/>
    </contour>
    <contour>
      <point x="365" y="50" type="line"/>
      <point x="351" y="107"/>
      <point x="296" y="148"/>
      <point x="230" y="148" type="curve" smooth="yes"/>
      <point x="216" y="148"/>
      <point x="200" y="145"/>
      <point x="187" y="137" type="curve"/>
      <point x="238" y="241"/>
      <point x="298" y="352"/>
      <point x="371" y="426" type="curve"/>
      <point x="444" y="352"/>
      <point x="510" y="241"/>
      <point x="561" y="137" type="curve"/>
      <point x="548" y="145"/>
      <point x="532" y="148"/>
      <point x="518" y="148" type="curve" smooth="yes"/>
      <point x="452" y="148"/>
      <point x="397" y="107"/>
      <point x="383" y="50" type="curve"/>
    </contour>
    <contour>
      <point x="274" y="387" type="curve"/>
      <point x="160" y="387"/>
      <point x="100" y="424"/>
      <point x="100" y="456" type="curve" smooth="yes"/>
      <point x="100" y="486"/>
      <point x="143" y="508"/>
      <point x="203" y="508" type="curve" smooth="yes"/>
      <point x="257" y="508"/>
      <point x="298" y="486"/>
      <point x="334" y="459" type="curve"/>
      <point x="314" y="439"/>
      <point x="292" y="412"/>
    </contour>
    <contour>
      <point x="441" y="207" type="curve" smooth="yes"/>
      <point x="459" y="207"/>
      <point x="474" y="221"/>
      <point x="474" y="239" type="curve" smooth="yes"/>
      <point x="474" y="257"/>
      <point x="459" y="272"/>
      <point x="441" y="272" type="curve" smooth="yes"/>
      <point x="423" y="272"/>
      <point x="409" y="257"/>
      <point x="409" y="239" type="curve" smooth="yes"/>
      <point x="409" y="221"/>
      <point x="423" y="207"/>
    </contour>
    <contour>
      <point x="233" y="555" type="curve"/>
      <point x="223" y="556"/>
      <point x="213" y="558"/>
      <point x="203" y="558" type="curve" smooth="yes"/>
      <point x="193" y="558" type="line"/>
      <point x="173" y="583"/>
      <point x="156" y="617"/>
      <point x="156" y="664" type="curve" smooth="yes"/>
      <point x="156" y="702"/>
      <point x="174" y="754"/>
      <point x="216" y="779" type="curve"/>
      <point x="218" y="777" type="line"/>
      <point x="196" y="734"/>
      <point x="194" y="695"/>
      <point x="194" y="670" type="curve" smooth="yes"/>
      <point x="194" y="633"/>
      <point x="203" y="598"/>
    </contour>
  </outline>
</glyph>
<glyph name="u1680A" format="2">
  <advance width="770"/>
  <unicode hex="1680A"/>
  <outline>
    <contour>
      <point x="72" y="-33" type="line"/>
      <point x="163" y="12" type="line"/>
      <point x="184" y="5"/>
      <point x="214" y="0"/>
      <point x="244" y="0" type="curve" smooth="yes"/>
      <point x="295" y="0"/>
      <point x="344" y="19"/>
      <point x="385" y="55" type="curve"/>
      <point x="426" y="19"/>
      <point x="476" y="0"/>
      <point x="527" y="0" type="curve" smooth="yes"/>
      <point x="556" y="0"/>
      <point x="585" y="5"/>
      <point x="607" y="12" type="curve"/>
      <point x="698" y="-33" type="line"/>
      <point x="714" y="5" type="line"/>
      <point x="651" y="39" type="line"/>
      <point x="677" y="57"/>
      <point x="696" y="76"/>
      <point x="720" y="100" type="curve"/>
      <point x="691" y="128" type="line"/>
      <point x="670" y="106"/>
      <point x="651" y="89"/>
      <point x="629" y="73" type="curve"/>
      <point x="629" y="148" type="line"/>
      <point x="588" y="148" type="line"/>
      <point x="588" y="60" type="line"/>
      <point x="571" y="55"/>
      <point x="548" y="50"/>
      <point x="527" y="50" type="curve" smooth="yes"/>
      <point x="488" y="50"/>
      <point x="451" y="65"/>
      <point x="420" y="92" type="curve"/>
      <point x="464" y="150"/>
      <point x="493" y="232"/>
      <point x="493" y="334" type="curve" smooth="yes"/>
      <point x="493" y="383"/>
      <point x="482" y="430"/>
      <point x="468" y="462" type="curve"/>
      <point x="592" y="421" type="line"/>
      <point x="620" y="481" type="line"/>
      <point x="710" y="514" type="line"/>
      <point x="696" y="551" type="line"/>
      <point x="635" y="527" type="line"/>
      <point x="663" y="585" type="line"/>
      <point x="626" y="603" type="line"/>
      <point x="601" y="543" type="line"/>
      <point x="579" y="599" type="line"/>
      <point x="542" y="585" type="line"/>
      <point x="576" y="501" type="line"/>
      <point x="566" y="478" type="line"/>
      <point x="455" y="511" type="line"/>
      <point x="475" y="527"/>
      <point x="483" y="547"/>
      <point x="483" y="570" type="curve" smooth="yes"/>
      <point x="483" y="600"/>
      <point x="448" y="654"/>
      <point x="385" y="686" type="curve"/>
      <point x="322" y="654"/>
      <point x="287" y="600"/>
      <point x="287" y="570" type="curve" smooth="yes"/>
      <point x="287" y="547"/>
      <point x="295" y="527"/>
      <point x="315" y="511" type="curve"/>
      <point x="204" y="478" type="line"/>
      <point x="194" y="501" type="line"/>
      <point x="228" y="585" type="line"/>
      <point x="191" y="599" type="line"/>
      <point x="169" y="543" type="line"/>
      <point x="144" y="603" type="line"/>
      <point x="107" y="585" type="line"/>
      <point x="135" y="527" type="line"/>
      <point x="74" y="551" type="line"/>
      <point x="60" y="514" type="line"/>
      <point x="150" y="481" type="line"/>
      <point x="178" y="421" type="line"/>
      <point x="302" y="462" type="line"/>
      <point x="289" y="432"/>
      <point x="277" y="383"/>
      <point x="277" y="334" type="curve" smooth="yes"/>
      <point x="277" y="232"/>
      <point x="306" y="150"/>
      <point x="351" y="92" type="curve"/>
      <point x="319" y="65"/>
      <point x="282" y="50"/>
      <point x="244" y="50" type="curve" smooth="yes"/>
      <point x="223" y="50"/>
      <point x="199" y="55"/>
      <point x="182" y="60" type="curve"/>
      <point x="182" y="148" type="line"/>
      <point x="141" y="148" type="line"/>
      <point x="141" y="73" type="line"/>
      <point x="121" y="87"/>
      <point x="96" y="110"/>
      <point x="79" y="128" type="curve"/>
      <point x="50" y="100" type="line"/>
      <point x="70" y="79"/>
      <point x="97" y="55"/>
      <point x="119" y="39" type="curve"/>
      <point x="56" y="5" type="line"/>
    </contour>
    <contour>
      <point x="385" y="130" type="curve"/>
      <point x="350" y="179"/>
      <point x="327" y="248"/>
      <point x="327" y="334" type="curve" smooth="yes"/>
      <point x="327" y="437"/>
      <point x="373" y="491"/>
      <point x="384" y="491" type="curve" smooth="yes"/>
      <point x="397" y="491"/>
      <point x="443" y="437"/>
      <point x="443" y="334" type="curve" smooth="yes"/>
      <point x="443" y="248"/>
      <point x="420" y="179"/>
    </contour>
    <contour>
      <point x="386" y="534" type="curve" smooth="yes"/>
      <point x="346" y="534"/>
      <point x="337" y="560"/>
      <point x="337" y="570" type="curve" smooth="yes"/>
      <point x="337" y="584"/>
      <point x="353" y="611"/>
      <point x="385" y="630" type="curve"/>
      <point x="417" y="611"/>
      <point x="433" y="585"/>
      <point x="433" y="570" type="curve" smooth="yes"/>
      <point x="433" y="560"/>
      <point x="424" y="534"/>
    </contour>
  </outline>
</glyph>
<glyph name="u1680B" format="2">
  <advance width="627"/>
  <unicode hex="1680B"/>
  <outline>
    <contour>
      <point x="83" y="0" type="line"/>
      <point x="233" y="0" type="line"/>
      <point x="317" y="272" type="line"/>
      <point x="403" y="0" type="line"/>
      <point x="553" y="0" type="line"/>
      <point x="553" y="50" type="line"/>
      <point x="439" y="50" type="line"/>
      <point x="409" y="142" type="line"/>
      <point x="450" y="146"/>
      <point x="493" y="153"/>
      <point x="550" y="165" type="curve"/>
      <point x="550" y="200" type="line"/>
      <point x="389" y="516" type="line"/>
      <point x="394" y="517"/>
      <point x="399" y="517"/>
      <point x="405" y="517" type="curve" smooth="yes"/>
      <point x="442" y="517"/>
      <point x="492" y="505"/>
      <point x="541" y="456" type="curve"/>
      <point x="577" y="492" type="line"/>
      <point x="517" y="552"/>
      <point x="454" y="567"/>
      <point x="405" y="567" type="curve" smooth="yes"/>
      <point x="390" y="567"/>
      <point x="377" y="565"/>
      <point x="365" y="563" type="curve"/>
      <point x="350" y="594" type="line"/>
      <point x="376" y="611"/>
      <point x="395" y="647"/>
      <point x="395" y="689" type="curve" smooth="yes"/>
      <point x="395" y="748"/>
      <point x="358" y="795"/>
      <point x="313" y="795" type="curve" smooth="yes"/>
      <point x="268" y="795"/>
      <point x="232" y="748"/>
      <point x="232" y="689" type="curve" smooth="yes"/>
      <point x="232" y="647"/>
      <point x="250" y="610"/>
      <point x="277" y="593" type="curve"/>
      <point x="262" y="563" type="line"/>
      <point x="250" y="565"/>
      <point x="237" y="567"/>
      <point x="222" y="567" type="curve" smooth="yes"/>
      <point x="173" y="567"/>
      <point x="110" y="552"/>
      <point x="50" y="492" type="curve"/>
      <point x="86" y="456" type="line"/>
      <point x="135" y="505"/>
      <point x="185" y="517"/>
      <point x="222" y="517" type="curve" smooth="yes"/>
      <point x="228" y="517"/>
      <point x="234" y="516"/>
      <point x="239" y="516" type="curve"/>
      <point x="86" y="200" type="line"/>
      <point x="86" y="165" type="line"/>
      <point x="140" y="154"/>
      <point x="175" y="149"/>
      <point x="226" y="143" type="curve"/>
      <point x="197" y="50" type="line"/>
      <point x="83" y="50" type="line"/>
    </contour>
    <contour>
      <point x="242" y="190" type="curve"/>
      <point x="202" y="193"/>
      <point x="175" y="198"/>
      <point x="144" y="204" type="curve"/>
      <point x="314" y="557" type="line"/>
      <point x="377" y="426"/>
      <point x="431" y="329"/>
      <point x="492" y="204" type="curve"/>
      <point x="452" y="197"/>
      <point x="425" y="194"/>
      <point x="393" y="191" type="curve"/>
      <point x="343" y="344" type="line"/>
      <point x="293" y="344" type="line"/>
      <point x="282" y="311"/>
      <point x="260" y="246"/>
    </contour>
    <contour>
      <point x="313" y="633" type="curve" smooth="yes"/>
      <point x="296" y="633"/>
      <point x="282" y="658"/>
      <point x="282" y="689" type="curve" smooth="yes"/>
      <point x="282" y="720"/>
      <point x="296" y="745"/>
      <point x="313" y="745" type="curve" smooth="yes"/>
      <point x="330" y="745"/>
      <point x="345" y="720"/>
      <point x="345" y="689" type="curve" smooth="yes"/>
      <point x="345" y="658"/>
      <point x="330" y="633"/>
    </contour>
  </outline>
</glyph>
<glyph name="u1680E" format="2">
  <advance width="434"/>
  <unicode hex="1680E"/>
  <outline>
    <contour>
      <point x="59" y="0" type="line"/>
      <point x="375" y="0" type="line"/>
      <point x="375" y="35" type="line"/>
      <point x="294" y="258" type="line"/>
      <point x="348" y="280"/>
      <point x="384" y="322"/>
      <point x="384" y="372" type="curve" smooth="yes"/>
      <point x="384" y="414"/>
      <point x="353" y="458"/>
      <point x="306" y="476" type="curve"/>
      <point x="355" y="495"/>
      <point x="384" y="536"/>
      <point x="384" y="579" type="curve" smooth="yes"/>
      <point x="384" y="643"/>
      <point x="322" y="697"/>
      <point x="242" y="706" type="curve"/>
      <point x="242" y="781" type="line"/>
      <point x="192" y="781" type="line"/>
      <point x="192" y="706" type="line"/>
      <point x="111" y="697"/>
      <point x="50" y="643"/>
      <point x="50" y="579" type="curve" smooth="yes"/>
      <point x="50" y="536"/>
      <point x="75" y="497"/>
      <point x="127" y="475" type="curve"/>
      <point x="78" y="454"/>
      <point x="50" y="414"/>
      <point x="50" y="372" type="curve" smooth="yes"/>
      <point x="50" y="322"/>
      <point x="86" y="280"/>
      <point x="139" y="258" type="curve"/>
      <point x="59" y="35" type="line"/>
    </contour>
  </outline>
</glyph>
<glyph name="u16811" format="2">
  <advance width="1100"/>
  <unicode hex="16811"/>
  <outline>
    <contour>
      <point x="527" y="0" type="curve"/>
      <point x="573" y="0" type="line"/>
      <point x="603" y="67"/>
      <point x="635" y="149"/>
      <point x="661" y="228" type="curve"/>
      <point x="702" y="194"/>
      <point x="755" y="175"/>
      <point x="813" y="175" type="curve" smooth="yes"/>
      <point x="944" y="175"/>
      <point x="1050" y="281"/>
      <point x="1050" y="412" type="curve" smooth="yes"/>
      <point x="1050" y="545"/>
      <point x="944" y="651"/>
      <point x="813" y="651" type="curve" smooth="yes"/>
      <point x="760" y="651"/>
      <point x="711" y="633"/>
      <point x="671" y="604" type="curve"/>
      <point x="641" y="647"/>
      <point x="595" y="663"/>
      <point x="550" y="663" type="curve" smooth="yes"/>
      <point x="504" y="663"/>
      <point x="459" y="647"/>
      <point x="429" y="604" type="curve"/>
      <point x="389" y="633"/>
      <point x="340" y="651"/>
      <point x="287" y="651" type="curve" smooth="yes"/>
      <point x="156" y="651"/>
      <point x="50" y="545"/>
      <point x="50" y="412" type="curve" smooth="yes"/>
      <point x="50" y="281"/>
      <point x="156" y="175"/>
      <point x="287" y="175" type="curve" smooth="yes"/>
      <point x="345" y="175"/>
      <point x="398" y="194"/>
      <point x="439" y="228" type="curve"/>
      <point x="464" y="148"/>
      <point x="497" y="67"/>
    </contour>
    <contour>
      <point x="287" y="225" type="curve" smooth="yes"/>
      <point x="184" y="225"/>
      <point x="100" y="309"/>
      <point x="100" y="412" type="curve" smooth="yes"/>
      <point x="100" y="517"/>
      <point x="184" y="601"/>
      <point x="287" y="601" type="curve" smooth="yes"/>
      <point x="332" y="601"/>
      <point x="374" y="586"/>
      <point x="406" y="560" type="curve"/>
      <point x="403" y="553"/>
      <point x="401" y="545"/>
      <point x="399" y="537" type="curve"/>
      <point x="380" y="549"/>
      <point x="357" y="556"/>
      <point x="333" y="556" type="curve" smooth="yes"/>
      <point x="261" y="556"/>
      <point x="203" y="498"/>
      <point x="203" y="426" type="curve" smooth="yes"/>
      <point x="203" y="354"/>
      <point x="261" y="296"/>
      <point x="333" y="296" type="curve" smooth="yes"/>
      <point x="363" y="296"/>
      <point x="390" y="305"/>
      <point x="412" y="322" type="curve"/>
      <point x="415" y="309"/>
      <point x="418" y="295"/>
      <point x="422" y="281" type="curve"/>
      <point x="388" y="246"/>
      <point x="340" y="225"/>
    </contour>
    <contour>
      <point x="333" y="346" type="curve" smooth="yes"/>
      <point x="289" y="346"/>
      <point x="253" y="382"/>
      <point x="253" y="426" type="curve" smooth="yes"/>
      <point x="253" y="470"/>
      <point x="289" y="506"/>
      <point x="333" y="506" type="curve" smooth="yes"/>
      <point x="355" y="506"/>
      <point x="377" y="497"/>
      <point x="391" y="481" type="curve"/>
      <point x="391" y="459" type="line" smooth="yes"/>
      <point x="391" y="436"/>
      <point x="394" y="409"/>
      <point x="399" y="381" type="curve"/>
      <point x="384" y="360"/>
      <point x="360" y="346"/>
    </contour>
    <contour>
      <point x="550" y="60" type="curve"/>
      <point x="498" y="177"/>
      <point x="441" y="351"/>
      <point x="441" y="459" type="curve" smooth="yes"/>
      <point x="441" y="576"/>
      <point x="495" y="613"/>
      <point x="550" y="613" type="curve" smooth="yes"/>
      <point x="605" y="613"/>
      <point x="659" y="576"/>
      <point x="659" y="459" type="curve" smooth="yes"/>
      <point x="659" y="351"/>
      <point x="602" y="177"/>
    </contour>
    <contour>
      <point x="767" y="346" type="curve" smooth="yes"/>
      <point x="740" y="346"/>
      <point x="715" y="360"/>
      <point x="701" y="381" type="curve"/>
      <point x="706" y="409"/>
      <point x="709" y="436"/>
      <point x="709" y="459" type="curve" smooth="yes"/>
      <point x="709" y="466"/>
      <point x="709" y="474"/>
      <point x="708" y="481" type="curve"/>
      <point x="723" y="496"/>
      <point x="744" y="506"/>
      <point x="767" y="506" type="curve" smooth="yes"/>
      <point x="811" y="506"/>
      <point x="847" y="470"/>
      <point x="847" y="426" type="curve" smooth="yes"/>
      <point x="847" y="382"/>
      <point x="811" y="346"/>
    </contour>
    <contour>
      <point x="813" y="225" type="curve" smooth="yes"/>
      <point x="759" y="225"/>
      <point x="711" y="246"/>
      <point x="677" y="281" type="curve"/>
      <point x="688" y="322" type="line"/>
      <point x="709" y="305"/>
      <point x="737" y="296"/>
      <point x="767" y="296" type="curve" smooth="yes"/>
      <point x="839" y="296"/>
      <point x="897" y="354"/>
      <point x="897" y="426" type="curve" smooth="yes"/>
      <point x="897" y="498"/>
      <point x="839" y="556"/>
      <point x="767" y="556" type="curve" smooth="yes"/>
      <point x="742" y="556"/>
      <point x="719" y="549"/>
      <point x="700" y="538" type="curve"/>
      <point x="698" y="545"/>
      <point x="697" y="553"/>
      <point x="694" y="559" type="curve"/>
      <point x="726" y="585"/>
      <point x="768" y="601"/>
      <point x="813" y="601" type="curve" smooth="yes"/>
      <point x="916" y="601"/>
      <point x="1000" y="517"/>
      <point x="1000" y="412" type="curve" smooth="yes"/>
      <point x="1000" y="309"/>
      <point x="916" y="225"/>
    </contour>
  </outline>
</glyph>
<glyph name="u16812" format="2">
  <advance width="942"/>
  <unicode hex="16812"/>
  <outline>
    <contour>
      <point x="465" y="-65" type="line"/>
      <point x="495" y="-35"/>
      <point x="514" y="16"/>
      <point x="514" y="55" type="curve" smooth="yes"/>
      <point x="514" y="77"/>
      <point x="507" y="98"/>
      <point x="502" y="115" type="curve" smooth="yes"/>
      <point x="499" y="127"/>
      <point x="495" y="140"/>
      <point x="495" y="154" type="curve" smooth="yes"/>
      <point x="495" y="157"/>
      <point x="495" y="159"/>
      <point x="495" y="162" type="curve"/>
      <point x="519" y="200"/>
      <point x="547" y="247"/>
      <point x="572" y="296" type="curve"/>
      <point x="604" y="277"/>
      <point x="641" y="267"/>
      <point x="682" y="267" type="curve" smooth="yes"/>
      <point x="798" y="267"/>
      <point x="892" y="361"/>
      <point x="892" y="477" type="curve" smooth="yes"/>
      <point x="892" y="595"/>
      <point x="798" y="689"/>
      <point x="682" y="689" type="curve" smooth="yes"/>
      <point x="650" y="689"/>
      <point x="619" y="682"/>
      <point x="592" y="669" type="curve"/>
      <point x="561" y="705"/>
      <point x="519" y="725"/>
      <point x="471" y="725" type="curve" smooth="yes"/>
      <point x="423" y="725"/>
      <point x="380" y="705"/>
      <point x="349" y="669" type="curve"/>
      <point x="322" y="682"/>
      <point x="292" y="689"/>
      <point x="260" y="689" type="curve" smooth="yes"/>
      <point x="144" y="689"/>
      <point x="50" y="595"/>
      <point x="50" y="477" type="curve" smooth="yes"/>
      <point x="50" y="361"/>
      <point x="144" y="267"/>
      <point x="260" y="267" type="curve" smooth="yes"/>
      <point x="301" y="267"/>
      <point x="339" y="278"/>
      <point x="371" y="297" type="curve"/>
      <point x="395" y="252"/>
      <point x="421" y="208"/>
      <point x="445" y="171" type="curve"/>
      <point x="444" y="164"/>
      <point x="443" y="157"/>
      <point x="443" y="151" type="curve" smooth="yes"/>
      <point x="444" y="134"/>
      <point x="449" y="119"/>
      <point x="454" y="101" type="curve" smooth="yes"/>
      <point x="459" y="84"/>
      <point x="464" y="70"/>
      <point x="464" y="55" type="curve" smooth="yes"/>
      <point x="464" y="28"/>
      <point x="451" y="-7"/>
      <point x="429" y="-29" type="curve"/>
    </contour>
    <contour>
      <point x="260" y="317" type="curve" smooth="yes"/>
      <point x="172" y="317"/>
      <point x="100" y="389"/>
      <point x="100" y="477" type="curve" smooth="yes"/>
      <point x="100" y="567"/>
      <point x="172" y="639"/>
      <point x="260" y="639" type="curve" smooth="yes"/>
      <point x="282" y="639"/>
      <point x="303" y="635"/>
      <point x="322" y="627" type="curve"/>
      <point x="316" y="613"/>
      <point x="310" y="597"/>
      <point x="306" y="580" type="curve"/>
      <point x="294" y="585"/>
      <point x="280" y="588"/>
      <point x="266" y="588" type="curve" smooth="yes"/>
      <point x="207" y="588"/>
      <point x="159" y="540"/>
      <point x="159" y="480" type="curve" smooth="yes"/>
      <point x="159" y="421"/>
      <point x="207" y="373"/>
      <point x="266" y="373" type="curve" smooth="yes"/>
      <point x="289" y="373"/>
      <point x="310" y="380"/>
      <point x="327" y="392" type="curve"/>
      <point x="333" y="376"/>
      <point x="341" y="359"/>
      <point x="348" y="343" type="curve"/>
      <point x="323" y="326"/>
      <point x="292" y="317"/>
    </contour>
    <contour>
      <point x="266" y="423" type="curve" smooth="yes"/>
      <point x="235" y="423"/>
      <point x="209" y="449"/>
      <point x="209" y="480" type="curve" smooth="yes"/>
      <point x="209" y="512"/>
      <point x="235" y="538"/>
      <point x="266" y="538" type="curve" smooth="yes"/>
      <point x="278" y="538"/>
      <point x="290" y="534"/>
      <point x="300" y="527" type="curve"/>
      <point x="300" y="519" type="line" smooth="yes"/>
      <point x="300" y="495"/>
      <point x="304" y="469"/>
      <point x="311" y="443" type="curve"/>
      <point x="300" y="431"/>
      <point x="284" y="423"/>
    </contour>
    <contour>
      <point x="472" y="214" type="curve"/>
      <point x="416" y="305"/>
      <point x="350" y="433"/>
      <point x="350" y="519" type="curve" smooth="yes"/>
      <point x="350" y="615"/>
      <point x="403" y="675"/>
      <point x="471" y="675" type="curve" smooth="yes"/>
      <point x="539" y="675"/>
      <point x="592" y="615"/>
      <point x="592" y="519" type="curve" smooth="yes"/>
      <point x="592" y="434"/>
      <point x="528" y="306"/>
    </contour>
    <contour>
      <point x="676" y="423" type="curve" smooth="yes"/>
      <point x="658" y="423"/>
      <point x="641" y="430"/>
      <point x="631" y="443" type="curve"/>
      <point x="638" y="470"/>
      <point x="642" y="495"/>
      <point x="642" y="519" type="curve" smooth="yes"/>
      <point x="642" y="526" type="line"/>
      <point x="651" y="533"/>
      <point x="663" y="538"/>
      <point x="676" y="538" type="curve" smooth="yes"/>
      <point x="707" y="538"/>
      <point x="733" y="512"/>
      <point x="733" y="480" type="curve" smooth="yes"/>
      <point x="733" y="449"/>
      <point x="707" y="423"/>
    </contour>
    <contour>
      <point x="682" y="317" type="curve" smooth="yes"/>
      <point x="649" y="317"/>
      <point x="619" y="326"/>
      <point x="594" y="342" type="curve"/>
      <point x="602" y="359"/>
      <point x="608" y="375"/>
      <point x="614" y="391" type="curve"/>
      <point x="631" y="379"/>
      <point x="653" y="373"/>
      <point x="676" y="373" type="curve" smooth="yes"/>
      <point x="735" y="373"/>
      <point x="783" y="421"/>
      <point x="783" y="480" type="curve" smooth="yes"/>
      <point x="783" y="540"/>
      <point x="735" y="588"/>
      <point x="676" y="588" type="curve" smooth="yes"/>
      <point x="661" y="588"/>
      <point x="648" y="585"/>
      <point x="635" y="580" type="curve"/>
      <point x="631" y="597"/>
      <point x="626" y="612"/>
      <point x="619" y="627" type="curve"/>
      <point x="638" y="635"/>
      <point x="660" y="639"/>
      <point x="682" y="639" type="curve" smooth="yes"/>
      <point x="770" y="639"/>
      <point x="842" y="567"/>
      <point x="842" y="477" type="curve" smooth="yes"/>
      <point x="842" y="389"/>
      <point x="770" y="317"/>
    </contour>
  </outline>
</glyph>
<glyph name="u16813" format="2">
  <advance width="553"/>
  <unicode hex="16813"/>
  <outline>
    <contour>
      <point x="90" y="0" type="line"/>
      <point x="140" y="0" type="line"/>
      <point x="140" y="188" type="line"/>
      <point x="479" y="0" type="line"/>
      <point x="503" y="44" type="line"/>
      <point x="335" y="136" type="line"/>
      <point x="427" y="188"/>
      <point x="475" y="232"/>
      <point x="475" y="326" type="curve" smooth="yes"/>
      <point x="475" y="418"/>
      <point x="402" y="488"/>
      <point x="331" y="523" type="curve"/>
      <point x="355" y="537" type="line" smooth="yes"/>
      <point x="412" y="570"/>
      <point x="430" y="601"/>
      <point x="430" y="639" type="curve" smooth="yes"/>
      <point x="430" y="707"/>
      <point x="328" y="768"/>
      <point x="276" y="768" type="curve" smooth="yes"/>
      <point x="241" y="768" type="line"/>
      <point x="241" y="529" type="line"/>
      <point x="140" y="474" type="line"/>
      <point x="140" y="682" type="line"/>
      <point x="90" y="682" type="line"/>
      <point x="90" y="408" type="line"/>
      <point x="121" y="408" type="line"/>
      <point x="241" y="472" type="line"/>
      <point x="241" y="188" type="line"/>
      <point x="121" y="255" type="line"/>
      <point x="90" y="255" type="line"/>
    </contour>
    <contour>
      <point x="291" y="167" type="curve"/>
      <point x="291" y="486" type="line"/>
      <point x="364" y="456"/>
      <point x="425" y="398"/>
      <point x="425" y="326" type="curve" smooth="yes"/>
      <point x="425" y="252"/>
      <point x="387" y="219"/>
    </contour>
    <contour>
      <point x="291" y="556" type="line"/>
      <point x="291" y="714" type="line"/>
      <point x="339" y="701"/>
      <point x="380" y="661"/>
      <point x="380" y="635" type="curve" smooth="yes"/>
      <point x="380" y="616"/>
      <point x="369" y="603"/>
      <point x="341" y="586" type="curve" smooth="yes"/>
    </contour>
  </outline>
</glyph>
<glyph name="u16816" format="2">
  <advance width="727"/>
  <unicode hex="16816"/>
  <outline>
    <contour>
      <point x="596" y="-95" type="curve"/>
      <point x="596" y="-45" type="line"/>
      <point x="539" y="-45"/>
      <point x="480" y="-32"/>
      <point x="425" y="-10" type="curve"/>
      <point x="505" y="55"/>
      <point x="606" y="173"/>
      <point x="606" y="309" type="curve" smooth="yes"/>
      <point x="606" y="348"/>
      <point x="596" y="387"/>
      <point x="579" y="422" type="curve"/>
      <point x="643" y="439"/>
      <point x="677" y="479"/>
      <point x="677" y="534" type="curve" smooth="yes"/>
      <point x="677" y="600"/>
      <point x="626" y="630"/>
      <point x="577" y="630" type="curve" smooth="yes"/>
      <point x="534" y="630"/>
      <point x="490" y="598"/>
      <point x="455" y="553" type="curve"/>
      <point x="438" y="562"/>
      <point x="421" y="569"/>
      <point x="403" y="574" type="curve"/>
      <point x="472" y="682" type="line"/>
      <point x="434" y="706" type="line"/>
      <point x="386" y="625" type="line"/>
      <point x="386" y="725" type="line"/>
      <point x="341" y="725" type="line"/>
      <point x="341" y="625" type="line"/>
      <point x="293" y="706" type="line"/>
      <point x="255" y="682" type="line"/>
      <point x="323" y="575" type="line"/>
      <point x="305" y="571"/>
      <point x="287" y="564"/>
      <point x="270" y="555" type="curve"/>
      <point x="237" y="597"/>
      <point x="193" y="630"/>
      <point x="150" y="630" type="curve" smooth="yes"/>
      <point x="101" y="630"/>
      <point x="50" y="600"/>
      <point x="50" y="534" type="curve" smooth="yes"/>
      <point x="50" y="477"/>
      <point x="87" y="436"/>
      <point x="156" y="420" type="curve"/>
      <point x="141" y="382"/>
      <point x="133" y="339"/>
      <point x="133" y="291" type="curve" smooth="yes"/>
      <point x="133" y="75"/>
      <point x="376" y="-95"/>
    </contour>
    <contour>
      <point x="191" y="227" type="curve"/>
      <point x="186" y="247"/>
      <point x="183" y="269"/>
      <point x="183" y="291" type="curve" smooth="yes"/>
      <point x="183" y="332"/>
      <point x="190" y="369"/>
      <point x="203" y="402" type="curve"/>
      <point x="242" y="370"/>
      <point x="258" y="341"/>
      <point x="258" y="304" type="curve" smooth="yes"/>
      <point x="258" y="266"/>
      <point x="229" y="246"/>
    </contour>
    <contour>
      <point x="376" y="13" type="curve"/>
      <point x="303" y="53"/>
      <point x="241" y="111"/>
      <point x="208" y="180" type="curve"/>
      <point x="264" y="208"/>
      <point x="308" y="237"/>
      <point x="308" y="304" type="curve" smooth="yes"/>
      <point x="308" y="362"/>
      <point x="286" y="402"/>
      <point x="226" y="447" type="curve"/>
      <point x="260" y="499"/>
      <point x="310" y="530"/>
      <point x="360" y="530" type="curve" smooth="yes"/>
      <point x="411" y="530"/>
      <point x="465" y="498"/>
      <point x="504" y="450" type="curve"/>
      <point x="441" y="403"/>
      <point x="419" y="363"/>
      <point x="419" y="304" type="curve" smooth="yes"/>
      <point x="419" y="236"/>
      <point x="464" y="208"/>
      <point x="520" y="179" type="curve"/>
      <point x="483" y="109"/>
      <point x="422" y="49"/>
    </contour>
    <contour>
      <point x="180" y="467" type="curve"/>
      <point x="129" y="477"/>
      <point x="100" y="501"/>
      <point x="100" y="534" type="curve" smooth="yes"/>
      <point x="100" y="566"/>
      <point x="125" y="580"/>
      <point x="150" y="580" type="curve" smooth="yes"/>
      <point x="176" y="580"/>
      <point x="206" y="556"/>
      <point x="229" y="526" type="curve"/>
      <point x="210" y="510"/>
      <point x="194" y="490"/>
    </contour>
    <contour>
      <point x="540" y="224" type="curve"/>
      <point x="501" y="244"/>
      <point x="469" y="265"/>
      <point x="469" y="304" type="curve" smooth="yes"/>
      <point x="469" y="343"/>
      <point x="487" y="374"/>
      <point x="531" y="407" type="curve"/>
      <point x="546" y="377"/>
      <point x="556" y="343"/>
      <point x="556" y="309" type="curve" smooth="yes"/>
      <point x="556" y="280"/>
      <point x="550" y="251"/>
    </contour>
    <contour>
      <point x="551" y="468" type="curve"/>
      <point x="535" y="490"/>
      <point x="517" y="509"/>
      <point x="497" y="525" type="curve"/>
      <point x="523" y="558"/>
      <point x="551" y="580"/>
      <point x="577" y="580" type="curve" smooth="yes"/>
      <point x="602" y="580"/>
      <point x="627" y="566"/>
      <point x="627" y="534" type="curve" smooth="yes"/>
      <point x="627" y="502"/>
      <point x="599" y="479"/>
    </contour>
  </outline>
</glyph>
<glyph name="u1681B" format="2">
  <advance width="575"/>
  <unicode hex="1681B"/>
  <outline>
    <contour>
      <point x="344" y="-45" type="curve"/>
      <point x="394" y="-45" type="line"/>
      <point x="448" y="167"/>
      <point x="485" y="356"/>
      <point x="485" y="523" type="curve" smooth="yes"/>
      <point x="485" y="584"/>
      <point x="478" y="665"/>
      <point x="464" y="725" type="curve"/>
      <point x="442" y="725" type="line" smooth="yes"/>
      <point x="350" y="725"/>
      <point x="163" y="694"/>
      <point x="50" y="652" type="curve"/>
      <point x="50" y="617" type="line"/>
      <point x="225" y="424"/>
      <point x="309" y="179"/>
    </contour>
    <contour>
      <point x="372" y="53" type="curve"/>
      <point x="352" y="189"/>
      <point x="302" y="339"/>
      <point x="223" y="472" type="curve"/>
      <point x="289" y="518"/>
      <point x="356" y="555"/>
      <point x="433" y="570" type="curve"/>
      <point x="434" y="555"/>
      <point x="435" y="539"/>
      <point x="435" y="523" type="curve" smooth="yes"/>
      <point x="435" y="370"/>
      <point x="399" y="209"/>
    </contour>
    <contour>
      <point x="197" y="514" type="curve"/>
      <point x="171" y="552"/>
      <point x="143" y="589"/>
      <point x="112" y="624" type="curve"/>
      <point x="197" y="651"/>
      <point x="334" y="671"/>
      <point x="419" y="674" type="curve"/>
      <point x="423" y="657"/>
      <point x="426" y="639"/>
      <point x="428" y="621" type="curve"/>
      <point x="344" y="605"/>
      <point x="270" y="565"/>
    </contour>
  </outline>
</glyph>
<glyph name="u1681C" format="2">
  <advance width="425"/>
  <unicode hex="1681C"/>
  <outline>
    <contour>
      <point x="219" y="-55" type="curve" smooth="yes"/>
      <point x="274" y="-55"/>
      <point x="319" y="-10"/>
      <point x="319" y="45" type="curve" smooth="yes"/>
      <point x="319" y="62"/>
      <point x="315" y="78"/>
      <point x="307" y="92" type="curve"/>
      <point x="349" y="125"/>
      <point x="375" y="187"/>
      <point x="375" y="278" type="curve" smooth="yes"/>
      <point x="375" y="447"/>
      <point x="275" y="627"/>
      <point x="85" y="725" type="curve"/>
      <point x="50" y="692" type="line"/>
      <point x="96" y="639"/>
      <point x="124" y="567"/>
      <point x="124" y="503" type="curve" smooth="yes"/>
      <point x="124" y="460"/>
      <point x="107" y="418"/>
      <point x="92" y="381" type="curve" smooth="yes"/>
      <point x="74" y="338"/>
      <point x="53" y="285"/>
      <point x="53" y="225" type="curve" smooth="yes"/>
      <point x="53" y="160"/>
      <point x="82" y="111"/>
      <point x="127" y="84" type="curve"/>
      <point x="122" y="72"/>
      <point x="119" y="59"/>
      <point x="119" y="45" type="curve" smooth="yes"/>
      <point x="119" y="-10"/>
      <point x="164" y="-55"/>
    </contour>
    <contour>
      <point x="219" y="-5" type="curve" smooth="yes"/>
      <point x="192" y="-5"/>
      <point x="169" y="18"/>
      <point x="169" y="45" type="curve" smooth="yes"/>
      <point x="169" y="52"/>
      <point x="170" y="59"/>
      <point x="173" y="65" type="curve"/>
      <point x="186" y="62"/>
      <point x="200" y="61"/>
      <point x="214" y="61" type="curve" smooth="yes"/>
      <point x="231" y="61"/>
      <point x="247" y="63"/>
      <point x="262" y="68" type="curve"/>
      <point x="266" y="61"/>
      <point x="269" y="53"/>
      <point x="269" y="45" type="curve" smooth="yes"/>
      <point x="269" y="18"/>
      <point x="246" y="-5"/>
    </contour>
    <contour>
      <point x="214" y="111" type="curve" smooth="yes"/>
      <point x="151" y="111"/>
      <point x="103" y="155"/>
      <point x="103" y="225" type="curve" smooth="yes"/>
      <point x="103" y="277"/>
      <point x="121" y="320"/>
      <point x="138" y="361" type="curve" smooth="yes"/>
      <point x="156" y="404"/>
      <point x="174" y="448"/>
      <point x="174" y="503" type="curve" smooth="yes"/>
      <point x="174" y="546"/>
      <point x="163" y="595"/>
      <point x="140" y="636" type="curve"/>
      <point x="252" y="548"/>
      <point x="325" y="412"/>
      <point x="325" y="278" type="curve" smooth="yes"/>
      <point x="325" y="165"/>
      <point x="279" y="111"/>
    </contour>
  </outline>
</glyph>
<glyph name="u1681D" format="2">
  <advance width="771"/>
  <unicode hex="1681D"/>
  <outline>
    <contour>
      <point x="66" y="0" type="line"/>
      <point x="116" y="0" type="line"/>
      <point x="279" y="271" type="line"/>
      <point x="501" y="271" type="line"/>
      <point x="663" y="0" type="line"/>
      <point x="713" y="0" type="line"/>
      <point x="713" y="321" type="line"/>
      <point x="528" y="321" type="line"/>
      <point x="419" y="504" type="line"/>
      <point x="452" y="552"/>
      <point x="493" y="567"/>
      <point x="537" y="567" type="curve" smooth="yes"/>
      <point x="623" y="567"/>
      <point x="663" y="502"/>
      <point x="673" y="457" type="curve"/>
      <point x="721" y="467" type="line"/>
      <point x="709" y="525"/>
      <point x="654" y="617"/>
      <point x="537" y="617" type="curve" smooth="yes"/>
      <point x="482" y="617"/>
      <point x="431" y="601"/>
      <point x="388" y="547" type="curve"/>
      <point x="350" y="591"/>
      <point x="295" y="617"/>
      <point x="233" y="617" type="curve" smooth="yes"/>
      <point x="116" y="617"/>
      <point x="62" y="526"/>
      <point x="50" y="467" type="curve"/>
      <point x="98" y="457" type="line"/>
      <point x="109" y="505"/>
      <point x="147" y="567"/>
      <point x="233" y="567" type="curve" smooth="yes"/>
      <point x="285" y="567"/>
      <point x="331" y="543"/>
      <point x="360" y="503" type="curve"/>
      <point x="251" y="321" type="line"/>
      <point x="66" y="321" type="line"/>
    </contour>
    <contour>
      <point x="113" y="85" type="curve"/>
      <point x="115" y="110"/>
      <point x="116" y="139"/>
      <point x="116" y="161" type="curve" smooth="yes"/>
      <point x="116" y="271" type="line"/>
      <point x="221" y="271" type="line"/>
      <point x="155" y="161" type="line" smooth="yes"/>
      <point x="142" y="139"/>
      <point x="127" y="113"/>
    </contour>
    <contour>
      <point x="309" y="321" type="line"/>
      <point x="390" y="456" type="line"/>
      <point x="471" y="321" type="line"/>
    </contour>
    <contour>
      <point x="666" y="85" type="curve"/>
      <point x="655" y="109"/>
      <point x="637" y="139"/>
      <point x="624" y="161" type="curve" smooth="yes"/>
      <point x="558" y="271" type="line"/>
      <point x="663" y="271" type="line"/>
      <point x="663" y="161" type="line" smooth="yes"/>
      <point x="663" y="138"/>
      <point x="663" y="113"/>
    </contour>
  </outline>
</glyph>
<glyph name="u1681E" format="2">
  <advance width="535"/>
  <unicode hex="1681E"/>
  <outline>
    <contour>
      <point x="267" y="-10" type="curve" smooth="yes"/>
      <point x="388" y="-10"/>
      <point x="485" y="65"/>
      <point x="485" y="158" type="curve" smooth="yes"/>
      <point x="485" y="205"/>
      <point x="460" y="248"/>
      <point x="420" y="279" type="curve"/>
      <point x="436" y="295"/>
      <point x="446" y="316"/>
      <point x="446" y="341" type="curve" smooth="yes"/>
      <point x="446" y="390"/>
      <point x="406" y="430"/>
      <point x="357" y="430" type="curve" smooth="yes"/>
      <point x="349" y="430"/>
      <point x="342" y="429"/>
      <point x="335" y="427" type="curve"/>
      <point x="335" y="714" type="line"/>
      <point x="199" y="714" type="line"/>
      <point x="199" y="318" type="line"/>
      <point x="112" y="296"/>
      <point x="50" y="232"/>
      <point x="50" y="158" type="curve" smooth="yes"/>
      <point x="50" y="65"/>
      <point x="146" y="-10"/>
    </contour>
    <contour>
      <point x="267" y="40" type="curve" smooth="yes"/>
      <point x="174" y="40"/>
      <point x="100" y="93"/>
      <point x="100" y="158" type="curve" smooth="yes"/>
      <point x="100" y="223"/>
      <point x="174" y="277"/>
      <point x="267" y="277" type="curve" smooth="yes"/>
      <point x="360" y="277"/>
      <point x="435" y="223"/>
      <point x="435" y="158" type="curve" smooth="yes"/>
      <point x="435" y="93"/>
      <point x="360" y="40"/>
    </contour>
    <contour>
      <point x="372" y="306" type="curve"/>
      <point x="360" y="311"/>
      <point x="348" y="315"/>
      <point x="335" y="318" type="curve"/>
      <point x="335" y="372" type="line"/>
      <point x="341" y="377"/>
      <point x="349" y="380"/>
      <point x="357" y="380" type="curve" smooth="yes"/>
      <point x="378" y="380"/>
      <point x="396" y="362"/>
      <point x="396" y="341" type="curve" smooth="yes"/>
      <point x="396" y="325"/>
      <point x="386" y="311"/>
    </contour>
    <contour>
      <point x="249" y="326" type="curve"/>
      <point x="249" y="664" type="line"/>
      <point x="285" y="664" type="line"/>
      <point x="285" y="326" type="line"/>
      <point x="279" y="327"/>
      <point x="273" y="327"/>
      <point x="267" y="327" type="curve" smooth="yes"/>
      <point x="261" y="327"/>
      <point x="255" y="327"/>
    </contour>
  </outline>
</glyph>
<glyph name="u1681F" format="2">
  <advance width="804"/>
  <unicode hex="1681F"/>
  <outline>
    <contour>
      <point x="402" y="-10" type="curve" smooth="yes"/>
      <point x="596" y="-10"/>
      <point x="754" y="131"/>
      <point x="754" y="307" type="curve" smooth="yes"/>
      <point x="754" y="483"/>
      <point x="596" y="625"/>
      <point x="402" y="625" type="curve" smooth="yes"/>
      <point x="208" y="625"/>
      <point x="50" y="483"/>
      <point x="50" y="307" type="curve" smooth="yes"/>
      <point x="50" y="131"/>
      <point x="208" y="-10"/>
    </contour>
    <contour>
      <point x="402" y="40" type="curve" smooth="yes"/>
      <point x="236" y="40"/>
      <point x="100" y="159"/>
      <point x="100" y="307" type="curve" smooth="yes"/>
      <point x="100" y="455"/>
      <point x="236" y="575"/>
      <point x="402" y="575" type="curve" smooth="yes"/>
      <point x="568" y="575"/>
      <point x="704" y="455"/>
      <point x="704" y="307" type="curve" smooth="yes"/>
      <point x="704" y="159"/>
      <point x="568" y="40"/>
    </contour>
    <contour>
      <point x="194" y="247" type="line"/>
      <point x="274" y="298"/>
      <point x="342" y="305"/>
      <point x="406" y="305" type="curve" smooth="yes"/>
      <point x="487" y="305"/>
      <point x="559" y="283"/>
      <point x="610" y="247" type="curve"/>
      <point x="649" y="272" type="line"/>
      <point x="625" y="384"/>
      <point x="540" y="464"/>
      <point x="399" y="464" type="curve" smooth="yes"/>
      <point x="274" y="464"/>
      <point x="180" y="391"/>
      <point x="155" y="272" type="curve"/>
    </contour>
    <contour>
      <point x="219" y="316" type="curve"/>
      <point x="247" y="362"/>
      <point x="297" y="414"/>
      <point x="400" y="414" type="curve" smooth="yes"/>
      <point x="484" y="414"/>
      <point x="551" y="378"/>
      <point x="584" y="316" type="curve"/>
      <point x="534" y="340"/>
      <point x="470" y="355"/>
      <point x="398" y="355" type="curve" smooth="yes"/>
      <point x="318" y="355"/>
      <point x="263" y="336"/>
    </contour>
  </outline>
</glyph>
<glyph name="u16821" format="2">
  <advance width="994"/>
  <unicode hex="16821"/>
  <outline>
    <contour>
      <point x="497" y="-67" type="curve" smooth="yes"/>
      <point x="744" y="-67"/>
      <point x="944" y="116"/>
      <point x="944" y="344" type="curve" smooth="yes"/>
      <point x="944" y="572"/>
      <point x="744" y="756"/>
      <point x="497" y="756" type="curve" smooth="yes"/>
      <point x="250" y="756"/>
      <point x="50" y="572"/>
      <point x="50" y="344" type="curve" smooth="yes"/>
      <point x="50" y="116"/>
      <point x="250" y="-67"/>
    </contour>
    <contour>
      <point x="386" y="70" type="curve" smooth="yes"/>
      <point x="416" y="70"/>
      <point x="448" y="87"/>
      <point x="474" y="129" type="curve"/>
      <point x="435" y="156" type="line"/>
      <point x="419" y="129"/>
      <point x="402" y="120"/>
      <point x="382" y="120" type="curve" smooth="yes"/>
      <point x="350" y="120"/>
      <point x="326" y="146"/>
      <point x="310" y="184" type="curve"/>
      <point x="462" y="184" type="line"/>
      <point x="462" y="234" type="line"/>
      <point x="293" y="234" type="line"/>
      <point x="290" y="248"/>
      <point x="287" y="263"/>
      <point x="285" y="278" type="curve"/>
      <point x="462" y="278" type="line"/>
      <point x="462" y="328" type="line"/>
      <point x="281" y="328" type="line"/>
      <point x="281" y="372" type="line"/>
      <point x="462" y="372" type="line"/>
      <point x="462" y="422" type="line"/>
      <point x="286" y="422" type="line"/>
      <point x="295" y="466" type="line"/>
      <point x="462" y="466" type="line"/>
      <point x="462" y="516" type="line"/>
      <point x="313" y="516" type="line"/>
      <point x="330" y="552"/>
      <point x="353" y="574"/>
      <point x="378" y="574" type="curve" smooth="yes"/>
      <point x="396" y="574"/>
      <point x="416" y="568"/>
      <point x="432" y="544" type="curve"/>
      <point x="470" y="574" type="line"/>
      <point x="446" y="612"/>
      <point x="416" y="624"/>
      <point x="378" y="624" type="curve" smooth="yes"/>
      <point x="291" y="624"/>
      <point x="231" y="515"/>
      <point x="231" y="347" type="curve" smooth="yes"/>
      <point x="231" y="181"/>
      <point x="287" y="70"/>
    </contour>
    <contour>
      <point x="497" y="-17" type="curve" smooth="yes"/>
      <point x="278" y="-17"/>
      <point x="100" y="144"/>
      <point x="100" y="344" type="curve" smooth="yes"/>
      <point x="100" y="544"/>
      <point x="278" y="706"/>
      <point x="497" y="706" type="curve" smooth="yes"/>
      <point x="716" y="706"/>
      <point x="894" y="544"/>
      <point x="894" y="344" type="curve" smooth="yes"/>
      <point x="894" y="144"/>
      <point x="716" y="-17"/>
    </contour>
    <contour>
      <point x="642" y="70" type="curve" smooth="yes"/>
      <point x="672" y="70"/>
      <point x="704" y="87"/>
      <point x="730" y="129" type="curve"/>
      <point x="691" y="156" type="line"/>
      <point x="675" y="129"/>
      <point x="658" y="120"/>
      <point x="638" y="120" type="curve" smooth="yes"/>
      <point x="606" y="120"/>
      <point x="582" y="146"/>
      <point x="566" y="184" type="curve"/>
      <point x="718" y="184" type="line"/>
      <point x="718" y="234" type="line"/>
      <point x="549" y="234" type="line"/>
      <point x="546" y="248"/>
      <point x="543" y="263"/>
      <point x="541" y="278" type="curve"/>
      <point x="718" y="278" type="line"/>
      <point x="718" y="328" type="line"/>
      <point x="537" y="328" type="line"/>
      <point x="537" y="372" type="line"/>
      <point x="718" y="372" type="line"/>
      <point x="718" y="422" type="line"/>
      <point x="542" y="422" type="line"/>
      <point x="551" y="466" type="line"/>
      <point x="718" y="466" type="line"/>
      <point x="718" y="516" type="line"/>
      <point x="569" y="516" type="line"/>
      <point x="586" y="552"/>
      <point x="609" y="574"/>
      <point x="634" y="574" type="curve" smooth="yes"/>
      <point x="652" y="574"/>
      <point x="672" y="568"/>
      <point x="688" y="544" type="curve"/>
      <point x="726" y="574" type="line"/>
      <point x="702" y="612"/>
      <point x="672" y="624"/>
      <point x="634" y="624" type="curve" smooth="yes"/>
      <point x="547" y="624"/>
      <point x="487" y="515"/>
      <point x="487" y="347" type="curve" smooth="yes"/>
      <point x="487" y="181"/>
      <point x="543" y="70"/>
    </contour>
  </outline>
</glyph>
<glyph name="u16822" format="2">
  <advance width="575"/>
  <unicode hex="16822"/>
  <outline>
    <contour>
      <point x="90" y="-10" type="line"/>
      <point x="119" y="-10" type="line"/>
      <point x="525" y="121" type="line"/>
      <point x="525" y="157" type="line"/>
      <point x="231" y="245" type="line"/>
      <point x="525" y="347" type="line"/>
      <point x="525" y="383" type="line"/>
      <point x="217" y="470" type="line"/>
      <point x="525" y="581" type="line"/>
      <point x="525" y="617" type="line"/>
      <point x="119" y="729" type="line"/>
      <point x="90" y="729" type="line"/>
    </contour>
  </outline>
</glyph>
<glyph name="u16824" format="2">
  <advance width="608"/>
  <unicode hex="16824"/>
  <outline>
    <contour>
      <point x="405" y="-76" type="curve" smooth="yes"/>
      <point x="486" y="-76"/>
      <point x="552" y="27"/>
      <point x="552" y="154" type="curve" smooth="yes"/>
      <point x="552" y="204"/>
      <point x="541" y="251"/>
      <point x="524" y="288" type="curve"/>
      <point x="545" y="307"/>
      <point x="558" y="331"/>
      <point x="558" y="357" type="curve" smooth="yes"/>
      <point x="558" y="382"/>
      <point x="546" y="406"/>
      <point x="525" y="424" type="curve"/>
      <point x="542" y="461"/>
      <point x="552" y="506"/>
      <point x="552" y="556" type="curve" smooth="yes"/>
      <point x="552" y="683"/>
      <point x="486" y="786"/>
      <point x="405" y="786" type="curve" smooth="yes"/>
      <point x="336" y="786"/>
      <point x="277" y="711"/>
      <point x="262" y="610" type="curve"/>
      <point x="50" y="610" type="line"/>
      <point x="50" y="573" type="line"/>
      <point x="111" y="547" type="line"/>
      <point x="50" y="524" type="line"/>
      <point x="50" y="495" type="line"/>
      <point x="111" y="471" type="line"/>
      <point x="50" y="448" type="line"/>
      <point x="50" y="419" type="line"/>
      <point x="111" y="395" type="line"/>
      <point x="50" y="372" type="line"/>
      <point x="50" y="343" type="line"/>
      <point x="111" y="319" type="line"/>
      <point x="50" y="296" type="line"/>
      <point x="50" y="267" type="line"/>
      <point x="111" y="243" type="line"/>
      <point x="50" y="220" type="line"/>
      <point x="50" y="191" type="line"/>
      <point x="111" y="165" type="line"/>
      <point x="50" y="137" type="line"/>
      <point x="50" y="100" type="line"/>
      <point x="262" y="100" type="line"/>
      <point x="277" y="-1"/>
      <point x="336" y="-76"/>
    </contour>
    <contour>
      <point x="405" y="-26" type="curve" smooth="yes"/>
      <point x="362" y="-26"/>
      <point x="325" y="27"/>
      <point x="312" y="100" type="curve"/>
      <point x="354" y="100" type="line" smooth="yes"/>
      <point x="398" y="100"/>
      <point x="433" y="135"/>
      <point x="433" y="179" type="curve" smooth="yes"/>
      <point x="433" y="249" type="line"/>
      <point x="450" y="252"/>
      <point x="467" y="256"/>
      <point x="482" y="262" type="curve"/>
      <point x="494" y="232"/>
      <point x="502" y="195"/>
      <point x="502" y="154" type="curve" smooth="yes"/>
      <point x="502" y="55"/>
      <point x="458" y="-26"/>
    </contour>
    <contour>
      <point x="308" y="150" type="line"/>
      <point x="308" y="154" type="line" smooth="yes"/>
      <point x="308" y="195"/>
      <point x="315" y="233"/>
      <point x="328" y="263" type="curve"/>
      <point x="344" y="256"/>
      <point x="363" y="251"/>
      <point x="383" y="249" type="curve"/>
      <point x="383" y="178" type="line" smooth="yes"/>
      <point x="383" y="163"/>
      <point x="370" y="150"/>
      <point x="354" y="150" type="curve"/>
    </contour>
    <contour>
      <point x="185" y="150" type="line"/>
      <point x="185" y="179" type="line"/>
      <point x="126" y="206" type="line"/>
      <point x="185" y="229" type="line"/>
      <point x="185" y="258" type="line"/>
      <point x="126" y="281" type="line"/>
      <point x="186" y="306" type="line"/>
      <point x="186" y="335" type="line"/>
      <point x="126" y="358" type="line"/>
      <point x="185" y="381" type="line"/>
      <point x="185" y="410" type="line"/>
      <point x="126" y="433" type="line"/>
      <point x="185" y="458" type="line"/>
      <point x="185" y="487" type="line"/>
      <point x="126" y="510" type="line"/>
      <point x="185" y="531" type="line"/>
      <point x="185" y="560" type="line"/>
      <point x="258" y="560" type="line"/>
      <point x="258" y="556" type="line" smooth="yes"/>
      <point x="258" y="506"/>
      <point x="268" y="460"/>
      <point x="285" y="423" type="curve"/>
      <point x="266" y="404"/>
      <point x="254" y="382"/>
      <point x="254" y="357" type="curve" smooth="yes"/>
      <point x="254" y="331"/>
      <point x="266" y="308"/>
      <point x="286" y="289" type="curve"/>
      <point x="268" y="252"/>
      <point x="258" y="205"/>
      <point x="258" y="154" type="curve" smooth="yes"/>
      <point x="258" y="150" type="line"/>
    </contour>
    <contour>
      <point x="406" y="298" type="curve" smooth="yes"/>
      <point x="350" y="298"/>
      <point x="304" y="325"/>
      <point x="304" y="357" type="curve" smooth="yes"/>
      <point x="304" y="389"/>
      <point x="350" y="416"/>
      <point x="406" y="416" type="curve" smooth="yes"/>
      <point x="462" y="416"/>
      <point x="508" y="389"/>
      <point x="508" y="357" type="curve" smooth="yes"/>
      <point x="508" y="325"/>
      <point x="462" y="298"/>
    </contour>
    <contour>
      <point x="327" y="450" type="curve"/>
      <point x="315" y="479"/>
      <point x="308" y="516"/>
      <point x="308" y="556" type="curve" smooth="yes"/>
      <point x="308" y="560" type="line"/>
      <point x="354" y="560" type="line" smooth="yes"/>
      <point x="370" y="560"/>
      <point x="383" y="547"/>
      <point x="383" y="531" type="curve" smooth="yes"/>
      <point x="383" y="464" type="line"/>
      <point x="362" y="462"/>
      <point x="344" y="457"/>
    </contour>
    <contour>
      <point x="483" y="451" type="curve"/>
      <point x="468" y="457"/>
      <point x="451" y="462"/>
      <point x="433" y="464" type="curve"/>
      <point x="433" y="531" type="line" smooth="yes"/>
      <point x="433" y="575"/>
      <point x="398" y="610"/>
      <point x="354" y="610" type="curve" smooth="yes"/>
      <point x="312" y="610" type="line"/>
      <point x="325" y="683"/>
      <point x="362" y="736"/>
      <point x="405" y="736" type="curve" smooth="yes"/>
      <point x="458" y="736"/>
      <point x="502" y="655"/>
      <point x="502" y="556" type="curve" smooth="yes"/>
      <point x="502" y="516"/>
      <point x="495" y="480"/>
    </contour>
  </outline>
</glyph>
<glyph name="u16825" format="2">
  <advance width="1146"/>
  <unicode hex="16825"/>
  <outline>
    <contour>
      <point x="50" y="0" type="line"/>
      <point x="425" y="0" type="line"/>
      <point x="461" y="41" type="line"/>
      <point x="454" y="56"/>
      <point x="445" y="87"/>
      <point x="445" y="123" type="curve" smooth="yes"/>
      <point x="445" y="217"/>
      <point x="503" y="294"/>
      <point x="573" y="294" type="curve" smooth="yes"/>
      <point x="643" y="294"/>
      <point x="701" y="217"/>
      <point x="701" y="123" type="curve" smooth="yes"/>
      <point x="701" y="88"/>
      <point x="691" y="53"/>
      <point x="685" y="41" type="curve"/>
      <point x="721" y="0" type="line"/>
      <point x="1096" y="0" type="line"/>
      <point x="1096" y="10" type="line" smooth="yes"/>
      <point x="1096" y="222"/>
      <point x="972" y="405"/>
      <point x="794" y="490" type="curve"/>
      <point x="1000" y="490" type="line"/>
      <point x="1000" y="626" type="line"/>
      <point x="146" y="626" type="line"/>
      <point x="146" y="490" type="line"/>
      <point x="350" y="490" type="line"/>
      <point x="172" y="405"/>
      <point x="50" y="222"/>
      <point x="50" y="10" type="curve" smooth="yes"/>
    </contour>
    <contour>
      <point x="101" y="50" type="line"/>
      <point x="110" y="163"/>
      <point x="158" y="265"/>
      <point x="231" y="342" type="curve"/>
      <point x="256" y="308"/>
      <point x="297" y="286"/>
      <point x="344" y="286" type="curve" smooth="yes"/>
      <point x="406" y="286"/>
      <point x="458" y="324"/>
      <point x="478" y="379" type="curve"/>
      <point x="502" y="358"/>
      <point x="533" y="345"/>
      <point x="567" y="344" type="curve"/>
      <point x="471" y="340"/>
      <point x="395" y="242"/>
      <point x="395" y="123" type="curve" smooth="yes"/>
      <point x="395" y="98"/>
      <point x="398" y="74"/>
      <point x="405" y="50" type="curve"/>
    </contour>
    <contour>
      <point x="344" y="336" type="curve" smooth="yes"/>
      <point x="312" y="336"/>
      <point x="284" y="352"/>
      <point x="267" y="377" type="curve"/>
      <point x="314" y="417"/>
      <point x="369" y="448"/>
      <point x="428" y="467" type="curve"/>
      <point x="434" y="455"/>
      <point x="437" y="442"/>
      <point x="437" y="428" type="curve" smooth="yes"/>
      <point x="437" y="377"/>
      <point x="395" y="336"/>
    </contour>
    <contour>
      <point x="573" y="394" type="curve" smooth="yes"/>
      <point x="524" y="394"/>
      <point x="483" y="432"/>
      <point x="481" y="480" type="curve"/>
      <point x="510" y="486"/>
      <point x="541" y="490"/>
      <point x="572" y="490" type="curve" smooth="yes"/>
      <point x="604" y="490"/>
      <point x="635" y="486"/>
      <point x="666" y="480" type="curve"/>
      <point x="663" y="432"/>
      <point x="622" y="394"/>
    </contour>
    <contour>
      <point x="741" y="50" type="line"/>
      <point x="748" y="74"/>
      <point x="751" y="98"/>
      <point x="751" y="123" type="curve" smooth="yes"/>
      <point x="751" y="242"/>
      <point x="674" y="340"/>
      <point x="579" y="344" type="curve"/>
      <point x="613" y="345"/>
      <point x="644" y="359"/>
      <point x="668" y="380" type="curve"/>
      <point x="687" y="325"/>
      <point x="741" y="286"/>
      <point x="803" y="286" type="curve" smooth="yes"/>
      <point x="849" y="286"/>
      <point x="889" y="307"/>
      <point x="915" y="341" type="curve"/>
      <point x="987" y="264"/>
      <point x="1035" y="162"/>
      <point x="1044" y="50" type="curve"/>
    </contour>
    <contour>
      <point x="196" y="540" type="line"/>
      <point x="196" y="576" type="line"/>
      <point x="950" y="576" type="line"/>
      <point x="950" y="540" type="line"/>
    </contour>
    <contour>
      <point x="803" y="336" type="curve" smooth="yes"/>
      <point x="752" y="336"/>
      <point x="710" y="377"/>
      <point x="710" y="428" type="curve" smooth="yes"/>
      <point x="710" y="441"/>
      <point x="713" y="454"/>
      <point x="718" y="466" type="curve"/>
      <point x="778" y="447"/>
      <point x="832" y="415"/>
      <point x="878" y="375" type="curve"/>
      <point x="862" y="352"/>
      <point x="834" y="336"/>
    </contour>
  </outline>
</glyph>
<glyph name="u16827" format="2">
  <advance width="538"/>
  <unicode hex="16827"/>
  <outline>
    <contour>
      <point x="247" y="-41" type="line"/>
      <point x="297" y="-41" type="line"/>
      <point x="395" y="238" type="line"/>
      <point x="488" y="238" type="line"/>
      <point x="488" y="388" type="line"/>
      <point x="294" y="388" type="line"/>
      <point x="294" y="539" type="line"/>
      <point x="349" y="551"/>
      <point x="390" y="599"/>
      <point x="390" y="658" type="curve" smooth="yes"/>
      <point x="390" y="726"/>
      <point x="336" y="780"/>
      <point x="268" y="780" type="curve" smooth="yes"/>
      <point x="200" y="780"/>
      <point x="147" y="726"/>
      <point x="147" y="658" type="curve" smooth="yes"/>
      <point x="147" y="598"/>
      <point x="188" y="550"/>
      <point x="244" y="539" type="curve"/>
      <point x="244" y="388" type="line"/>
      <point x="50" y="388" type="line"/>
      <point x="50" y="238" type="line"/>
      <point x="148" y="238" type="line"/>
    </contour>
    <contour>
      <point x="272" y="32" type="curve"/>
      <point x="265" y="59"/>
      <point x="257" y="83"/>
      <point x="248" y="109" type="curve" smooth="yes"/>
      <point x="202" y="238" type="line"/>
      <point x="342" y="238" type="line"/>
      <point x="297" y="112" type="line" smooth="yes"/>
      <point x="289" y="89"/>
      <point x="279" y="60"/>
    </contour>
    <contour>
      <point x="100" y="288" type="line"/>
      <point x="100" y="338" type="line"/>
      <point x="438" y="338" type="line"/>
      <point x="438" y="288" type="line"/>
    </contour>
    <contour>
      <point x="268" y="587" type="curve" smooth="yes"/>
      <point x="228" y="587"/>
      <point x="197" y="618"/>
      <point x="197" y="658" type="curve" smooth="yes"/>
      <point x="197" y="698"/>
      <point x="228" y="730"/>
      <point x="268" y="730" type="curve" smooth="yes"/>
      <point x="308" y="730"/>
      <point x="340" y="698"/>
      <point x="340" y="658" type="curve" smooth="yes"/>
      <point x="340" y="618"/>
      <point x="308" y="587"/>
    </contour>
  </outline>
</glyph>
<glyph name="u16828" format="2">
  <advance width="862"/>
  <unicode hex="16828"/>
  <outline>
    <contour>
      <point x="360" y="0" type="line"/>
      <point x="503" y="0" type="line"/>
      <point x="503" y="50" type="line"/>
      <point x="456" y="50" type="line"/>
      <point x="456" y="124" type="line"/>
      <point x="529" y="124" type="line"/>
      <point x="529" y="259" type="line"/>
      <point x="541" y="264"/>
      <point x="553" y="271"/>
      <point x="565" y="278" type="curve"/>
      <point x="648" y="159" type="line"/>
      <point x="641" y="148" type="line"/>
      <point x="584" y="146" type="line"/>
      <point x="584" y="106" type="line"/>
      <point x="636" y="108" type="line"/>
      <point x="636" y="103"/>
      <point x="638" y="99"/>
      <point x="639" y="95" type="curve"/>
      <point x="596" y="58" type="line"/>
      <point x="620" y="26" type="line"/>
      <point x="664" y="63" type="line"/>
      <point x="672" y="58"/>
      <point x="680" y="55"/>
      <point x="689" y="53" type="curve"/>
      <point x="693" y="4" type="line"/>
      <point x="733" y="6" type="line"/>
      <point x="729" y="58" type="line"/>
      <point x="736" y="61"/>
      <point x="742" y="64"/>
      <point x="747" y="69" type="curve"/>
      <point x="790" y="44" type="line"/>
      <point x="812" y="78" type="line"/>
      <point x="767" y="105" type="line"/>
      <point x="768" y="109"/>
      <point x="769" y="114"/>
      <point x="769" y="119" type="curve" smooth="yes"/>
      <point x="769" y="122"/>
      <point x="768" y="126"/>
      <point x="768" y="129" type="curve"/>
      <point x="812" y="138" type="line"/>
      <point x="806" y="178" type="line"/>
      <point x="749" y="167" type="line"/>
      <point x="744" y="171"/>
      <point x="739" y="175"/>
      <point x="734" y="178" type="curve"/>
      <point x="756" y="217" type="line"/>
      <point x="720" y="235" type="line"/>
      <point x="692" y="184" type="line"/>
      <point x="604" y="310" type="line"/>
      <point x="646" y="352"/>
      <point x="672" y="410"/>
      <point x="672" y="474" type="curve" smooth="yes"/>
      <point x="672" y="604"/>
      <point x="564" y="710"/>
      <point x="431" y="710" type="curve" smooth="yes"/>
      <point x="298" y="710"/>
      <point x="191" y="604"/>
      <point x="191" y="474" type="curve" smooth="yes"/>
      <point x="191" y="410"/>
      <point x="216" y="352"/>
      <point x="258" y="310" type="curve"/>
      <point x="170" y="185" type="line"/>
      <point x="142" y="235" type="line"/>
      <point x="106" y="217" type="line"/>
      <point x="128" y="178" type="line"/>
      <point x="122" y="175"/>
      <point x="117" y="171"/>
      <point x="113" y="167" type="curve"/>
      <point x="56" y="178" type="line"/>
      <point x="50" y="138" type="line"/>
      <point x="94" y="129" type="line"/>
      <point x="93" y="126"/>
      <point x="93" y="122"/>
      <point x="93" y="119" type="curve" smooth="yes"/>
      <point x="93" y="114"/>
      <point x="93" y="109"/>
      <point x="94" y="105" type="curve"/>
      <point x="50" y="78" type="line"/>
      <point x="72" y="44" type="line"/>
      <point x="114" y="69" type="line"/>
      <point x="120" y="64"/>
      <point x="126" y="61"/>
      <point x="132" y="58" type="curve"/>
      <point x="129" y="6" type="line"/>
      <point x="169" y="4" type="line"/>
      <point x="172" y="53" type="line"/>
      <point x="181" y="55"/>
      <point x="190" y="58"/>
      <point x="197" y="63" type="curve"/>
      <point x="242" y="26" type="line"/>
      <point x="266" y="58" type="line"/>
      <point x="222" y="95" type="line"/>
      <point x="224" y="99"/>
      <point x="225" y="103"/>
      <point x="226" y="108" type="curve"/>
      <point x="278" y="106" type="line"/>
      <point x="278" y="146" type="line"/>
      <point x="220" y="148" type="line"/>
      <point x="213" y="159" type="line"/>
      <point x="297" y="279" type="line"/>
      <point x="309" y="271"/>
      <point x="321" y="264"/>
      <point x="334" y="259" type="curve"/>
      <point x="334" y="124" type="line"/>
      <point x="406" y="124" type="line"/>
      <point x="406" y="50" type="line"/>
      <point x="360" y="50" type="line"/>
    </contour>
    <contour>
      <point x="161" y="88" type="curve" smooth="yes"/>
      <point x="144" y="88"/>
      <point x="130" y="102"/>
      <point x="130" y="118" type="curve" smooth="yes"/>
      <point x="130" y="135"/>
      <point x="144" y="149"/>
      <point x="161" y="149" type="curve" smooth="yes"/>
      <point x="177" y="149"/>
      <point x="191" y="135"/>
      <point x="191" y="118" type="curve" smooth="yes"/>
      <point x="191" y="102"/>
      <point x="177" y="88"/>
    </contour>
    <contour>
      <point x="164" y="99" type="curve" smooth="yes"/>
      <point x="173" y="99"/>
      <point x="180" y="106"/>
      <point x="180" y="115" type="curve" smooth="yes"/>
      <point x="180" y="124"/>
      <point x="173" y="131"/>
      <point x="164" y="131" type="curve" smooth="yes"/>
      <point x="155" y="131"/>
      <point x="148" y="124"/>
      <point x="148" y="115" type="curve" smooth="yes"/>
      <point x="148" y="106"/>
      <point x="155" y="99"/>
    </contour>
    <contour>
      <point x="384" y="174" type="line"/>
      <point x="384" y="333" type="line"/>
      <point x="406" y="333" type="line"/>
      <point x="406" y="174" type="line"/>
    </contour>
    <contour>
      <point x="334" y="314" type="line"/>
      <point x="313" y="326"/>
      <point x="295" y="341"/>
      <point x="281" y="360" type="curve"/>
      <point x="309" y="376" type="line"/>
      <point x="316" y="367"/>
      <point x="325" y="359"/>
      <point x="334" y="352" type="curve"/>
    </contour>
    <contour>
      <point x="259" y="393" type="line"/>
      <point x="251" y="411"/>
      <point x="245" y="430"/>
      <point x="242" y="451" type="curve"/>
      <point x="276" y="451" type="line"/>
      <point x="278" y="436"/>
      <point x="283" y="423"/>
      <point x="288" y="410" type="curve"/>
    </contour>
    <contour>
      <point x="456" y="174" type="line"/>
      <point x="456" y="333" type="line"/>
      <point x="479" y="333" type="line"/>
      <point x="479" y="174" type="line"/>
    </contour>
    <contour>
      <point x="242" y="491" type="line"/>
      <point x="244" y="511"/>
      <point x="249" y="531"/>
      <point x="257" y="549" type="curve"/>
      <point x="286" y="532" type="line"/>
      <point x="281" y="519"/>
      <point x="277" y="505"/>
      <point x="276" y="491" type="curve"/>
    </contour>
    <contour>
      <point x="698" y="99" type="curve" smooth="yes"/>
      <point x="707" y="99"/>
      <point x="714" y="106"/>
      <point x="714" y="115" type="curve" smooth="yes"/>
      <point x="714" y="124"/>
      <point x="707" y="131"/>
      <point x="698" y="131" type="curve" smooth="yes"/>
      <point x="689" y="131"/>
      <point x="682" y="124"/>
      <point x="682" y="115" type="curve" smooth="yes"/>
      <point x="682" y="106"/>
      <point x="689" y="99"/>
    </contour>
    <contour>
      <point x="701" y="88" type="curve" smooth="yes"/>
      <point x="685" y="88"/>
      <point x="671" y="102"/>
      <point x="671" y="118" type="curve" smooth="yes"/>
      <point x="671" y="135"/>
      <point x="685" y="149"/>
      <point x="701" y="149" type="curve" smooth="yes"/>
      <point x="718" y="149"/>
      <point x="732" y="135"/>
      <point x="732" y="118" type="curve" smooth="yes"/>
      <point x="732" y="102"/>
      <point x="718" y="88"/>
    </contour>
    <contour>
      <point x="529" y="315" type="curve"/>
      <point x="529" y="352" type="line"/>
      <point x="538" y="359"/>
      <point x="546" y="367"/>
      <point x="553" y="376" type="curve"/>
      <point x="581" y="360" type="line"/>
      <point x="567" y="342"/>
      <point x="549" y="326"/>
    </contour>
    <contour>
      <point x="306" y="566" type="curve"/>
      <point x="277" y="583" type="line"/>
      <point x="289" y="599"/>
      <point x="304" y="613"/>
      <point x="320" y="625" type="curve"/>
      <point x="337" y="596" type="line"/>
      <point x="325" y="588"/>
      <point x="315" y="577"/>
    </contour>
    <contour>
      <point x="375" y="383" type="line"/>
      <point x="345" y="401"/>
      <point x="325" y="434"/>
      <point x="325" y="473" type="curve" smooth="yes"/>
      <point x="325" y="532"/>
      <point x="372" y="577"/>
      <point x="431" y="577" type="curve" smooth="yes"/>
      <point x="490" y="577"/>
      <point x="538" y="532"/>
      <point x="538" y="473" type="curve" smooth="yes"/>
      <point x="538" y="434"/>
      <point x="517" y="401"/>
      <point x="487" y="383" type="curve"/>
      <point x="456" y="383" type="line"/>
      <point x="456" y="414" type="line"/>
      <point x="479" y="423"/>
      <point x="495" y="445"/>
      <point x="495" y="472" type="curve" smooth="yes"/>
      <point x="495" y="508"/>
      <point x="467" y="536"/>
      <point x="431" y="536" type="curve" smooth="yes"/>
      <point x="395" y="536"/>
      <point x="368" y="508"/>
      <point x="368" y="472" type="curve" smooth="yes"/>
      <point x="368" y="445"/>
      <point x="383" y="423"/>
      <point x="406" y="414" type="curve"/>
      <point x="406" y="383" type="line"/>
    </contour>
    <contour>
      <point x="603" y="393" type="curve"/>
      <point x="574" y="410" type="line"/>
      <point x="580" y="423"/>
      <point x="584" y="436"/>
      <point x="586" y="451" type="curve"/>
      <point x="620" y="451" type="line"/>
      <point x="618" y="430"/>
      <point x="612" y="411"/>
    </contour>
    <contour>
      <point x="371" y="615" type="curve"/>
      <point x="355" y="644" type="line"/>
      <point x="372" y="652"/>
      <point x="391" y="657"/>
      <point x="411" y="659" type="curve"/>
      <point x="411" y="626" type="line"/>
      <point x="397" y="624"/>
      <point x="384" y="620"/>
    </contour>
    <contour>
      <point x="490" y="615" type="line"/>
      <point x="478" y="620"/>
      <point x="465" y="624"/>
      <point x="451" y="626" type="curve"/>
      <point x="451" y="659" type="line"/>
      <point x="471" y="657"/>
      <point x="489" y="652"/>
      <point x="507" y="644" type="curve"/>
    </contour>
    <contour>
      <point x="587" y="491" type="line"/>
      <point x="585" y="505"/>
      <point x="581" y="519"/>
      <point x="576" y="532" type="curve"/>
      <point x="605" y="549" type="line"/>
      <point x="614" y="531"/>
      <point x="619" y="511"/>
      <point x="621" y="491" type="curve"/>
    </contour>
    <contour>
      <point x="556" y="566" type="line"/>
      <point x="547" y="578"/>
      <point x="536" y="588"/>
      <point x="525" y="596" type="curve"/>
      <point x="541" y="625" type="line"/>
      <point x="558" y="614"/>
      <point x="573" y="599"/>
      <point x="585" y="583" type="curve"/>
    </contour>
  </outline>
</glyph>
<glyph name="u1682A" format="2">
  <advance width="742"/>
  <unicode hex="1682A"/>
  <outline>
    <contour>
      <point x="372" y="-37" type="curve" smooth="yes"/>
      <point x="472" y="-37"/>
      <point x="553" y="68"/>
      <point x="553" y="200" type="curve" smooth="yes"/>
      <point x="553" y="211"/>
      <point x="553" y="215"/>
      <point x="552" y="226" type="curve"/>
      <point x="591" y="206"/>
      <point x="628" y="175"/>
      <point x="648" y="155" type="curve"/>
      <point x="692" y="155" type="line"/>
      <point x="692" y="206" type="line" smooth="yes"/>
      <point x="692" y="413"/>
      <point x="587" y="586"/>
      <point x="444" y="631" type="curve"/>
      <point x="453" y="644"/>
      <point x="458" y="660"/>
      <point x="458" y="678" type="curve" smooth="yes"/>
      <point x="458" y="726"/>
      <point x="420" y="764"/>
      <point x="372" y="764" type="curve" smooth="yes"/>
      <point x="324" y="764"/>
      <point x="286" y="726"/>
      <point x="286" y="678" type="curve" smooth="yes"/>
      <point x="286" y="660"/>
      <point x="291" y="644"/>
      <point x="299" y="631" type="curve"/>
      <point x="156" y="586"/>
      <point x="50" y="413"/>
      <point x="50" y="206" type="curve" smooth="yes"/>
      <point x="50" y="155" type="line"/>
      <point x="94" y="155" type="line"/>
      <point x="114" y="175"/>
      <point x="151" y="206"/>
      <point x="190" y="226" type="curve"/>
      <point x="189" y="217"/>
      <point x="189" y="211"/>
      <point x="189" y="200" type="curve" smooth="yes"/>
      <point x="189" y="68"/>
      <point x="272" y="-37"/>
    </contour>
    <contour>
      <point x="372" y="13" type="curve" smooth="yes"/>
      <point x="300" y="13"/>
      <point x="239" y="96"/>
      <point x="239" y="200" type="curve" smooth="yes"/>
      <point x="239" y="239"/>
      <point x="242" y="263"/>
      <point x="253" y="305" type="curve"/>
      <point x="185" y="286"/>
      <point x="132" y="251"/>
      <point x="100" y="225" type="curve"/>
      <point x="108" y="432"/>
      <point x="222" y="592"/>
      <point x="372" y="592" type="curve" smooth="yes"/>
      <point x="518" y="592"/>
      <point x="635" y="430"/>
      <point x="642" y="225" type="curve"/>
      <point x="610" y="251"/>
      <point x="557" y="286"/>
      <point x="489" y="305" type="curve"/>
      <point x="500" y="263"/>
      <point x="503" y="239"/>
      <point x="503" y="200" type="curve" smooth="yes"/>
      <point x="503" y="96"/>
      <point x="444" y="13"/>
    </contour>
    <contour>
      <point x="372" y="642" type="curve" smooth="yes"/>
      <point x="352" y="642"/>
      <point x="336" y="658"/>
      <point x="336" y="678" type="curve" smooth="yes"/>
      <point x="336" y="698"/>
      <point x="352" y="714"/>
      <point x="372" y="714" type="curve" smooth="yes"/>
      <point x="392" y="714"/>
      <point x="408" y="698"/>
      <point x="408" y="678" type="curve" smooth="yes"/>
      <point x="408" y="658"/>
      <point x="392" y="642"/>
    </contour>
  </outline>
</glyph>
<glyph name="u1682C" format="2">
  <advance width="588"/>
  <unicode hex="1682C"/>
  <outline>
    <contour>
      <point x="62" y="0" type="line"/>
      <point x="334" y="0" type="line"/>
      <point x="334" y="35" type="line"/>
      <point x="220" y="198" type="line"/>
      <point x="239" y="239"/>
      <point x="253" y="283"/>
      <point x="255" y="327" type="curve"/>
      <point x="259" y="327" type="line"/>
      <point x="273" y="277"/>
      <point x="316" y="226"/>
      <point x="396" y="226" type="curve" smooth="yes"/>
      <point x="479" y="226"/>
      <point x="538" y="284"/>
      <point x="538" y="377" type="curve"/>
      <point x="488" y="377" type="line"/>
      <point x="488" y="333"/>
      <point x="469" y="276"/>
      <point x="396" y="276" type="curve" smooth="yes"/>
      <point x="336" y="276"/>
      <point x="306" y="331"/>
      <point x="303" y="377" type="curve"/>
      <point x="252" y="377" type="line"/>
      <point x="249" y="398"/>
      <point x="244" y="418"/>
      <point x="240" y="438" type="curve" smooth="yes"/>
      <point x="236" y="458"/>
      <point x="230" y="479"/>
      <point x="228" y="503" type="curve"/>
      <point x="303" y="503" type="line"/>
      <point x="306" y="549"/>
      <point x="336" y="604"/>
      <point x="396" y="604" type="curve" smooth="yes"/>
      <point x="469" y="604"/>
      <point x="488" y="547"/>
      <point x="488" y="503" type="curve"/>
      <point x="538" y="503" type="line"/>
      <point x="538" y="596"/>
      <point x="479" y="654"/>
      <point x="396" y="654" type="curve" smooth="yes"/>
      <point x="316" y="654"/>
      <point x="273" y="603"/>
      <point x="259" y="553" type="curve"/>
      <point x="227" y="553" type="line"/>
      <point x="230" y="612"/>
      <point x="248" y="643"/>
      <point x="279" y="690" type="curve"/>
      <point x="237" y="718" type="line"/>
      <point x="200" y="663"/>
      <point x="180" y="626"/>
      <point x="177" y="553" type="curve"/>
      <point x="163" y="553" type="line" smooth="yes"/>
      <point x="100" y="553"/>
      <point x="50" y="503"/>
      <point x="50" y="440" type="curve" smooth="yes"/>
      <point x="50" y="377"/>
      <point x="100" y="327"/>
      <point x="163" y="327" type="curve" smooth="yes"/>
      <point x="205" y="327" type="line"/>
      <point x="202" y="246"/>
      <point x="150" y="168"/>
      <point x="101" y="94" type="curve" smooth="yes"/>
      <point x="62" y="35" type="line"/>
    </contour>
    <contour>
      <point x="132" y="50" type="line"/>
      <point x="143" y="66" type="line" smooth="yes"/>
      <point x="160" y="91"/>
      <point x="178" y="118"/>
      <point x="194" y="147" type="curve"/>
      <point x="263" y="50" type="line"/>
    </contour>
    <contour>
      <point x="163" y="377" type="line" smooth="yes"/>
      <point x="128" y="377"/>
      <point x="100" y="405"/>
      <point x="100" y="440" type="curve" smooth="yes"/>
      <point x="100" y="475"/>
      <point x="128" y="503"/>
      <point x="163" y="503" type="curve" smooth="yes"/>
      <point x="178" y="503" type="line"/>
      <point x="180" y="474"/>
      <point x="187" y="450"/>
      <point x="192" y="426" type="curve" smooth="yes"/>
      <point x="202" y="377" type="line"/>
    </contour>
  </outline>
</glyph>
<glyph name="u1682F" format="2">
  <advance width="740"/>
  <unicode hex="1682F"/>
  <outline>
    <contour>
      <point x="221" y="-10" type="curve" smooth="yes"/>
      <point x="310" y="-10"/>
      <point x="393" y="50"/>
      <point x="393" y="188" type="curve" smooth="yes"/>
      <point x="393" y="202" type="line"/>
      <point x="476" y="214"/>
      <point x="540" y="285"/>
      <point x="540" y="372" type="curve" smooth="yes"/>
      <point x="540" y="458"/>
      <point x="476" y="530"/>
      <point x="393" y="542" type="curve"/>
      <point x="393" y="555" type="line" smooth="yes"/>
      <point x="393" y="651"/>
      <point x="447" y="699"/>
      <point x="514" y="699" type="curve" smooth="yes"/>
      <point x="586" y="699"/>
      <point x="640" y="640"/>
      <point x="640" y="543" type="curve"/>
      <point x="690" y="543" type="line"/>
      <point x="690" y="667"/>
      <point x="617" y="749"/>
      <point x="514" y="749" type="curve" smooth="yes"/>
      <point x="433" y="749"/>
      <point x="343" y="690"/>
      <point x="343" y="555" type="curve" smooth="yes"/>
      <point x="343" y="542" type="line"/>
      <point x="260" y="530"/>
      <point x="197" y="458"/>
      <point x="197" y="372" type="curve" smooth="yes"/>
      <point x="197" y="285"/>
      <point x="260" y="214"/>
      <point x="343" y="202" type="curve"/>
      <point x="343" y="185" type="line" smooth="yes"/>
      <point x="343" y="87"/>
      <point x="288" y="40"/>
      <point x="221" y="40" type="curve" smooth="yes"/>
      <point x="147" y="40"/>
      <point x="100" y="97"/>
      <point x="100" y="187" type="curve"/>
      <point x="50" y="187" type="line"/>
      <point x="50" y="49"/>
      <point x="135" y="-10"/>
    </contour>
    <contour>
      <point x="343" y="253" type="line"/>
      <point x="288" y="265"/>
      <point x="247" y="313"/>
      <point x="247" y="372" type="curve" smooth="yes"/>
      <point x="247" y="430"/>
      <point x="288" y="480"/>
      <point x="343" y="491" type="curve"/>
    </contour>
    <contour>
      <point x="393" y="253" type="curve"/>
      <point x="393" y="491" type="line"/>
      <point x="448" y="480"/>
      <point x="490" y="430"/>
      <point x="490" y="372" type="curve" smooth="yes"/>
      <point x="490" y="313"/>
      <point x="448" y="265"/>
    </contour>
  </outline>
</glyph>
<glyph name="u16831" format="2">
  <advance width="494"/>
  <unicode hex="16831"/>
  <outline>
    <contour>
      <point x="150" y="0" type="line"/>
      <point x="200" y="0" type="line"/>
      <point x="200" y="284" type="line"/>
      <point x="274" y="235" type="line" smooth="yes"/>
      <point x="309" y="212"/>
      <point x="344" y="200"/>
      <point x="368" y="200" type="curve" smooth="yes"/>
      <point x="405" y="200"/>
      <point x="437" y="237"/>
      <point x="439" y="285" type="curve"/>
      <point x="460" y="301"/>
      <point x="475" y="330"/>
      <point x="475" y="362" type="curve" smooth="yes"/>
      <point x="475" y="387"/>
      <point x="465" y="412"/>
      <point x="396" y="451" type="curve" smooth="yes"/>
      <point x="334" y="486"/>
      <point x="253" y="530"/>
      <point x="200" y="556" type="curve"/>
      <point x="200" y="569" type="line"/>
      <point x="235" y="579"/>
      <point x="260" y="611"/>
      <point x="260" y="650" type="curve" smooth="yes"/>
      <point x="260" y="697"/>
      <point x="222" y="735"/>
      <point x="175" y="735" type="curve" smooth="yes"/>
      <point x="128" y="735"/>
      <point x="90" y="697"/>
      <point x="90" y="650" type="curve" smooth="yes"/>
      <point x="90" y="611"/>
      <point x="115" y="579"/>
      <point x="150" y="569" type="curve"/>
    </contour>
    <contour>
      <point x="364" y="250" type="curve" smooth="yes"/>
      <point x="351" y="250"/>
      <point x="334" y="256"/>
      <point x="299" y="279" type="curve" smooth="yes"/>
      <point x="200" y="345" type="line"/>
      <point x="200" y="382" type="line"/>
      <point x="310" y="309" type="line" smooth="yes"/>
      <point x="338" y="290"/>
      <point x="365" y="279"/>
      <point x="387" y="275" type="curve"/>
      <point x="384" y="262"/>
      <point x="375" y="250"/>
    </contour>
    <contour>
      <point x="400" y="324" type="curve" smooth="yes"/>
      <point x="386" y="324"/>
      <point x="365" y="333"/>
      <point x="338" y="351" type="curve" smooth="yes"/>
      <point x="200" y="443" type="line"/>
      <point x="200" y="500" type="line"/>
      <point x="254" y="472"/>
      <point x="315" y="439"/>
      <point x="364" y="412" type="curve" smooth="yes"/>
      <point x="400" y="392"/>
      <point x="424" y="373"/>
      <point x="424" y="359" type="curve" smooth="yes"/>
      <point x="424" y="342"/>
      <point x="414" y="324"/>
    </contour>
    <contour>
      <point x="175" y="615" type="curve" smooth="yes"/>
      <point x="156" y="615"/>
      <point x="140" y="631"/>
      <point x="140" y="650" type="curve" smooth="yes"/>
      <point x="140" y="669"/>
      <point x="156" y="685"/>
      <point x="175" y="685" type="curve" smooth="yes"/>
      <point x="194" y="685"/>
      <point x="210" y="669"/>
      <point x="210" y="650" type="curve" smooth="yes"/>
      <point x="210" y="631"/>
      <point x="194" y="615"/>
    </contour>
  </outline>
</glyph>
<glyph name="u16834" format="2">
  <advance width="490"/>
  <unicode hex="16834"/>
  <outline>
    <contour>
      <point x="218" y="-9" type="curve" smooth="yes"/>
      <point x="311" y="-9"/>
      <point x="386" y="66"/>
      <point x="386" y="159" type="curve" smooth="yes"/>
      <point x="386" y="193"/>
      <point x="375" y="225"/>
      <point x="358" y="252" type="curve"/>
      <point x="413" y="298"/>
      <point x="440" y="352"/>
      <point x="440" y="401" type="curve" smooth="yes"/>
      <point x="440" y="480"/>
      <point x="373" y="546"/>
      <point x="242" y="551" type="curve"/>
      <point x="242" y="777" type="line"/>
      <point x="192" y="777" type="line"/>
      <point x="192" y="325" type="line"/>
      <point x="111" y="312"/>
      <point x="50" y="243"/>
      <point x="50" y="159" type="curve" smooth="yes"/>
      <point x="50" y="66"/>
      <point x="125" y="-9"/>
    </contour>
    <contour>
      <point x="218" y="41" type="curve" smooth="yes"/>
      <point x="153" y="41"/>
      <point x="100" y="94"/>
      <point x="100" y="159" type="curve" smooth="yes"/>
      <point x="100" y="224"/>
      <point x="153" y="277"/>
      <point x="218" y="277" type="curve" smooth="yes"/>
      <point x="283" y="277"/>
      <point x="336" y="224"/>
      <point x="336" y="159" type="curve" smooth="yes"/>
      <point x="336" y="94"/>
      <point x="283" y="41"/>
    </contour>
    <contour>
      <point x="324" y="289" type="curve"/>
      <point x="301" y="308"/>
      <point x="273" y="321"/>
      <point x="242" y="325" type="curve"/>
      <point x="242" y="501" type="line"/>
      <point x="340" y="497"/>
      <point x="390" y="453"/>
      <point x="390" y="401" type="curve" smooth="yes"/>
      <point x="390" y="365"/>
      <point x="368" y="325"/>
    </contour>
  </outline>
</glyph>
<glyph name="u16835" format="2">
  <advance width="454"/>
  <unicode hex="16835"/>
  <outline>
    <contour>
      <point x="110" y="134" type="line"/>
      <point x="160" y="134" type="line"/>
      <point x="160" y="219" type="line"/>
      <point x="294" y="219" type="line"/>
      <point x="294" y="134" type="line"/>
      <point x="344" y="134" type="line"/>
      <point x="344" y="219" type="line"/>
      <point x="404" y="219" type="line"/>
      <point x="404" y="269" type="line"/>
      <point x="344" y="269" type="line"/>
      <point x="344" y="334" type="line"/>
      <point x="404" y="334" type="line"/>
      <point x="404" y="384" type="line"/>
      <point x="344" y="384" type="line"/>
      <point x="344" y="449" type="line"/>
      <point x="404" y="449" type="line"/>
      <point x="404" y="499" type="line"/>
      <point x="344" y="499" type="line"/>
      <point x="344" y="584" type="line"/>
      <point x="294" y="584" type="line"/>
      <point x="294" y="499" type="line"/>
      <point x="160" y="499" type="line"/>
      <point x="160" y="584" type="line"/>
      <point x="110" y="584" type="line"/>
      <point x="110" y="499" type="line"/>
      <point x="50" y="499" type="line"/>
      <point x="50" y="449" type="line"/>
      <point x="110" y="449" type="line"/>
      <point x="110" y="384" type="line"/>
      <point x="50" y="384" type="line"/>
      <point x="50" y="334" type="line"/>
      <point x="110" y="334" type="line"/>
      <point x="110" y="269" type="line"/>
      <point x="50" y="269" type="line"/>
      <point x="50" y="219" type="line"/>
      <point x="110" y="219" type="line"/>
    </contour>
    <contour>
      <point x="160" y="269" type="line"/>
      <point x="160" y="334" type="line"/>
      <point x="294" y="334" type="line"/>
      <point x="294" y="269" type="line"/>
    </contour>
    <contour>
      <point x="160" y="384" type="line"/>
      <point x="160" y="449" type="line"/>
      <point x="294" y="449" type="line"/>
      <point x="294" y="384" type="line"/>
    </contour>
  </outline>
</glyph>
<glyph name="u16836" format="2">
  <advance width="610"/>
  <unicode hex="16836"/>
  <outline>
    <contour>
      <point x="304" y="71" type="curve" smooth="yes"/>
      <point x="427" y="71"/>
      <point x="526" y="170"/>
      <point x="526" y="292" type="curve" smooth="yes"/>
      <point x="526" y="346"/>
      <point x="506" y="396"/>
      <point x="474" y="435" type="curve"/>
      <point x="560" y="557" type="line"/>
      <point x="519" y="585" type="line"/>
      <point x="438" y="469" type="line"/>
      <point x="420" y="483"/>
      <point x="400" y="494"/>
      <point x="378" y="501" type="curve"/>
      <point x="428" y="639" type="line"/>
      <point x="381" y="655" type="line"/>
      <point x="329" y="512" type="line"/>
      <point x="321" y="513"/>
      <point x="312" y="514"/>
      <point x="304" y="514" type="curve" smooth="yes"/>
      <point x="295" y="514"/>
      <point x="287" y="514"/>
      <point x="279" y="513" type="curve"/>
      <point x="229" y="655" type="line"/>
      <point x="181" y="639" type="line"/>
      <point x="230" y="501" type="line"/>
      <point x="208" y="494"/>
      <point x="189" y="483"/>
      <point x="171" y="469" type="curve"/>
      <point x="90" y="585" type="line"/>
      <point x="50" y="557" type="line"/>
      <point x="135" y="435" type="line"/>
      <point x="103" y="397"/>
      <point x="83" y="347"/>
      <point x="83" y="292" type="curve" smooth="yes"/>
      <point x="83" y="170"/>
      <point x="182" y="71"/>
    </contour>
    <contour>
      <point x="304" y="121" type="curve" smooth="yes"/>
      <point x="210" y="121"/>
      <point x="133" y="198"/>
      <point x="133" y="292" type="curve" smooth="yes"/>
      <point x="133" y="387"/>
      <point x="210" y="464"/>
      <point x="304" y="464" type="curve" smooth="yes"/>
      <point x="399" y="464"/>
      <point x="476" y="387"/>
      <point x="476" y="292" type="curve" smooth="yes"/>
      <point x="476" y="198"/>
      <point x="399" y="121"/>
    </contour>
  </outline>
</glyph>
<glyph name="u16837" format="2">
  <advance width="561"/>
  <unicode hex="16837"/>
  <outline>
    <contour>
      <point x="263" y="437" type="line"/>
      <point x="298" y="437" type="line"/>
      <point x="421" y="557" type="line"/>
      <point x="387" y="593" type="line"/>
      <point x="306" y="514" type="line"/>
      <point x="306" y="781" type="line"/>
      <point x="256" y="781" type="line"/>
      <point x="256" y="514" type="line"/>
      <point x="175" y="593" type="line"/>
      <point x="141" y="557" type="line"/>
    </contour>
    <contour>
      <point x="256" y="-56" type="line"/>
      <point x="306" y="-56" type="line"/>
      <point x="306" y="210" type="line"/>
      <point x="387" y="132" type="line"/>
      <point x="421" y="168" type="line"/>
      <point x="298" y="288" type="line"/>
      <point x="263" y="288" type="line"/>
      <point x="141" y="168" type="line"/>
      <point x="175" y="132" type="line"/>
      <point x="256" y="210" type="line"/>
    </contour>
    <contour>
      <point x="86" y="222" type="line"/>
      <point x="206" y="344" type="line"/>
      <point x="206" y="379" type="line"/>
      <point x="86" y="502" type="line"/>
      <point x="50" y="468" type="line"/>
      <point x="153" y="362" type="line"/>
      <point x="50" y="256" type="line"/>
    </contour>
    <contour>
      <point x="475" y="222" type="line"/>
      <point x="511" y="256" type="line"/>
      <point x="408" y="362" type="line"/>
      <point x="511" y="468" type="line"/>
      <point x="475" y="502" type="line"/>
      <point x="355" y="379" type="line"/>
      <point x="355" y="344" type="line"/>
    </contour>
  </outline>
</glyph>
<glyph name="u16838" format="2">
  <advance width="870"/>
  <unicode hex="16838"/>
  <outline>
    <contour>
      <point x="290" y="-20" type="line"/>
      <point x="580" y="-20" type="line"/>
      <point x="580" y="220" type="line"/>
      <point x="820" y="220" type="line"/>
      <point x="820" y="510" type="line"/>
      <point x="580" y="510" type="line"/>
      <point x="580" y="750" type="line"/>
      <point x="290" y="750" type="line"/>
      <point x="290" y="510" type="line"/>
      <point x="50" y="510" type="line"/>
      <point x="50" y="220" type="line"/>
      <point x="290" y="220" type="line"/>
    </contour>
    <contour>
      <point x="100" y="270" type="line"/>
      <point x="100" y="340" type="line"/>
      <point x="170" y="340" type="line"/>
      <point x="170" y="270" type="line"/>
    </contour>
    <contour>
      <point x="340" y="30" type="line"/>
      <point x="340" y="100" type="line"/>
      <point x="410" y="100" type="line"/>
      <point x="410" y="30" type="line"/>
    </contour>
    <contour>
      <point x="460" y="30" type="line"/>
      <point x="460" y="100" type="line"/>
      <point x="530" y="100" type="line"/>
      <point x="530" y="30" type="line"/>
    </contour>
    <contour>
      <point x="340" y="150" type="line"/>
      <point x="340" y="220" type="line"/>
      <point x="410" y="220" type="line"/>
      <point x="410" y="150" type="line"/>
    </contour>
    <contour>
      <point x="220" y="270" type="line"/>
      <point x="220" y="340" type="line"/>
      <point x="290" y="340" type="line"/>
      <point x="290" y="270" type="line"/>
    </contour>
    <contour>
      <point x="100" y="390" type="line"/>
      <point x="100" y="460" type="line"/>
      <point x="170" y="460" type="line"/>
      <point x="170" y="390" type="line"/>
    </contour>
    <contour>
      <point x="460" y="150" type="line"/>
      <point x="460" y="220" type="line"/>
      <point x="530" y="220" type="line"/>
      <point x="530" y="150" type="line"/>
    </contour>
    <contour>
      <point x="220" y="390" type="line"/>
      <point x="220" y="460" type="line"/>
      <point x="290" y="460" type="line"/>
      <point x="290" y="390" type="line"/>
    </contour>
    <contour>
      <point x="340" y="270" type="line"/>
      <point x="340" y="460" type="line"/>
      <point x="530" y="460" type="line"/>
      <point x="530" y="270" type="line"/>
    </contour>
    <contour>
      <point x="340" y="510" type="line"/>
      <point x="340" y="580" type="line"/>
      <point x="410" y="580" type="line"/>
      <point x="410" y="510" type="line"/>
    </contour>
    <contour>
      <point x="580" y="270" type="line"/>
      <point x="580" y="340" type="line"/>
      <point x="650" y="340" type="line"/>
      <point x="650" y="270" type="line"/>
    </contour>
    <contour>
      <point x="340" y="630" type="line"/>
      <point x="340" y="700" type="line"/>
      <point x="410" y="700" type="line"/>
      <point x="410" y="630" type="line"/>
    </contour>
    <contour>
      <point x="460" y="510" type="line"/>
      <point x="460" y="580" type="line"/>
      <point x="530" y="580" type="line"/>
      <point x="530" y="510" type="line"/>
    </contour>
    <contour>
      <point x="580" y="390" type="line"/>
      <point x="580" y="460" type="line"/>
      <point x="650" y="460" type="line"/>
      <point x="650" y="390" type="line"/>
    </contour>
    <contour>
      <point x="700" y="270" type="line"/>
      <point x="700" y="340" type="line"/>
      <point x="770" y="340" type="line"/>
      <point x="770" y="270" type="line"/>
    </contour>
    <contour>
      <point x="460" y="630" type="line"/>
      <point x="460" y="700" type="line"/>
      <point x="530" y="700" type="line"/>
      <point x="530" y="630" type="line"/>
    </contour>
    <contour>
      <point x="700" y="390" type="line"/>
      <point x="700" y="460" type="line"/>
      <point x="770" y="460" type="line"/>
      <point x="770" y="390" type="line"/>
    </contour>
  </outline>
</glyph>
<glyph name="u16839" format="2">
  <advance width="741"/>
  <unicode hex="16839"/>
  <outline>
    <contour>
      <point x="50" y="375" type="curve"/>
      <point x="100" y="375" type="line"/>
      <point x="100" y="534"/>
      <point x="202" y="667"/>
      <point x="370" y="667" type="curve" smooth="yes"/>
      <point x="537" y="667"/>
      <point x="641" y="532"/>
      <point x="641" y="375" type="curve"/>
      <point x="691" y="375" type="line"/>
      <point x="691" y="558"/>
      <point x="567" y="717"/>
      <point x="370" y="717" type="curve" smooth="yes"/>
      <point x="170" y="717"/>
      <point x="50" y="562"/>
    </contour>
    <contour>
      <point x="345" y="0" type="line"/>
      <point x="395" y="0" type="line"/>
      <point x="395" y="435" type="line"/>
      <point x="345" y="435" type="line"/>
    </contour>
  </outline>
</glyph>
<glyph name="u1683B" format="2">
  <advance width="784"/>
  <unicode hex="1683B"/>
  <outline>
    <contour>
      <point x="268" y="-41" type="line"/>
      <point x="516" y="-41" type="line"/>
      <point x="516" y="9" type="line"/>
      <point x="417" y="9" type="line"/>
      <point x="417" y="199" type="line"/>
      <point x="470" y="227"/>
      <point x="501" y="249"/>
      <point x="550" y="275" type="curve"/>
      <point x="568" y="151" type="line"/>
      <point x="734" y="151" type="line"/>
      <point x="734" y="195" type="line"/>
      <point x="591" y="328" type="line"/>
      <point x="543" y="328" type="line"/>
      <point x="417" y="257" type="line"/>
      <point x="417" y="424" type="line"/>
      <point x="470" y="452"/>
      <point x="501" y="474"/>
      <point x="550" y="500" type="curve"/>
      <point x="568" y="376" type="line"/>
      <point x="734" y="376" type="line"/>
      <point x="734" y="420" type="line"/>
      <point x="591" y="553" type="line"/>
      <point x="543" y="553" type="line"/>
      <point x="417" y="481" type="line"/>
      <point x="417" y="648" type="line"/>
      <point x="470" y="676"/>
      <point x="501" y="698"/>
      <point x="550" y="724" type="curve"/>
      <point x="568" y="600" type="line"/>
      <point x="734" y="600" type="line"/>
      <point x="734" y="644" type="line"/>
      <point x="591" y="777" type="line"/>
      <point x="543" y="777" type="line"/>
      <point x="392" y="693" type="line"/>
      <point x="241" y="777" type="line"/>
      <point x="193" y="777" type="line"/>
      <point x="50" y="644" type="line"/>
      <point x="50" y="600" type="line"/>
      <point x="216" y="600" type="line"/>
      <point x="233" y="724" type="line"/>
      <point x="282" y="698"/>
      <point x="313" y="676"/>
      <point x="367" y="648" type="curve"/>
      <point x="367" y="481" type="line"/>
      <point x="241" y="553" type="line"/>
      <point x="193" y="553" type="line"/>
      <point x="50" y="420" type="line"/>
      <point x="50" y="376" type="line"/>
      <point x="216" y="376" type="line"/>
      <point x="233" y="500" type="line"/>
      <point x="282" y="474"/>
      <point x="313" y="452"/>
      <point x="367" y="424" type="curve"/>
      <point x="367" y="257" type="line"/>
      <point x="241" y="328" type="line"/>
      <point x="193" y="328" type="line"/>
      <point x="50" y="195" type="line"/>
      <point x="50" y="151" type="line"/>
      <point x="216" y="151" type="line"/>
      <point x="233" y="275" type="line"/>
      <point x="282" y="249"/>
      <point x="313" y="227"/>
      <point x="367" y="199" type="curve"/>
      <point x="367" y="9" type="line"/>
      <point x="268" y="9" type="line"/>
    </contour>
    <contour>
      <point x="122" y="201" type="line"/>
      <point x="181" y="257" type="line"/>
      <point x="171" y="201" type="line"/>
    </contour>
    <contour>
      <point x="122" y="426" type="line"/>
      <point x="181" y="482" type="line"/>
      <point x="171" y="426" type="line"/>
    </contour>
    <contour>
      <point x="122" y="650" type="line"/>
      <point x="181" y="706" type="line"/>
      <point x="171" y="650" type="line"/>
    </contour>
    <contour>
      <point x="613" y="201" type="line"/>
      <point x="603" y="257" type="line"/>
      <point x="662" y="201" type="line"/>
    </contour>
    <contour>
      <point x="613" y="426" type="line"/>
      <point x="603" y="482" type="line"/>
      <point x="662" y="426" type="line"/>
    </contour>
    <contour>
      <point x="613" y="650" type="line"/>
      <point x="603" y="706" type="line"/>
      <point x="662" y="650" type="line"/>
    </contour>
  </outline>
</glyph>
<glyph name="u1683C" format="2">
  <advance width="632"/>
  <unicode hex="1683C"/>
  <outline>
    <contour>
      <point x="50" y="0" type="line"/>
      <point x="582" y="0" type="line"/>
      <point x="582" y="244" type="line"/>
      <point x="547" y="244" type="line"/>
      <point x="341" y="77" type="line"/>
      <point x="341" y="385" type="line"/>
      <point x="304" y="385" type="line" smooth="yes"/>
      <point x="242" y="385"/>
      <point x="192" y="407"/>
      <point x="192" y="435" type="curve" smooth="yes"/>
      <point x="192" y="463"/>
      <point x="242" y="486"/>
      <point x="304" y="486" type="curve" smooth="yes"/>
      <point x="341" y="486" type="line"/>
      <point x="341" y="631" type="line"/>
      <point x="291" y="631" type="line"/>
      <point x="291" y="536" type="line"/>
      <point x="203" y="532"/>
      <point x="142" y="493"/>
      <point x="142" y="435" type="curve" smooth="yes"/>
      <point x="142" y="379"/>
      <point x="205" y="338"/>
      <point x="291" y="335" type="curve"/>
      <point x="291" y="77" type="line"/>
      <point x="85" y="244" type="line"/>
      <point x="50" y="244" type="line"/>
    </contour>
    <contour>
      <point x="100" y="50" type="line"/>
      <point x="100" y="169" type="line"/>
      <point x="245" y="50" type="line"/>
    </contour>
    <contour>
      <point x="386" y="50" type="line"/>
      <point x="452" y="103"/>
      <point x="479" y="126"/>
      <point x="532" y="169" type="curve"/>
      <point x="532" y="50" type="line"/>
    </contour>
  </outline>
</glyph>
<glyph name="u1683D" format="2">
  <advance width="560"/>
  <unicode hex="1683D"/>
  <outline>
    <contour>
      <point x="279" y="-10" type="curve" smooth="yes"/>
      <point x="420" y="-10"/>
      <point x="510" y="90"/>
      <point x="510" y="232" type="curve" smooth="yes"/>
      <point x="510" y="400"/>
      <point x="357" y="611"/>
      <point x="280" y="611" type="curve" smooth="yes"/>
      <point x="203" y="611"/>
      <point x="50" y="400"/>
      <point x="50" y="232" type="curve" smooth="yes"/>
      <point x="50" y="90"/>
      <point x="138" y="-10"/>
    </contour>
    <contour>
      <point x="265" y="40" type="line"/>
      <point x="162" y="47"/>
      <point x="100" y="125"/>
      <point x="100" y="232" type="curve" smooth="yes"/>
      <point x="100" y="325"/>
      <point x="166" y="460"/>
      <point x="226" y="519" type="curve"/>
      <point x="259" y="502" type="line"/>
      <point x="214" y="467" type="line"/>
      <point x="214" y="434" type="line"/>
      <point x="276" y="405" type="line"/>
      <point x="214" y="378" type="line"/>
      <point x="214" y="345" type="line"/>
      <point x="276" y="316" type="line"/>
      <point x="214" y="289" type="line"/>
      <point x="214" y="255" type="line"/>
      <point x="276" y="227" type="line"/>
      <point x="214" y="199" type="line"/>
      <point x="214" y="166" type="line"/>
      <point x="276" y="138" type="line"/>
      <point x="214" y="111" type="line"/>
      <point x="214" y="77" type="line"/>
      <point x="276" y="46" type="line"/>
    </contour>
    <contour>
      <point x="351" y="53" type="curve"/>
      <point x="351" y="63" type="line"/>
      <point x="291" y="95" type="line"/>
      <point x="351" y="121" type="line"/>
      <point x="351" y="156" type="line"/>
      <point x="291" y="182" type="line"/>
      <point x="352" y="211" type="line"/>
      <point x="352" y="245" type="line"/>
      <point x="291" y="273" type="line"/>
      <point x="351" y="299" type="line"/>
      <point x="351" y="334" type="line"/>
      <point x="291" y="360" type="line"/>
      <point x="351" y="391" type="line"/>
      <point x="351" y="423" type="line"/>
      <point x="283" y="457" type="line"/>
      <point x="344" y="505" type="line"/>
      <point x="399" y="444"/>
      <point x="460" y="330"/>
      <point x="460" y="232" type="curve" smooth="yes"/>
      <point x="460" y="146"/>
      <point x="419" y="80"/>
    </contour>
  </outline>
</glyph>
<glyph name="u1683E" format="2">
  <advance width="738"/>
  <unicode hex="1683E"/>
  <outline>
    <contour>
      <point x="170" y="83" type="line"/>
      <point x="220" y="83" type="line"/>
      <point x="220" y="267" type="line"/>
      <point x="518" y="267" type="line"/>
      <point x="518" y="83" type="line"/>
      <point x="568" y="83" type="line"/>
      <point x="568" y="267" type="line"/>
      <point x="688" y="267" type="line"/>
      <point x="688" y="317" type="line"/>
      <point x="568" y="317" type="line"/>
      <point x="568" y="382" type="line"/>
      <point x="688" y="382" type="line"/>
      <point x="688" y="432" type="line"/>
      <point x="568" y="432" type="line"/>
      <point x="568" y="612" type="line"/>
      <point x="518" y="612" type="line"/>
      <point x="518" y="432" type="line"/>
      <point x="220" y="432" type="line"/>
      <point x="220" y="612" type="line"/>
      <point x="170" y="612" type="line"/>
      <point x="170" y="432" type="line"/>
      <point x="50" y="432" type="line"/>
      <point x="50" y="382" type="line"/>
      <point x="170" y="382" type="line"/>
      <point x="170" y="317" type="line"/>
      <point x="50" y="317" type="line"/>
      <point x="50" y="267" type="line"/>
      <point x="170" y="267" type="line"/>
    </contour>
    <contour>
      <point x="344" y="83" type="line"/>
      <point x="394" y="83" type="line"/>
      <point x="394" y="232" type="line"/>
      <point x="344" y="232" type="line"/>
    </contour>
    <contour>
      <point x="220" y="317" type="line"/>
      <point x="220" y="382" type="line"/>
      <point x="518" y="382" type="line"/>
      <point x="518" y="317" type="line"/>
    </contour>
    <contour>
      <point x="344" y="467" type="line"/>
      <point x="394" y="467" type="line"/>
      <point x="394" y="612" type="line"/>
      <point x="344" y="612" type="line"/>
    </contour>
  </outline>
</glyph>
<glyph name="u16842" format="2">
  <advance width="596"/>
  <unicode hex="16842"/>
  <outline>
    <contour>
      <point x="50" y="0" type="line"/>
      <point x="463" y="0" type="line"/>
      <point x="463" y="35" type="line"/>
      <point x="291" y="494" type="line"/>
      <point x="546" y="494" type="line"/>
      <point x="546" y="643" type="line"/>
      <point x="237" y="643" type="line"/>
      <point x="214" y="623"/>
      <point x="201" y="591"/>
      <point x="201" y="568" type="curve" smooth="yes"/>
      <point x="201" y="547"/>
      <point x="208" y="524"/>
      <point x="225" y="506" type="curve"/>
      <point x="50" y="35" type="line"/>
    </contour>
    <contour>
      <point x="109" y="50" type="line"/>
      <point x="256" y="448" type="line"/>
      <point x="403" y="50" type="line"/>
    </contour>
    <contour>
      <point x="260" y="544" type="line"/>
      <point x="253" y="553"/>
      <point x="251" y="559"/>
      <point x="251" y="568" type="curve" smooth="yes"/>
      <point x="251" y="574"/>
      <point x="255" y="585"/>
      <point x="261" y="593" type="curve"/>
      <point x="496" y="593" type="line"/>
      <point x="496" y="544" type="line"/>
    </contour>
  </outline>
</glyph>
